<svg width="63" height="63" viewBox="0 0 63 63" fill="none" xmlns="http://www.w3.org/2000/svg">
<path d="M61.612 60.4252H55.4025V26.2732C55.4025 25.7016 54.9391 25.2382 54.3676 25.2382H39.8789V1.4353C39.8789 0.863772 39.4155 0.400391 38.8439 0.400391H11.9363C11.3647 0.400391 10.9014 0.863772 10.9014 1.4353V60.4252H1.58716C1.01563 60.4252 0.552246 60.8886 0.552246 61.4601C0.552246 62.0317 1.01563 62.495 1.58716 62.495H61.612C62.1835 62.495 62.6469 62.0317 62.6469 61.4601C62.6469 60.8886 62.1835 60.4252 61.612 60.4252ZM22.2854 60.4252H18.1457V51.111C18.1457 50.5395 18.6091 50.0761 19.1806 50.0761H21.2505C21.822 50.0761 22.2854 50.5395 22.2854 51.111V60.4252ZM26.425 26.2732V60.4252H24.3552V51.111C24.3552 49.3963 22.9652 48.0063 21.2505 48.0063H19.1806C17.4659 48.0063 16.0759 49.3963 16.0759 51.111V60.4252H12.9712V2.47021H37.809V25.2382H27.4599C26.8884 25.2382 26.425 25.7016 26.425 26.2732ZM53.3327 60.4252H28.4948V27.3081H53.3327V60.4252Z" fill="#021132"/>
<path d="M33.6692 14.8887H27.4597C26.8882 14.8887 26.4248 15.3521 26.4248 15.9236V22.133C26.4248 22.7046 26.8882 23.168 27.4597 23.168H33.6692C34.2407 23.168 34.7041 22.7046 34.7041 22.133V15.9236C34.7041 15.3521 34.2407 14.8887 33.6692 14.8887ZM32.6343 21.0981H28.4946V16.9585H32.6343V21.0981Z" fill="#021132"/>
<path d="M33.6692 4.54004H27.4597C26.8882 4.54004 26.4248 5.00342 26.4248 5.57495V11.7844C26.4248 12.3559 26.8882 12.8193 27.4597 12.8193H33.6692C34.2407 12.8193 34.7041 12.3559 34.7041 11.7844V5.57495C34.7041 5.00342 34.2407 4.54004 33.6692 4.54004ZM32.6343 10.7495H28.4946V6.60986H32.6343V10.7495Z" fill="#021132"/>
<path d="M23.3201 14.8887H17.1106C16.5391 14.8887 16.0757 15.3521 16.0757 15.9236V22.133C16.0757 22.7046 16.5391 23.168 17.1106 23.168H23.3201C23.8916 23.168 24.355 22.7046 24.355 22.133V15.9236C24.355 15.3521 23.8916 14.8887 23.3201 14.8887ZM22.2851 21.0981H18.1455V16.9585H22.2851V21.0981Z" fill="#021132"/>
<path d="M23.3201 4.54004H17.1106C16.5391 4.54004 16.0757 5.00342 16.0757 5.57495V11.7844C16.0757 12.3559 16.5391 12.8193 17.1106 12.8193H23.3201C23.8916 12.8193 24.355 12.3559 24.355 11.7844V5.57495C24.355 5.00342 23.8916 4.54004 23.3201 4.54004ZM22.2851 10.7495H18.1455V6.60986H22.2851V10.7495Z" fill="#021132"/>
<path d="M23.3201 25.2383H17.1106C16.5391 25.2383 16.0757 25.7017 16.0757 26.2732V32.4827C16.0757 33.0542 16.5391 33.5176 17.1106 33.5176H23.3201C23.8916 33.5176 24.355 33.0542 24.355 32.4827V26.2732C24.355 25.7017 23.8916 25.2383 23.3201 25.2383ZM22.2851 31.4477H18.1455V27.3081H22.2851V31.4477Z" fill="#021132"/>
<path d="M23.3201 35.5869H17.1106C16.5391 35.5869 16.0757 36.0503 16.0757 36.6218V42.8313C16.0757 43.4028 16.5391 43.8662 17.1106 43.8662H23.3201C23.8916 43.8662 24.355 43.4028 24.355 42.8313V36.6218C24.355 36.0503 23.8916 35.5869 23.3201 35.5869ZM22.2851 41.7964H18.1455V37.6567H22.2851V41.7964Z" fill="#021132"/>
<path d="M42.9836 48.0058H49.1931C49.7646 48.0058 50.228 47.5425 50.228 46.9709V40.7615C50.228 40.1899 49.7646 39.7266 49.1931 39.7266H42.9836C42.4121 39.7266 41.9487 40.1899 41.9487 40.7615V46.9709C41.9487 47.5425 42.4121 48.0058 42.9836 48.0058ZM44.0186 41.7964H48.1582V45.936H44.0186V41.7964Z" fill="#021132"/>
<path d="M42.9836 37.6572H49.1931C49.7646 37.6572 50.228 37.1938 50.228 36.6223V30.4128C50.228 29.8413 49.7646 29.3779 49.1931 29.3779H42.9836C42.4121 29.3779 41.9487 29.8413 41.9487 30.4128V36.6223C41.9487 37.1938 42.4121 37.6572 42.9836 37.6572ZM44.0186 31.4478H48.1582V35.5874H44.0186V31.4478Z" fill="#021132"/>
<path d="M42.9836 58.3555H49.1931C49.7646 58.3555 50.228 57.8921 50.228 57.3205V51.1111C50.228 50.5396 49.7646 50.0762 49.1931 50.0762H42.9836C42.4121 50.0762 41.9487 50.5396 41.9487 51.1111V57.3205C41.9487 57.8921 42.4121 58.3555 42.9836 58.3555ZM44.0186 52.146H48.1582V56.2856H44.0186V52.146Z" fill="#021132"/>
<path d="M32.6345 48.0058H38.844C39.4155 48.0058 39.8789 47.5425 39.8789 46.9709V40.7615C39.8789 40.1899 39.4155 39.7266 38.844 39.7266H32.6345C32.063 39.7266 31.5996 40.1899 31.5996 40.7615V46.9709C31.5996 47.5425 32.063 48.0058 32.6345 48.0058ZM33.6694 41.7964H37.8091V45.936H33.6694V41.7964Z" fill="#021132"/>
<path d="M32.6345 37.6572H38.844C39.4155 37.6572 39.8789 37.1938 39.8789 36.6223V30.4128C39.8789 29.8413 39.4155 29.3779 38.844 29.3779H32.6345C32.063 29.3779 31.5996 29.8413 31.5996 30.4128V36.6223C31.5996 37.1938 32.063 37.6572 32.6345 37.6572ZM33.6694 31.4478H37.8091V35.5874H33.6694V31.4478Z" fill="#021132"/>
<path d="M32.6345 58.3555H38.844C39.4155 58.3555 39.8789 57.8921 39.8789 57.3205V51.1111C39.8789 50.5396 39.4155 50.0762 38.844 50.0762H32.6345C32.063 50.0762 31.5996 50.5396 31.5996 51.1111V57.3205C31.5996 57.8921 32.063 58.3555 32.6345 58.3555ZM33.6694 52.146H37.8091V56.2856H33.6694V52.146Z" fill="#021132"/>
</svg>
