<svg width="126" height="125" viewBox="0 0 126 125" fill="none" xmlns="http://www.w3.org/2000/svg">
<g filter="url(#filter0_f_1305_49505)">
<path fill-rule="evenodd" clip-rule="evenodd" d="M65.7191 59.5635C65.589 59.4379 65.4892 59.2859 65.427 59.1186C65.3647 58.9513 65.3414 58.7728 65.3588 58.5958L66.0654 51.4049C66.0976 51.0867 66.259 50.7938 66.5142 50.5905C66.7694 50.3871 67.0976 50.29 67.4267 50.3203C67.7559 50.3505 68.0592 50.5058 68.2702 50.752C68.4811 50.9982 68.5825 51.3153 68.5522 51.6337L68.1741 55.4816L76.1756 47.7434C76.4112 47.5234 76.7266 47.4016 77.0541 47.4043C77.3816 47.407 77.6949 47.534 77.9265 47.7579C78.1581 47.9819 78.2895 48.2848 78.2924 48.6015C78.2953 48.9182 78.1695 49.2234 77.942 49.4512L69.9405 57.19L73.9193 56.8239C74.2492 56.7936 74.5779 56.8912 74.8333 57.0954C75.0887 57.2995 75.2498 57.5933 75.2811 57.9123C75.3125 58.2312 75.2115 58.5492 75.0005 58.7962C74.7894 59.0431 74.4855 59.1989 74.1557 59.2292L66.7204 59.9124C66.6814 59.9161 66.6415 59.9177 66.6021 59.9177C66.4381 59.9177 66.2757 59.8865 66.1242 59.8257C65.9726 59.7649 65.835 59.6758 65.7191 59.5635ZM82.4223 74.2977C82.777 73.5483 82.8326 72.6986 82.5784 71.912C82.3242 71.1254 81.7782 70.4575 81.0454 70.0369L74.9203 66.5121C74.2603 66.1314 73.4878 65.9745 72.7252 66.0663C71.9626 66.158 71.2535 66.4932 70.71 67.0186C69.9714 67.732 69.3829 68.2747 68.9614 68.6327C68.8675 68.7178 68.7557 68.7823 68.6335 68.8216C68.5114 68.861 68.382 68.8743 68.254 68.8607C65.9641 68.687 63.1059 67.1408 60.6083 64.7259C58.1108 62.3109 56.5121 59.5462 56.3319 57.3312C56.3179 57.2076 56.3316 57.0824 56.3722 56.9644C56.4128 56.8463 56.4794 56.7381 56.5672 56.6473C56.9378 56.2388 57.4994 55.6703 58.2366 54.9562C58.7798 54.4306 59.1263 53.7449 59.2212 53.0074C59.3162 52.27 59.1542 51.5231 58.7609 50.8847L55.1153 44.9608C54.6806 44.2522 53.9901 43.7241 53.1769 43.4782C52.3637 43.2324 51.4852 43.2861 50.7104 43.629L44.7909 46.2411C44.1194 46.5349 43.5632 47.0292 43.2041 47.6515C42.8449 48.2738 42.7017 48.9912 42.7956 49.6981C43.7938 57.3974 47.7987 64.9787 54.0722 71.0462C60.3458 77.1137 68.1853 80.9864 76.1469 81.9513C76.2919 81.9689 76.4379 81.9778 76.584 81.9777C77.2461 81.9783 77.8943 81.7941 78.4508 81.4473C79.0073 81.1005 79.4485 80.6057 79.7214 80.0224L82.4223 74.2977Z" fill="url(#paint0_linear_1305_49505)"/>
</g>
<path fill-rule="evenodd" clip-rule="evenodd" d="M65.7191 59.5635C65.589 59.4379 65.4892 59.2859 65.427 59.1186C65.3647 58.9513 65.3414 58.7728 65.3588 58.5958L66.0654 51.4049C66.0976 51.0867 66.259 50.7938 66.5142 50.5905C66.7694 50.3871 67.0976 50.29 67.4267 50.3203C67.7559 50.3505 68.0592 50.5058 68.2702 50.752C68.4811 50.9982 68.5825 51.3153 68.5522 51.6337L68.1741 55.4816L76.1756 47.7434C76.4112 47.5234 76.7266 47.4016 77.0541 47.4043C77.3816 47.407 77.6949 47.534 77.9265 47.7579C78.1581 47.9819 78.2895 48.2848 78.2924 48.6015C78.2953 48.9182 78.1695 49.2234 77.942 49.4512L69.9405 57.19L73.9193 56.8239C74.2492 56.7936 74.5779 56.8912 74.8333 57.0954C75.0887 57.2995 75.2498 57.5933 75.2811 57.9123C75.3125 58.2312 75.2115 58.5492 75.0005 58.7962C74.7894 59.0431 74.4855 59.1989 74.1557 59.2292L66.7204 59.9124C66.6814 59.9161 66.6415 59.9177 66.6021 59.9177C66.4381 59.9177 66.2757 59.8865 66.1242 59.8257C65.9726 59.7649 65.835 59.6758 65.7191 59.5635ZM82.4223 74.2977C82.777 73.5483 82.8326 72.6986 82.5784 71.912C82.3242 71.1254 81.7782 70.4575 81.0454 70.0369L74.9203 66.5121C74.2603 66.1314 73.4878 65.9745 72.7252 66.0663C71.9626 66.158 71.2535 66.4932 70.71 67.0186C69.9714 67.732 69.3829 68.2747 68.9614 68.6327C68.8675 68.7178 68.7557 68.7823 68.6335 68.8216C68.5114 68.861 68.382 68.8743 68.254 68.8607C65.9641 68.687 63.1059 67.1408 60.6083 64.7259C58.1108 62.3109 56.5121 59.5462 56.3319 57.3312C56.3179 57.2076 56.3316 57.0824 56.3722 56.9644C56.4128 56.8463 56.4794 56.7381 56.5672 56.6473C56.9378 56.2388 57.4994 55.6703 58.2366 54.9562C58.7798 54.4306 59.1263 53.7449 59.2212 53.0074C59.3162 52.27 59.1542 51.5231 58.7609 50.8847L55.1153 44.9608C54.6806 44.2522 53.9901 43.7241 53.1769 43.4782C52.3637 43.2324 51.4852 43.2861 50.7104 43.629L44.7909 46.2411C44.1194 46.5349 43.5632 47.0292 43.2041 47.6515C42.8449 48.2738 42.7017 48.9912 42.7956 49.6981C43.7938 57.3974 47.7987 64.9787 54.0722 71.0462C60.3458 77.1137 68.1853 80.9864 76.1469 81.9513C76.2919 81.9689 76.4379 81.9778 76.584 81.9777C77.2461 81.9783 77.8943 81.7941 78.4508 81.4473C79.0073 81.1005 79.4485 80.6057 79.7214 80.0224L82.4223 74.2977Z" fill="url(#paint1_linear_1305_49505)"/>
<defs>
<filter id="filter0_f_1305_49505" x="0.400928" y="0.959522" width="124.701" height="123.385" filterUnits="userSpaceOnUse" color-interpolation-filters="sRGB">
<feFlood flood-opacity="0" result="BackgroundImageFix"/>
<feBlend mode="normal" in="SourceGraphic" in2="BackgroundImageFix" result="shape"/>
<feGaussianBlur stdDeviation="21.1833" result="effect1_foregroundBlur_1305_49505"/>
</filter>
<linearGradient id="paint0_linear_1305_49505" x1="54.0722" y1="71.0461" x2="77.2526" y2="47.0768" gradientUnits="userSpaceOnUse">
<stop stop-color="#E81E25"/>
<stop offset="0.108" stop-color="#EA3522"/>
<stop offset="0.416" stop-color="#F1711C"/>
<stop offset="0.678" stop-color="#F59D17"/>
<stop offset="0.881" stop-color="#F8B814"/>
<stop offset="1" stop-color="#F9C213"/>
</linearGradient>
<linearGradient id="paint1_linear_1305_49505" x1="54.0722" y1="71.0461" x2="77.2526" y2="47.0768" gradientUnits="userSpaceOnUse">
<stop stop-color="#E81E25"/>
<stop offset="0.108" stop-color="#EA3522"/>
<stop offset="0.416" stop-color="#F1711C"/>
<stop offset="0.678" stop-color="#F59D17"/>
<stop offset="0.881" stop-color="#F8B814"/>
<stop offset="1" stop-color="#F9C213"/>
</linearGradient>
</defs>
</svg>
