<svg width="180" height="156" viewBox="0 0 180 156" fill="none" xmlns="http://www.w3.org/2000/svg">
<rect opacity="0.05" x="54.7358" y="10.8359" width="84.8024" height="0.770931" fill="#E7E8F2"/>
<rect opacity="0.05" x="54.7358" y="42.4443" width="84.8024" height="0.770931" fill="#E7E8F2"/>
<rect opacity="0.05" x="54.7358" y="74.0527" width="84.8024" height="0.770931" fill="#E7E8F2"/>
<rect x="54.7358" y="105.66" width="84.8024" height="0.770931" fill="#E7E8F2"/>
<path d="M65.9998 4.08373C65.9998 2.38063 67.3804 1 69.0835 1H78.916C80.6191 1 81.9998 2.38063 81.9998 4.08372V106H65.9998V4.08373Z" fill="#0096E6"/>
<path d="M91.7405 94.8669C91.7405 93.1638 93.1211 91.7832 94.8242 91.7832H104.075C105.778 91.7832 107.159 93.1638 107.159 94.8669V106.431H91.7405V94.8669Z" fill="#3A70A2" fill-opacity="0.3"/>
<path opacity="0.402121" d="M17.0984 3.68659L16.9781 3.32579L17.3289 2.71444L17.4492 3.05519L17.0984 3.68659ZM16.9781 11.8646V10.9125L17.4492 10.9225V11.8646H16.9781ZM17.1686 11.0328C17.0216 11.0328 16.8445 11.0261 16.6374 11.0127C16.4369 11.0061 16.2298 10.9927 16.016 10.9727C15.8022 10.9593 15.5984 10.9426 15.4047 10.9225C15.2176 10.9025 15.0606 10.8791 14.9336 10.8524V10.241C15.1007 10.2544 15.3044 10.2678 15.545 10.2811C15.7855 10.2945 16.0427 10.3045 16.3167 10.3112C16.5973 10.3179 16.8712 10.3212 17.1385 10.3212C17.4392 10.3212 17.7098 10.2912 17.9503 10.231C18.1908 10.1709 18.3812 10.0606 18.5215 9.90029C18.6685 9.73994 18.742 9.50943 18.742 9.20877V8.70766C18.742 8.36691 18.6552 8.10968 18.4815 7.93596C18.3077 7.75556 18.0271 7.66536 17.6396 7.66536H16.8479C16.2398 7.66536 15.7621 7.53173 15.4147 7.26448C15.0739 6.99722 14.9036 6.5362 14.9036 5.88143V5.4605C14.9036 4.76563 15.0906 4.27121 15.4648 3.97723C15.839 3.68325 16.3668 3.53625 17.0483 3.53625C17.2621 3.53625 17.5026 3.54962 17.7699 3.57634C18.0371 3.59639 18.2944 3.62311 18.5416 3.65652C18.7955 3.68325 19.0059 3.71331 19.173 3.74672V4.35807C18.879 4.33134 18.5449 4.30796 18.1708 4.28791C17.8033 4.26787 17.4559 4.25785 17.1285 4.25785C16.8278 4.25785 16.5672 4.29459 16.3467 4.36809C16.1263 4.4349 15.9559 4.55851 15.8356 4.73891C15.722 4.91262 15.6652 5.16318 15.6652 5.49056V5.83132C15.6652 6.23888 15.7721 6.5195 15.986 6.67317C16.1998 6.82685 16.4971 6.90368 16.8779 6.90368H17.7298C18.1374 6.90368 18.4714 6.97718 18.732 7.12417C18.9926 7.27116 19.1863 7.47494 19.3133 7.73552C19.4402 7.98941 19.5037 8.28339 19.5037 8.61746V9.18872C19.5037 9.68315 19.3968 10.064 19.183 10.3312C18.9759 10.5985 18.6953 10.7822 18.3411 10.8825C17.9937 10.9827 17.6029 11.0328 17.1686 11.0328ZM23.7969 11.0228C23.3426 11.0228 22.8916 11.0127 22.4439 10.9927C21.9963 10.9727 21.5954 10.9459 21.2413 10.9125V10.3012H23.807C24.1076 10.3012 24.3682 10.2544 24.5887 10.1609C24.8092 10.0606 24.9795 9.92034 25.0998 9.73994C25.2267 9.55286 25.2902 9.33571 25.2902 9.0885V8.28673C25.2902 7.9393 25.19 7.6687 24.9896 7.47494C24.7891 7.2745 24.4818 7.17428 24.0675 7.17428H23.2758C22.9751 7.17428 22.7346 7.24109 22.5542 7.37472C22.3738 7.50835 22.2569 7.72215 22.2034 8.01614H21.4518L21.6622 3.59639H25.8414V4.31798H22.3537L22.2235 7.02395C22.3036 6.89032 22.4439 6.77005 22.6444 6.66315C22.8515 6.54957 23.1121 6.49278 23.4261 6.49278H24.3081C24.6956 6.49278 25.0196 6.56627 25.2802 6.71326C25.5408 6.85357 25.7412 7.05067 25.8815 7.30457C26.0218 7.55178 26.092 7.8324 26.092 8.14642V9.23883C26.092 9.63972 25.9951 9.97379 25.8014 10.241C25.6076 10.5016 25.3403 10.6987 24.9996 10.8323C24.6588 10.9593 24.2579 11.0228 23.7969 11.0228ZM29.3179 10.9927C28.9638 10.9927 28.6465 10.9326 28.3658 10.8123C28.0919 10.6854 27.8748 10.4949 27.7144 10.241C27.5607 9.98047 27.4839 9.6464 27.4839 9.23883V5.33021C27.4839 4.93601 27.5607 4.60862 27.7144 4.34805C27.8748 4.08079 28.0919 3.88035 28.3658 3.74672C28.6465 3.60641 28.9638 3.53625 29.3179 3.53625H30.7511C31.1653 3.53625 31.5028 3.61309 31.7633 3.76676C32.0239 3.91375 32.2143 4.12088 32.3346 4.38813C32.4615 4.65539 32.525 4.96942 32.525 5.33021V9.23883C32.525 9.84684 32.3613 10.2912 32.0339 10.5718C31.7132 10.8524 31.2856 10.9927 30.7511 10.9927H29.3179ZM29.4683 10.2811H30.5707C30.9783 10.2811 31.2722 10.1809 31.4526 9.98047C31.633 9.77334 31.7232 9.49273 31.7232 9.13861V5.39034C31.7232 5.0095 31.6264 4.72554 31.4326 4.53847C31.2455 4.35139 30.9682 4.25785 30.6008 4.25785H29.4482C29.0874 4.25785 28.8035 4.35807 28.5963 4.55851C28.3892 4.75227 28.2857 5.02955 28.2857 5.39034V9.13861C28.2857 9.51945 28.3892 9.80675 28.5963 10.0005C28.8101 10.1876 29.1008 10.2811 29.4683 10.2811ZM35.8852 10.9927C35.531 10.9927 35.2137 10.9326 34.9331 10.8123C34.6591 10.6854 34.442 10.4949 34.2816 10.241C34.1279 9.98047 34.0511 9.6464 34.0511 9.23883V5.33021C34.0511 4.93601 34.1279 4.60862 34.2816 4.34805C34.442 4.08079 34.6591 3.88035 34.9331 3.74672C35.2137 3.60641 35.531 3.53625 35.8852 3.53625H37.3183C37.7326 3.53625 38.07 3.61309 38.3305 3.76676C38.5911 3.91375 38.7815 4.12088 38.9018 4.38813C39.0288 4.65539 39.0922 4.96942 39.0922 5.33021V9.23883C39.0922 9.84684 38.9285 10.2912 38.6011 10.5718C38.2804 10.8524 37.8528 10.9927 37.3183 10.9927H35.8852ZM36.0355 10.2811H37.1379C37.5455 10.2811 37.8395 10.1809 38.0199 9.98047C38.2003 9.77334 38.2905 9.49273 38.2905 9.13861V5.39034C38.2905 5.0095 38.1936 4.72554 37.9998 4.53847C37.8127 4.35139 37.5355 4.25785 37.168 4.25785H36.0154C35.6546 4.25785 35.3707 4.35807 35.1636 4.55851C34.9564 4.75227 34.8529 5.02955 34.8529 5.39034V9.13861C34.8529 9.51945 34.9564 9.80675 35.1636 10.0005C35.3774 10.1876 35.668 10.2811 36.0355 10.2811ZM42.4524 10.9927C42.0983 10.9927 41.7809 10.9326 41.5003 10.8123C41.2263 10.6854 41.0092 10.4949 40.8488 10.241C40.6952 9.98047 40.6183 9.6464 40.6183 9.23883V5.33021C40.6183 4.93601 40.6952 4.60862 40.8488 4.34805C41.0092 4.08079 41.2263 3.88035 41.5003 3.74672C41.7809 3.60641 42.0983 3.53625 42.4524 3.53625H43.8855C44.2998 3.53625 44.6372 3.61309 44.8978 3.76676C45.1583 3.91375 45.3488 4.12088 45.469 4.38813C45.596 4.65539 45.6594 4.96942 45.6594 5.33021V9.23883C45.6594 9.84684 45.4958 10.2912 45.1684 10.5718C44.8477 10.8524 44.42 10.9927 43.8855 10.9927H42.4524ZM42.6027 10.2811H43.7051C44.1127 10.2811 44.4067 10.1809 44.5871 9.98047C44.7675 9.77334 44.8577 9.49273 44.8577 9.13861V5.39034C44.8577 5.0095 44.7608 4.72554 44.567 4.53847C44.38 4.35139 44.1027 4.25785 43.7352 4.25785H42.5827C42.2219 4.25785 41.9379 4.35807 41.7308 4.55851C41.5237 4.75227 41.4201 5.02955 41.4201 5.39034V9.13861C41.4201 9.51945 41.5237 9.80675 41.7308 10.0005C41.9446 10.1876 42.2352 10.2811 42.6027 10.2811Z" fill="#252525"/>
<path opacity="0.402121" d="M17.4507 22.6866L17.3305 22.3258L17.6812 21.7144L17.8015 22.0552L17.4507 22.6866ZM17.3305 30.8646V29.9125L17.8015 29.9225V30.8646H17.3305ZM17.5209 30.0328C17.3739 30.0328 17.1968 30.0261 16.9897 30.0127C16.7893 30.0061 16.5821 29.9927 16.3683 29.9727C16.1545 29.9593 15.9507 29.9426 15.757 29.9225C15.5699 29.9025 15.4129 29.8791 15.2859 29.8524V29.241C15.453 29.2544 15.6568 29.2678 15.8973 29.2811C16.1378 29.2945 16.3951 29.3045 16.669 29.3112C16.9496 29.3179 17.2235 29.3212 17.4908 29.3212C17.7915 29.3212 18.0621 29.2912 18.3026 29.231C18.5431 29.1709 18.7335 29.0606 18.8739 28.9003C19.0208 28.7399 19.0943 28.5094 19.0943 28.2088V27.7077C19.0943 27.3669 19.0075 27.1097 18.8338 26.936C18.66 26.7556 18.3794 26.6654 17.9919 26.6654H17.2002C16.5922 26.6654 16.1144 26.5317 15.767 26.2645C15.4263 25.9972 15.2559 25.5362 15.2559 24.8814V24.4605C15.2559 23.7656 15.443 23.2712 15.8171 22.9772C16.1913 22.6832 16.7191 22.5363 17.4006 22.5363C17.6144 22.5363 17.8549 22.5496 18.1222 22.5763C18.3895 22.5964 18.6467 22.6231 18.8939 22.6565C19.1478 22.6832 19.3583 22.7133 19.5253 22.7467V23.3581C19.2313 23.3313 18.8972 23.308 18.5231 23.2879C18.1556 23.2679 17.8082 23.2578 17.4808 23.2578C17.1801 23.2578 16.9195 23.2946 16.6991 23.3681C16.4786 23.4349 16.3082 23.5585 16.1879 23.7389C16.0743 23.9126 16.0176 24.1632 16.0176 24.4906V24.8313C16.0176 25.2389 16.1245 25.5195 16.3383 25.6732C16.5521 25.8268 16.8494 25.9037 17.2302 25.9037H18.0821C18.4897 25.9037 18.8237 25.9772 19.0843 26.1242C19.3449 26.2712 19.5387 26.4749 19.6656 26.7355C19.7925 26.9894 19.856 27.2834 19.856 27.6175V28.1887C19.856 28.6831 19.7491 29.064 19.5353 29.3312C19.3282 29.5985 19.0476 29.7822 18.6935 29.8825C18.346 29.9827 17.9552 30.0328 17.5209 30.0328ZM24.6804 29.9626V28.0885H21.2027L21.0223 27.6576L23.7985 22.5964H24.6203L21.9444 27.407H24.6804V25.4427L24.8508 24.7612H25.4722V27.407H26.4844V27.9582L25.4722 28.0885V29.9626H24.6804ZM29.3179 29.9927C28.9638 29.9927 28.6464 29.9326 28.3658 29.8123C28.0919 29.6854 27.8747 29.4949 27.7144 29.241C27.5607 28.9805 27.4839 28.6464 27.4839 28.2388V24.3302C27.4839 23.936 27.5607 23.6086 27.7144 23.348C27.8747 23.0808 28.0919 22.8803 28.3658 22.7467C28.6464 22.6064 28.9638 22.5363 29.3179 22.5363H30.7511C31.1653 22.5363 31.5027 22.6131 31.7633 22.7668C32.0239 22.9138 32.2143 23.1209 32.3346 23.3881C32.4615 23.6554 32.525 23.9694 32.525 24.3302V28.2388C32.525 28.8468 32.3613 29.2912 32.0339 29.5718C31.7132 29.8524 31.2856 29.9927 30.7511 29.9927H29.3179ZM29.4682 29.2811H30.5707C30.9782 29.2811 31.2722 29.1809 31.4526 28.9805C31.633 28.7733 31.7232 28.4927 31.7232 28.1386V24.3903C31.7232 24.0095 31.6263 23.7255 31.4326 23.5385C31.2455 23.3514 30.9682 23.2578 30.6007 23.2578H29.4482C29.0874 23.2578 28.8034 23.3581 28.5963 23.5585C28.3892 23.7523 28.2856 24.0295 28.2856 24.3903V28.1386C28.2856 28.5195 28.3892 28.8068 28.5963 29.0005C28.8101 29.1876 29.1008 29.2811 29.4682 29.2811ZM35.8851 29.9927C35.531 29.9927 35.2136 29.9326 34.933 29.8123C34.6591 29.6854 34.4419 29.4949 34.2816 29.241C34.1279 28.9805 34.0511 28.6464 34.0511 28.2388V24.3302C34.0511 23.936 34.1279 23.6086 34.2816 23.348C34.4419 23.0808 34.6591 22.8803 34.933 22.7467C35.2136 22.6064 35.531 22.5363 35.8851 22.5363H37.3183C37.7325 22.5363 38.0699 22.6131 38.3305 22.7668C38.5911 22.9138 38.7815 23.1209 38.9018 23.3881C39.0287 23.6554 39.0922 23.9694 39.0922 24.3302V28.2388C39.0922 28.8468 38.9285 29.2912 38.6011 29.5718C38.2804 29.8524 37.8528 29.9927 37.3183 29.9927H35.8851ZM36.0355 29.2811H37.1379C37.5455 29.2811 37.8394 29.1809 38.0198 28.9805C38.2002 28.7733 38.2904 28.4927 38.2904 28.1386V24.3903C38.2904 24.0095 38.1935 23.7255 37.9998 23.5385C37.8127 23.3514 37.5354 23.2578 37.168 23.2578H36.0154C35.6546 23.2578 35.3707 23.3581 35.1635 23.5585C34.9564 23.7523 34.8528 24.0295 34.8528 24.3903V28.1386C34.8528 28.5195 34.9564 28.8068 35.1635 29.0005C35.3773 29.1876 35.668 29.2811 36.0355 29.2811ZM42.4523 29.9927C42.0982 29.9927 41.7809 29.9326 41.5002 29.8123C41.2263 29.6854 41.0092 29.4949 40.8488 29.241C40.6951 28.9805 40.6183 28.6464 40.6183 28.2388V24.3302C40.6183 23.936 40.6951 23.6086 40.8488 23.348C41.0092 23.0808 41.2263 22.8803 41.5002 22.7467C41.7809 22.6064 42.0982 22.5363 42.4523 22.5363H43.8855C44.2998 22.5363 44.6372 22.6131 44.8977 22.7668C45.1583 22.9138 45.3487 23.1209 45.469 23.3881C45.5959 23.6554 45.6594 23.9694 45.6594 24.3302V28.2388C45.6594 28.8468 45.4957 29.2912 45.1683 29.5718C44.8476 29.8524 44.42 29.9927 43.8855 29.9927H42.4523ZM42.6027 29.2811H43.7051C44.1127 29.2811 44.4067 29.1809 44.5871 28.9805C44.7674 28.7733 44.8576 28.4927 44.8576 28.1386V24.3903C44.8576 24.0095 44.7608 23.7255 44.567 23.5385C44.3799 23.3514 44.1026 23.2578 43.7352 23.2578H42.5826C42.2218 23.2578 41.9379 23.3581 41.7308 23.5585C41.5236 23.7523 41.4201 24.0295 41.4201 24.3903V28.1386C41.4201 28.5195 41.5236 28.8068 41.7308 29.0005C41.9446 29.1876 42.2352 29.2811 42.6027 29.2811Z" fill="#252525"/>
<path opacity="0.402121" d="M17.5486 41.6866L17.4283 41.3258L17.7791 40.7144L17.8994 41.0552L17.5486 41.6866ZM17.4283 49.8646V48.9125L17.8994 48.9225V49.8646H17.4283ZM17.6187 49.0328C17.4718 49.0328 17.2947 49.0261 17.0876 49.0127C16.8871 49.0061 16.68 48.9927 16.4662 48.9727C16.2524 48.9593 16.0486 48.9426 15.8549 48.9225C15.6678 48.9025 15.5108 48.8791 15.3838 48.8524V48.241C15.5508 48.2544 15.7546 48.2678 15.9952 48.2811C16.2357 48.2945 16.4929 48.3045 16.7669 48.3112C17.0475 48.3179 17.3214 48.3212 17.5887 48.3212C17.8893 48.3212 18.1599 48.2912 18.4005 48.231C18.641 48.1709 18.8314 48.0606 18.9717 47.9003C19.1187 47.7399 19.1922 47.5094 19.1922 47.2088V46.7077C19.1922 46.3669 19.1054 46.1097 18.9316 45.936C18.7579 45.7556 18.4773 45.6654 18.0898 45.6654H17.298C16.69 45.6654 16.2123 45.5317 15.8649 45.2645C15.5241 44.9972 15.3537 44.5362 15.3537 43.8814V43.4605C15.3537 42.7656 15.5408 42.2712 15.915 41.9772C16.2891 41.6832 16.817 41.5363 17.4985 41.5363C17.7123 41.5363 17.9528 41.5496 18.2201 41.5763C18.4873 41.5964 18.7446 41.6231 18.9918 41.6565C19.2457 41.6832 19.4561 41.7133 19.6232 41.7467V42.3581C19.3292 42.3313 18.9951 42.308 18.621 42.2879C18.2535 42.2679 17.906 42.2578 17.5787 42.2578C17.278 42.2578 17.0174 42.2946 16.7969 42.3681C16.5764 42.4349 16.4061 42.5585 16.2858 42.7389C16.1722 42.9126 16.1154 43.1632 16.1154 43.4906V43.8313C16.1154 44.2389 16.2223 44.5195 16.4361 44.6732C16.6499 44.8268 16.9473 44.9037 17.3281 44.9037H18.18C18.5875 44.9037 18.9216 44.9772 19.1822 45.1242C19.4428 45.2712 19.6365 45.4749 19.7635 45.7355C19.8904 45.9894 19.9539 46.2834 19.9539 46.6175V47.1887C19.9539 47.6831 19.847 48.064 19.6332 48.3312C19.4261 48.5985 19.1454 48.7822 18.7913 48.8825C18.4439 48.9827 18.053 49.0328 17.6187 49.0328ZM23.9665 49.0328C23.4387 49.0328 22.9442 49.0194 22.4832 48.9927C22.0289 48.9727 21.6313 48.9426 21.2906 48.9025V48.2912H23.7059C23.9932 48.2912 24.2505 48.2611 24.4776 48.201C24.7048 48.1408 24.8818 48.0306 25.0088 47.8702C25.1424 47.7032 25.2092 47.4693 25.2092 47.1687V46.6776C25.2092 46.417 25.1424 46.2099 25.0088 46.0562C24.8818 45.9026 24.7215 45.7923 24.5277 45.7255C24.334 45.6587 24.1335 45.6219 23.9264 45.6153L22.0322 45.5451V44.9638L23.8963 44.8836C24.2571 44.8703 24.5478 44.7934 24.7683 44.6531C24.9954 44.5061 25.109 44.2623 25.109 43.9215V43.4304C25.109 43.063 24.9854 42.7823 24.7382 42.5886C24.4977 42.3881 24.1335 42.2879 23.6458 42.2879H21.5411V41.6766C21.8485 41.6365 22.1993 41.6031 22.5935 41.5763C22.9943 41.5496 23.442 41.5363 23.9364 41.5363C24.3774 41.5429 24.7415 41.6198 25.0288 41.7668C25.3228 41.9071 25.54 42.1075 25.6803 42.3681C25.8206 42.622 25.8907 42.9226 25.8907 43.2701V43.9015C25.8907 44.1286 25.854 44.3257 25.7805 44.4928C25.7137 44.6531 25.6235 44.7868 25.5099 44.8937C25.403 45.0006 25.2861 45.0841 25.1591 45.1442C25.0389 45.1977 24.9286 45.2344 24.8284 45.2545C24.942 45.2812 25.0656 45.3313 25.1992 45.4048C25.3328 45.4716 25.4598 45.5651 25.5801 45.6854C25.707 45.8057 25.8106 45.956 25.8907 46.1364C25.9709 46.3168 26.011 46.5306 26.011 46.7778V47.2889C26.011 47.8569 25.8306 48.2912 25.4698 48.5918C25.1157 48.8858 24.6146 49.0328 23.9665 49.0328ZM29.3179 48.9927C28.9638 48.9927 28.6464 48.9326 28.3658 48.8123C28.0919 48.6854 27.8747 48.4949 27.7144 48.241C27.5607 47.9805 27.4839 47.6464 27.4839 47.2388V43.3302C27.4839 42.936 27.5607 42.6086 27.7144 42.348C27.8747 42.0808 28.0919 41.8803 28.3658 41.7467C28.6464 41.6064 28.9638 41.5363 29.3179 41.5363H30.7511C31.1653 41.5363 31.5027 41.6131 31.7633 41.7668C32.0239 41.9138 32.2143 42.1209 32.3346 42.3881C32.4615 42.6554 32.525 42.9694 32.525 43.3302V47.2388C32.525 47.8468 32.3613 48.2912 32.0339 48.5718C31.7132 48.8524 31.2856 48.9927 30.7511 48.9927H29.3179ZM29.4682 48.2811H30.5707C30.9782 48.2811 31.2722 48.1809 31.4526 47.9805C31.633 47.7733 31.7232 47.4927 31.7232 47.1386V43.3903C31.7232 43.0095 31.6263 42.7255 31.4326 42.5385C31.2455 42.3514 30.9682 42.2578 30.6007 42.2578H29.4482C29.0874 42.2578 28.8034 42.3581 28.5963 42.5585C28.3892 42.7523 28.2856 43.0295 28.2856 43.3903V47.1386C28.2856 47.5195 28.3892 47.8068 28.5963 48.0005C28.8101 48.1876 29.1008 48.2811 29.4682 48.2811ZM35.8851 48.9927C35.531 48.9927 35.2136 48.9326 34.933 48.8123C34.6591 48.6854 34.4419 48.4949 34.2816 48.241C34.1279 47.9805 34.0511 47.6464 34.0511 47.2388V43.3302C34.0511 42.936 34.1279 42.6086 34.2816 42.348C34.4419 42.0808 34.6591 41.8803 34.933 41.7467C35.2136 41.6064 35.531 41.5363 35.8851 41.5363H37.3183C37.7325 41.5363 38.0699 41.6131 38.3305 41.7668C38.5911 41.9138 38.7815 42.1209 38.9018 42.3881C39.0287 42.6554 39.0922 42.9694 39.0922 43.3302V47.2388C39.0922 47.8468 38.9285 48.2912 38.6011 48.5718C38.2804 48.8524 37.8528 48.9927 37.3183 48.9927H35.8851ZM36.0355 48.2811H37.1379C37.5455 48.2811 37.8394 48.1809 38.0198 47.9805C38.2002 47.7733 38.2904 47.4927 38.2904 47.1386V43.3903C38.2904 43.0095 38.1935 42.7255 37.9998 42.5385C37.8127 42.3514 37.5354 42.2578 37.168 42.2578H36.0154C35.6546 42.2578 35.3707 42.3581 35.1635 42.5585C34.9564 42.7523 34.8528 43.0295 34.8528 43.3903V47.1386C34.8528 47.5195 34.9564 47.8068 35.1635 48.0005C35.3773 48.1876 35.668 48.2811 36.0355 48.2811ZM42.4523 48.9927C42.0982 48.9927 41.7809 48.9326 41.5002 48.8123C41.2263 48.6854 41.0092 48.4949 40.8488 48.241C40.6951 47.9805 40.6183 47.6464 40.6183 47.2388V43.3302C40.6183 42.936 40.6951 42.6086 40.8488 42.348C41.0092 42.0808 41.2263 41.8803 41.5002 41.7467C41.7809 41.6064 42.0982 41.5363 42.4523 41.5363H43.8855C44.2998 41.5363 44.6372 41.6131 44.8977 41.7668C45.1583 41.9138 45.3487 42.1209 45.469 42.3881C45.5959 42.6554 45.6594 42.9694 45.6594 43.3302V47.2388C45.6594 47.8468 45.4957 48.2912 45.1683 48.5718C44.8476 48.8524 44.42 48.9927 43.8855 48.9927H42.4523ZM42.6027 48.2811H43.7051C44.1127 48.2811 44.4067 48.1809 44.5871 47.9805C44.7674 47.7733 44.8576 47.4927 44.8576 47.1386V43.3903C44.8576 43.0095 44.7608 42.7255 44.567 42.5385C44.3799 42.3514 44.1026 42.2578 43.7352 42.2578H42.5826C42.2218 42.2578 41.9379 42.3581 41.7308 42.5585C41.5236 42.7523 41.4201 43.0295 41.4201 43.3903V47.1386C41.4201 47.5195 41.5236 47.8068 41.7308 48.0005C41.9446 48.1876 42.2352 48.2811 42.6027 48.2811Z" fill="#252525"/>
<path opacity="0.402121" d="M17.4703 60.6866L17.3501 60.3258L17.7008 59.7144L17.8211 60.0552L17.4703 60.6866ZM17.3501 68.8646V67.9125L17.8211 67.9225V68.8646H17.3501ZM17.5405 68.0328C17.3935 68.0328 17.2164 68.0261 17.0093 68.0127C16.8089 68.0061 16.6017 67.9927 16.3879 67.9727C16.1741 67.9593 15.9703 67.9426 15.7766 67.9225C15.5895 67.9025 15.4325 67.8791 15.3055 67.8524V67.241C15.4726 67.2544 15.6764 67.2678 15.9169 67.2811C16.1574 67.2945 16.4147 67.3045 16.6886 67.3112C16.9692 67.3179 17.2432 67.3212 17.5104 67.3212C17.8111 67.3212 18.0817 67.2912 18.3222 67.231C18.5627 67.1709 18.7531 67.0606 18.8935 66.9003C19.0404 66.7399 19.1139 66.5094 19.1139 66.2088V65.7077C19.1139 65.3669 19.0271 65.1097 18.8534 64.936C18.6797 64.7556 18.399 64.6654 18.0115 64.6654H17.2198C16.6118 64.6654 16.134 64.5317 15.7866 64.2645C15.4459 63.9972 15.2755 63.5362 15.2755 62.8814V62.4605C15.2755 61.7656 15.4626 61.2712 15.8367 60.9772C16.2109 60.6832 16.7387 60.5363 17.4202 60.5363C17.634 60.5363 17.8745 60.5496 18.1418 60.5763C18.4091 60.5964 18.6663 60.6231 18.9135 60.6565C19.1674 60.6832 19.3779 60.7133 19.5449 60.7467V61.3581C19.2509 61.3313 18.9168 61.308 18.5427 61.2879C18.1752 61.2679 17.8278 61.2578 17.5004 61.2578C17.1997 61.2578 16.9391 61.2946 16.7187 61.3681C16.4982 61.4349 16.3278 61.5585 16.2075 61.7389C16.094 61.9126 16.0372 62.1632 16.0372 62.4906V62.8313C16.0372 63.2389 16.1441 63.5195 16.3579 63.6732C16.5717 63.8268 16.869 63.9037 17.2498 63.9037H18.1017C18.5093 63.9037 18.8433 63.9772 19.1039 64.1242C19.3645 64.2712 19.5583 64.4749 19.6852 64.7355C19.8122 64.9894 19.8756 65.2834 19.8756 65.6175V66.1887C19.8756 66.6831 19.7687 67.064 19.5549 67.3312C19.3478 67.5985 19.0672 67.7822 18.7131 67.8825C18.3656 67.9827 17.9748 68.0328 17.5405 68.0328ZM21.3226 67.9727V67.3212L24.0486 64.7055C24.3292 64.4449 24.5497 64.201 24.71 63.9738C24.8771 63.7467 24.9973 63.5195 25.0708 63.2923C25.1443 63.0585 25.1811 62.8046 25.1811 62.5307C25.1811 62.2901 25.1343 62.0763 25.0408 61.8892C24.9539 61.7022 24.7969 61.5552 24.5697 61.4483C24.3426 61.3414 24.0152 61.2879 23.5876 61.2879H21.5831V60.6766C21.8905 60.6432 22.2279 60.6131 22.5954 60.5864C22.9695 60.553 23.3571 60.5363 23.7579 60.5363C24.3192 60.5363 24.7601 60.6164 25.0809 60.7768C25.4082 60.9371 25.6388 61.161 25.7724 61.4483C25.906 61.7289 25.9728 62.0596 25.9728 62.4405C25.9728 62.7812 25.9261 63.0952 25.8325 63.3825C25.7457 63.6698 25.6053 63.9505 25.4116 64.2244C25.2178 64.4983 24.9673 64.7823 24.6599 65.0763L22.405 67.241H26.2434V67.9727H21.3226ZM29.3179 67.9927C28.9638 67.9927 28.6465 67.9326 28.3658 67.8123C28.0919 67.6854 27.8748 67.4949 27.7144 67.241C27.5607 66.9805 27.4839 66.6464 27.4839 66.2388V62.3302C27.4839 61.936 27.5607 61.6086 27.7144 61.348C27.8748 61.0808 28.0919 60.8803 28.3658 60.7467C28.6465 60.6064 28.9638 60.5363 29.3179 60.5363H30.7511C31.1653 60.5363 31.5028 60.6131 31.7633 60.7668C32.0239 60.9138 32.2143 61.1209 32.3346 61.3881C32.4615 61.6554 32.525 61.9694 32.525 62.3302V66.2388C32.525 66.8468 32.3613 67.2912 32.0339 67.5718C31.7132 67.8524 31.2856 67.9927 30.7511 67.9927H29.3179ZM29.4683 67.2811H30.5707C30.9783 67.2811 31.2722 67.1809 31.4526 66.9805C31.633 66.7733 31.7232 66.4927 31.7232 66.1386V62.3903C31.7232 62.0095 31.6264 61.7255 31.4326 61.5385C31.2455 61.3514 30.9682 61.2578 30.6008 61.2578H29.4482C29.0874 61.2578 28.8035 61.3581 28.5963 61.5585C28.3892 61.7523 28.2857 62.0295 28.2857 62.3903V66.1386C28.2857 66.5195 28.3892 66.8068 28.5963 67.0005C28.8101 67.1876 29.1008 67.2811 29.4683 67.2811ZM35.8852 67.9927C35.531 67.9927 35.2137 67.9326 34.9331 67.8123C34.6591 67.6854 34.442 67.4949 34.2816 67.241C34.1279 66.9805 34.0511 66.6464 34.0511 66.2388V62.3302C34.0511 61.936 34.1279 61.6086 34.2816 61.348C34.442 61.0808 34.6591 60.8803 34.9331 60.7467C35.2137 60.6064 35.531 60.5363 35.8852 60.5363H37.3183C37.7326 60.5363 38.07 60.6131 38.3305 60.7668C38.5911 60.9138 38.7815 61.1209 38.9018 61.3881C39.0288 61.6554 39.0922 61.9694 39.0922 62.3302V66.2388C39.0922 66.8468 38.9285 67.2912 38.6011 67.5718C38.2804 67.8524 37.8528 67.9927 37.3183 67.9927H35.8852ZM36.0355 67.2811H37.1379C37.5455 67.2811 37.8395 67.1809 38.0199 66.9805C38.2003 66.7733 38.2905 66.4927 38.2905 66.1386V62.3903C38.2905 62.0095 38.1936 61.7255 37.9998 61.5385C37.8127 61.3514 37.5355 61.2578 37.168 61.2578H36.0154C35.6546 61.2578 35.3707 61.3581 35.1636 61.5585C34.9564 61.7523 34.8529 62.0295 34.8529 62.3903V66.1386C34.8529 66.5195 34.9564 66.8068 35.1636 67.0005C35.3774 67.1876 35.668 67.2811 36.0355 67.2811ZM42.4524 67.9927C42.0983 67.9927 41.7809 67.9326 41.5003 67.8123C41.2263 67.6854 41.0092 67.4949 40.8488 67.241C40.6952 66.9805 40.6183 66.6464 40.6183 66.2388V62.3302C40.6183 61.936 40.6952 61.6086 40.8488 61.348C41.0092 61.0808 41.2263 60.8803 41.5003 60.7467C41.7809 60.6064 42.0983 60.5363 42.4524 60.5363H43.8855C44.2998 60.5363 44.6372 60.6131 44.8978 60.7668C45.1583 60.9138 45.3488 61.1209 45.469 61.3881C45.596 61.6554 45.6594 61.9694 45.6594 62.3302V66.2388C45.6594 66.8468 45.4958 67.2912 45.1684 67.5718C44.8477 67.8524 44.42 67.9927 43.8855 67.9927H42.4524ZM42.6027 67.2811H43.7051C44.1127 67.2811 44.4067 67.1809 44.5871 66.9805C44.7675 66.7733 44.8577 66.4927 44.8577 66.1386V62.3903C44.8577 62.0095 44.7608 61.7255 44.567 61.5385C44.38 61.3514 44.1027 61.2578 43.7352 61.2578H42.5827C42.2219 61.2578 41.9379 61.3581 41.7308 61.5585C41.5237 61.7523 41.4201 62.0295 41.4201 62.3903V66.1386C41.4201 66.5195 41.5237 66.8068 41.7308 67.0005C41.9446 67.1876 42.2352 67.2811 42.6027 67.2811Z" fill="#252525"/>
<path opacity="0.402121" d="M19.7801 79.6866L19.6598 79.3258L20.0106 78.7144L20.1309 79.0552L19.7801 79.6866ZM19.6598 87.8646V86.9125L20.1309 86.9225V87.8646H19.6598ZM19.8503 87.0328C19.7033 87.0328 19.5262 87.0261 19.3191 87.0127C19.1186 87.0061 18.9115 86.9927 18.6977 86.9727C18.4839 86.9593 18.2801 86.9426 18.0864 86.9225C17.8993 86.9025 17.7423 86.8791 17.6153 86.8524V86.241C17.7824 86.2544 17.9861 86.2678 18.2267 86.2811C18.4672 86.2945 18.7244 86.3045 18.9984 86.3112C19.279 86.3179 19.5529 86.3212 19.8202 86.3212C20.1209 86.3212 20.3914 86.2912 20.632 86.231C20.8725 86.1709 21.0629 86.0606 21.2032 85.9003C21.3502 85.7399 21.4237 85.5094 21.4237 85.2088V84.7077C21.4237 84.3669 21.3369 84.1097 21.1632 83.936C20.9894 83.7556 20.7088 83.6654 20.3213 83.6654H19.5295C18.9215 83.6654 18.4438 83.5317 18.0964 83.2645C17.7556 82.9972 17.5853 82.5362 17.5853 81.8814V81.4605C17.5853 80.7656 17.7723 80.2712 18.1465 79.9772C18.5207 79.6832 19.0485 79.5363 19.73 79.5363C19.9438 79.5363 20.1843 79.5496 20.4516 79.5763C20.7188 79.5964 20.9761 79.6231 21.2233 79.6565C21.4772 79.6832 21.6876 79.7133 21.8547 79.7467V80.3581C21.5607 80.3313 21.2266 80.308 20.8525 80.2879C20.485 80.2679 20.1376 80.2578 19.8102 80.2578C19.5095 80.2578 19.2489 80.2946 19.0284 80.3681C18.808 80.4349 18.6376 80.5585 18.5173 80.7389C18.4037 80.9126 18.3469 81.1632 18.3469 81.4906V81.8313C18.3469 82.2389 18.4538 82.5195 18.6676 82.6732C18.8815 82.8268 19.1788 82.9037 19.5596 82.9037H20.4115C20.8191 82.9037 21.1531 82.9772 21.4137 83.1242C21.6743 83.2712 21.868 83.4749 21.995 83.7355C22.1219 83.9894 22.1854 84.2834 22.1854 84.6175V85.1887C22.1854 85.6831 22.0785 86.064 21.8647 86.3312C21.6576 86.5985 21.377 86.7822 21.0228 86.8825C20.6754 86.9827 20.2845 87.0328 19.8503 87.0328ZM25.0455 86.9727V80.308L23.5321 80.7189V80.2077L25.1156 79.5262H25.8472V86.9727H25.0455ZM29.3179 86.9927C28.9638 86.9927 28.6465 86.9326 28.3658 86.8123C28.0919 86.6854 27.8748 86.4949 27.7144 86.241C27.5607 85.9805 27.4839 85.6464 27.4839 85.2388V81.3302C27.4839 80.936 27.5607 80.6086 27.7144 80.348C27.8748 80.0808 28.0919 79.8803 28.3658 79.7467C28.6465 79.6064 28.9638 79.5363 29.3179 79.5363H30.7511C31.1653 79.5363 31.5028 79.6131 31.7633 79.7668C32.0239 79.9138 32.2143 80.1209 32.3346 80.3881C32.4615 80.6554 32.525 80.9694 32.525 81.3302V85.2388C32.525 85.8468 32.3613 86.2912 32.0339 86.5718C31.7132 86.8524 31.2856 86.9927 30.7511 86.9927H29.3179ZM29.4683 86.2811H30.5707C30.9783 86.2811 31.2722 86.1809 31.4526 85.9805C31.633 85.7733 31.7232 85.4927 31.7232 85.1386V81.3903C31.7232 81.0095 31.6264 80.7255 31.4326 80.5385C31.2455 80.3514 30.9682 80.2578 30.6008 80.2578H29.4482C29.0874 80.2578 28.8035 80.3581 28.5963 80.5585C28.3892 80.7523 28.2857 81.0295 28.2857 81.3903V85.1386C28.2857 85.5195 28.3892 85.8068 28.5963 86.0005C28.8101 86.1876 29.1008 86.2811 29.4683 86.2811ZM35.8852 86.9927C35.531 86.9927 35.2137 86.9326 34.9331 86.8123C34.6591 86.6854 34.442 86.4949 34.2816 86.241C34.1279 85.9805 34.0511 85.6464 34.0511 85.2388V81.3302C34.0511 80.936 34.1279 80.6086 34.2816 80.348C34.442 80.0808 34.6591 79.8803 34.9331 79.7467C35.2137 79.6064 35.531 79.5363 35.8852 79.5363H37.3183C37.7326 79.5363 38.07 79.6131 38.3305 79.7668C38.5911 79.9138 38.7815 80.1209 38.9018 80.3881C39.0288 80.6554 39.0922 80.9694 39.0922 81.3302V85.2388C39.0922 85.8468 38.9285 86.2912 38.6011 86.5718C38.2804 86.8524 37.8528 86.9927 37.3183 86.9927H35.8852ZM36.0355 86.2811H37.1379C37.5455 86.2811 37.8395 86.1809 38.0199 85.9805C38.2003 85.7733 38.2905 85.4927 38.2905 85.1386V81.3903C38.2905 81.0095 38.1936 80.7255 37.9998 80.5385C37.8127 80.3514 37.5355 80.2578 37.168 80.2578H36.0154C35.6546 80.2578 35.3707 80.3581 35.1636 80.5585C34.9564 80.7523 34.8529 81.0295 34.8529 81.3903V85.1386C34.8529 85.5195 34.9564 85.8068 35.1636 86.0005C35.3774 86.1876 35.668 86.2811 36.0355 86.2811ZM42.4524 86.9927C42.0983 86.9927 41.7809 86.9326 41.5003 86.8123C41.2263 86.6854 41.0092 86.4949 40.8488 86.241C40.6952 85.9805 40.6183 85.6464 40.6183 85.2388V81.3302C40.6183 80.936 40.6952 80.6086 40.8488 80.348C41.0092 80.0808 41.2263 79.8803 41.5003 79.7467C41.7809 79.6064 42.0983 79.5363 42.4524 79.5363H43.8855C44.2998 79.5363 44.6372 79.6131 44.8978 79.7668C45.1583 79.9138 45.3488 80.1209 45.469 80.3881C45.596 80.6554 45.6594 80.9694 45.6594 81.3302V85.2388C45.6594 85.8468 45.4958 86.2912 45.1684 86.5718C44.8477 86.8524 44.42 86.9927 43.8855 86.9927H42.4524ZM42.6027 86.2811H43.7051C44.1127 86.2811 44.4067 86.1809 44.5871 85.9805C44.7675 85.7733 44.8577 85.4927 44.8577 85.1386V81.3903C44.8577 81.0095 44.7608 80.7255 44.567 80.5385C44.38 80.3514 44.1027 80.2578 43.7352 80.2578H42.5827C42.2219 80.2578 41.9379 80.3581 41.7308 80.5585C41.5237 80.7523 41.4201 81.0295 41.4201 81.3903V85.1386C41.4201 85.5195 41.5237 85.8068 41.7308 86.0005C41.9446 86.1876 42.2352 86.2811 42.6027 86.2811Z" fill="#252525"/>
<path opacity="0.402121" d="M42.4524 105.993C42.0983 105.993 41.7809 105.933 41.5003 105.812C41.2263 105.685 41.0092 105.495 40.8488 105.241C40.6952 104.98 40.6183 104.646 40.6183 104.239V100.33C40.6183 99.936 40.6952 99.6086 40.8488 99.348C41.0092 99.0808 41.2263 98.8803 41.5003 98.7467C41.7809 98.6064 42.0983 98.5363 42.4524 98.5363H43.8855C44.2998 98.5363 44.6372 98.6131 44.8978 98.7668C45.1583 98.9138 45.3488 99.1209 45.469 99.3881C45.596 99.6554 45.6594 99.9694 45.6594 100.33V104.239C45.6594 104.847 45.4957 105.291 45.1684 105.572C44.8476 105.852 44.42 105.993 43.8855 105.993H42.4524ZM42.6027 105.281H43.7051C44.1127 105.281 44.4067 105.181 44.5871 104.98C44.7675 104.773 44.8577 104.493 44.8577 104.139V100.39C44.8577 100.01 44.7608 99.7255 44.567 99.5385C44.3799 99.3514 44.1027 99.2578 43.7352 99.2578H42.5827C42.2219 99.2578 41.9379 99.3581 41.7308 99.5585C41.5236 99.7523 41.4201 100.03 41.4201 100.39V104.139C41.4201 104.519 41.5236 104.807 41.7308 105.001C41.9446 105.188 42.2352 105.281 42.6027 105.281Z" fill="#252525"/>
<path d="M122.64 133.011C124.803 133.011 126.557 131.171 126.557 128.9C126.557 126.629 124.803 124.788 122.64 124.788C120.477 124.788 118.723 126.629 118.723 128.9C118.723 131.171 120.477 133.011 122.64 133.011Z" fill="#19497A"/>
<path opacity="0.8" d="M134.494 132.704V129.945L131.848 124.382H132.787L134.958 129.041L137.129 124.382H138.033L135.399 129.945V132.704H134.494ZM140.904 132.772C140.466 132.772 140.082 132.727 139.75 132.636C139.426 132.546 139.155 132.388 138.936 132.161C138.718 131.935 138.556 131.622 138.45 131.223C138.344 130.816 138.292 130.299 138.292 129.674C138.292 129.041 138.344 128.524 138.45 128.125C138.556 127.718 138.718 127.405 138.936 127.186C139.155 126.96 139.426 126.806 139.75 126.723C140.082 126.632 140.466 126.587 140.904 126.587C141.341 126.587 141.721 126.632 142.046 126.723C142.377 126.813 142.652 126.971 142.871 127.198C143.09 127.416 143.252 127.729 143.357 128.136C143.47 128.536 143.527 129.048 143.527 129.674C143.527 130.307 143.47 130.827 143.357 131.234C143.252 131.634 143.09 131.947 142.871 132.173C142.66 132.391 142.389 132.546 142.057 132.636C141.725 132.727 141.341 132.772 140.904 132.772ZM140.904 132.037C141.183 132.037 141.427 132.011 141.639 131.958C141.857 131.905 142.038 131.8 142.181 131.641C142.325 131.483 142.434 131.245 142.509 130.929C142.585 130.612 142.622 130.194 142.622 129.674C142.622 129.146 142.585 128.728 142.509 128.419C142.434 128.11 142.325 127.876 142.181 127.718C142.038 127.559 141.857 127.454 141.639 127.401C141.427 127.348 141.183 127.322 140.904 127.322C140.617 127.322 140.368 127.348 140.157 127.401C139.946 127.454 139.769 127.559 139.626 127.718C139.483 127.876 139.373 128.11 139.298 128.419C139.223 128.728 139.185 129.146 139.185 129.674C139.185 130.194 139.223 130.612 139.298 130.929C139.373 131.245 139.483 131.483 139.626 131.641C139.769 131.8 139.946 131.905 140.157 131.958C140.368 132.011 140.617 132.037 140.904 132.037ZM146.83 132.772C146.25 132.772 145.801 132.621 145.485 132.32C145.176 132.018 145.021 131.551 145.021 130.918V126.666H145.914V130.691C145.914 131.197 146.027 131.539 146.253 131.72C146.487 131.894 146.811 131.98 147.226 131.98C147.58 131.98 147.904 131.931 148.198 131.833C148.492 131.728 148.794 131.585 149.103 131.404V126.666H149.996V132.704H149.295L149.103 132.037C148.794 132.233 148.443 132.406 148.051 132.557C147.667 132.7 147.26 132.772 146.83 132.772ZM151.68 132.704V126.666H152.358L152.573 127.718C152.844 127.394 153.146 127.126 153.477 126.915C153.817 126.704 154.205 126.598 154.642 126.598C154.748 126.598 154.846 126.602 154.936 126.61C155.034 126.617 155.124 126.632 155.207 126.655V127.571C155.109 127.556 155.004 127.544 154.891 127.537C154.778 127.522 154.665 127.514 154.552 127.514C154.273 127.514 154.024 127.548 153.805 127.616C153.587 127.684 153.379 127.786 153.183 127.921C152.987 128.057 152.784 128.223 152.573 128.419V132.704H151.68ZM162.123 132.772C161.626 132.772 161.192 132.715 160.823 132.602C160.454 132.489 160.148 132.286 159.907 131.992C159.666 131.69 159.485 131.261 159.364 130.703C159.251 130.145 159.195 129.418 159.195 128.521C159.195 127.676 159.255 126.983 159.376 126.44C159.496 125.89 159.677 125.46 159.918 125.151C160.167 124.842 160.48 124.627 160.857 124.507C161.234 124.378 161.678 124.314 162.191 124.314C162.425 124.314 162.685 124.329 162.971 124.36C163.258 124.39 163.54 124.427 163.819 124.473C164.098 124.51 164.351 124.559 164.577 124.62V125.287C164.449 125.264 164.268 125.241 164.034 125.219C163.8 125.196 163.533 125.177 163.231 125.162C162.937 125.14 162.636 125.128 162.327 125.128C161.927 125.128 161.584 125.174 161.298 125.264C161.011 125.355 160.778 125.524 160.597 125.773C160.423 126.014 160.295 126.357 160.212 126.802C160.129 127.247 160.088 127.823 160.088 128.532C160.088 129.248 160.126 129.836 160.201 130.296C160.284 130.748 160.412 131.095 160.585 131.336C160.759 131.577 160.985 131.743 161.264 131.833C161.543 131.924 161.89 131.969 162.304 131.969C162.869 131.969 163.333 131.954 163.695 131.924C164.057 131.894 164.351 131.86 164.577 131.822V132.501C164.351 132.553 164.098 132.602 163.819 132.648C163.548 132.685 163.265 132.715 162.971 132.738C162.685 132.761 162.402 132.772 162.123 132.772ZM165.968 132.704V124.382H169.281C169.522 124.382 169.767 124.416 170.016 124.484C170.272 124.544 170.51 124.669 170.728 124.857C170.947 125.038 171.12 125.306 171.249 125.66C171.384 126.007 171.452 126.466 171.452 127.039C171.452 127.627 171.38 128.102 171.237 128.464C171.102 128.818 170.921 129.093 170.695 129.289C170.476 129.478 170.238 129.606 169.982 129.674C169.726 129.742 169.477 129.776 169.236 129.776C169.123 129.776 168.957 129.772 168.738 129.764C168.52 129.757 168.286 129.749 168.037 129.742C167.796 129.727 167.57 129.712 167.359 129.696C167.148 129.681 166.986 129.67 166.873 129.663V132.704H165.968ZM166.873 128.973H169.123C169.387 128.973 169.628 128.916 169.846 128.803C170.065 128.69 170.235 128.494 170.355 128.215C170.483 127.936 170.548 127.548 170.548 127.051C170.548 126.561 170.483 126.184 170.355 125.92C170.235 125.649 170.073 125.46 169.869 125.355C169.666 125.249 169.443 125.196 169.202 125.196H166.873V128.973ZM174.466 132.704C174.141 132.704 173.851 132.655 173.595 132.557C173.346 132.452 173.15 132.278 173.007 132.037C172.864 131.788 172.792 131.453 172.792 131.031V124.382H173.697V130.906C173.697 131.178 173.742 131.385 173.832 131.528C173.923 131.664 174.043 131.758 174.194 131.811C174.345 131.856 174.499 131.879 174.658 131.879H177.643V132.704H174.466Z" fill="#252525"/>
<path d="M47.0886 133.011C49.2517 133.011 51.0052 131.171 51.0052 128.9C51.0052 126.629 49.2517 124.788 47.0886 124.788C44.9254 124.788 43.1719 126.629 43.1719 128.9C43.1719 131.171 44.9254 133.011 47.0886 133.011Z" fill="#1990EA"/>
<path opacity="0.8" d="M58.9121 132.749C58.7312 132.749 58.539 132.734 58.3355 132.704C58.1319 132.666 57.9397 132.595 57.7588 132.489C57.5779 132.384 57.4309 132.225 57.3178 132.014C57.2048 131.796 57.1482 131.502 57.1482 131.132V126.056C57.1482 125.731 57.1935 125.464 57.2839 125.253C57.3819 125.034 57.51 124.865 57.6683 124.744C57.8266 124.616 58.0038 124.525 58.1998 124.473C58.3958 124.412 58.5918 124.382 58.7877 124.382C59.2551 124.39 59.6885 124.401 60.088 124.416C60.4876 124.424 60.8645 124.435 61.2187 124.45C61.5806 124.458 61.9311 124.469 62.2703 124.484V125.208H59.0139C58.7199 125.208 58.4862 125.287 58.3128 125.445C58.1395 125.603 58.0528 125.856 58.0528 126.203V128.17L61.7728 128.227V128.916L58.0528 128.973V130.929C58.0528 131.208 58.098 131.419 58.1885 131.562C58.2865 131.705 58.4146 131.8 58.5729 131.845C58.7312 131.89 58.8933 131.913 59.0591 131.913H62.2703V132.636C61.9235 132.659 61.558 132.678 61.1735 132.693C60.7966 132.708 60.4159 132.719 60.0315 132.727C59.6546 132.734 59.2815 132.742 58.9121 132.749ZM65.8536 132.772C65.7029 132.772 65.5182 132.768 65.2996 132.761C65.081 132.753 64.8511 132.742 64.6099 132.727C64.3762 132.712 64.1614 132.697 63.9654 132.681C63.7769 132.659 63.6299 132.636 63.5244 132.614V132.071H66.0006C66.2494 132.071 66.4642 132.052 66.6451 132.014C66.826 131.977 66.9655 131.894 67.0635 131.766C67.169 131.637 67.2218 131.445 67.2218 131.189V130.918C67.2218 130.654 67.1351 130.45 66.9617 130.307C66.7883 130.156 66.5094 130.081 66.125 130.081H65.277C64.9227 130.081 64.6061 130.036 64.3272 129.945C64.0558 129.855 63.8448 129.7 63.694 129.482C63.5432 129.263 63.4679 128.961 63.4679 128.577V128.26C63.4679 127.884 63.5395 127.574 63.6827 127.333C63.8335 127.092 64.0634 126.911 64.3724 126.791C64.689 126.67 65.0961 126.61 65.5936 126.61C65.8046 126.61 66.0459 126.617 66.3172 126.632C66.5961 126.647 66.8675 126.67 67.1313 126.7C67.3952 126.723 67.61 126.749 67.7758 126.779V127.322H65.4466C65.0621 127.322 64.7644 127.386 64.5533 127.514C64.3498 127.642 64.248 127.891 64.248 128.26V128.509C64.248 128.743 64.297 128.92 64.395 129.041C64.493 129.154 64.6287 129.229 64.8021 129.267C64.983 129.304 65.1903 129.323 65.424 129.323H66.2833C66.8336 129.323 67.2595 129.451 67.561 129.708C67.8625 129.964 68.0133 130.333 68.0133 130.816V131.234C68.0133 131.641 67.919 131.958 67.7306 132.184C67.5497 132.403 67.2972 132.557 66.973 132.648C66.6564 132.73 66.2833 132.772 65.8536 132.772ZM71.428 132.704C71.036 132.704 70.7119 132.64 70.4556 132.512C70.1993 132.384 70.0108 132.176 69.8902 131.89C69.7696 131.604 69.7131 131.223 69.7206 130.748L69.7545 127.401H68.7935V126.824L69.7659 126.666L69.9128 124.981H70.6026V126.666H72.3438V127.401H70.6026V130.748C70.6026 131.012 70.629 131.223 70.6817 131.381C70.742 131.539 70.8174 131.66 70.9079 131.743C71.0059 131.826 71.1076 131.886 71.2131 131.924C71.3187 131.954 71.4204 131.973 71.5184 131.98L72.2534 132.048V132.704H71.428ZM73.7141 125.592C73.5935 125.592 73.5332 125.532 73.5332 125.411V124.529C73.5332 124.409 73.5935 124.348 73.7141 124.348H74.3473C74.4076 124.348 74.4491 124.367 74.4717 124.405C74.5018 124.435 74.5169 124.476 74.5169 124.529V125.411C74.5169 125.532 74.4604 125.592 74.3473 125.592H73.7141ZM73.5784 132.704V126.666H74.4717V132.704H73.5784ZM76.1954 132.704V126.666H76.8964L77.0886 127.333C77.3902 127.122 77.7256 126.941 78.095 126.791C78.4719 126.64 78.8902 126.564 79.35 126.564C79.7269 126.564 80.0473 126.651 80.3111 126.824C80.5825 126.99 80.786 127.201 80.9217 127.458C81.1102 127.322 81.3363 127.186 81.6001 127.051C81.8715 126.915 82.1579 126.802 82.4595 126.711C82.7685 126.613 83.0663 126.564 83.3527 126.564C83.7899 126.564 84.148 126.659 84.4269 126.847C84.7058 127.028 84.9093 127.277 85.0374 127.593C85.1731 127.902 85.241 128.249 85.241 128.634V132.704H84.3477V128.701C84.3477 128.445 84.295 128.219 84.1894 128.023C84.0914 127.819 83.9482 127.661 83.7598 127.548C83.5713 127.435 83.3414 127.379 83.07 127.379C82.7308 127.379 82.3841 127.443 82.0298 127.571C81.6755 127.699 81.3476 127.853 81.0461 128.034C81.0838 128.147 81.1102 128.26 81.1252 128.374C81.1478 128.479 81.1592 128.592 81.1592 128.713V132.704H80.2659V128.701C80.2659 128.445 80.2131 128.219 80.1076 128.023C80.0096 127.819 79.8664 127.661 79.6779 127.548C79.497 127.435 79.2709 127.379 78.9995 127.379C78.7508 127.379 78.5171 127.405 78.2985 127.458C78.0874 127.503 77.8839 127.571 77.6879 127.661C77.4995 127.744 77.2997 127.846 77.0886 127.966V132.704H76.1954ZM88.0931 132.772C87.6483 132.772 87.2827 132.64 86.9963 132.376C86.7099 132.112 86.5666 131.739 86.5666 131.257V130.827C86.5666 130.352 86.7212 129.968 87.0302 129.674C87.3468 129.38 87.8217 129.233 88.4549 129.233H90.5015V128.487C90.5015 128.238 90.4562 128.027 90.3658 127.853C90.2829 127.672 90.1283 127.533 89.9022 127.435C89.6836 127.337 89.3632 127.288 88.9411 127.288H87.0641V126.757C87.328 126.711 87.6333 126.67 87.98 126.632C88.3343 126.595 88.7489 126.576 89.2238 126.576C89.7137 126.568 90.1208 126.628 90.4449 126.757C90.7691 126.885 91.0065 127.088 91.1573 127.367C91.3156 127.639 91.3947 127.997 91.3947 128.441V132.704H90.705L90.5354 132.014C90.5052 132.045 90.411 132.097 90.2527 132.173C90.1019 132.248 89.906 132.335 89.6647 132.433C89.4311 132.523 89.1748 132.602 88.8959 132.67C88.6245 132.738 88.3569 132.772 88.0931 132.772ZM88.4662 132.105C88.6019 132.112 88.7564 132.097 88.9298 132.06C89.1032 132.022 89.2803 131.98 89.4612 131.935C89.6421 131.882 89.808 131.83 89.9587 131.777C90.117 131.724 90.2452 131.679 90.3432 131.641C90.4412 131.604 90.4939 131.585 90.5015 131.585V129.685L88.6584 129.764C88.2288 129.779 87.9197 129.885 87.7312 130.081C87.5503 130.277 87.4599 130.529 87.4599 130.838V131.11C87.4599 131.351 87.5089 131.547 87.6069 131.698C87.7124 131.841 87.8405 131.943 87.9913 132.003C88.1496 132.063 88.3079 132.097 88.4662 132.105ZM95.0799 132.704C94.6879 132.704 94.3638 132.64 94.1075 132.512C93.8512 132.384 93.6628 132.176 93.5422 131.89C93.4215 131.604 93.365 131.223 93.3726 130.748L93.4065 127.401H92.4454V126.824L93.4178 126.666L93.5648 124.981H94.2545V126.666H95.9958V127.401H94.2545V130.748C94.2545 131.012 94.2809 131.223 94.3336 131.381C94.3939 131.539 94.4693 131.66 94.5598 131.743C94.6578 131.826 94.7595 131.886 94.8651 131.924C94.9706 131.954 95.0724 131.973 95.1704 131.98L95.9053 132.048V132.704H95.0799ZM99.537 132.772C98.9038 132.772 98.4025 132.678 98.0332 132.489C97.6713 132.301 97.4113 131.98 97.253 131.528C97.0947 131.076 97.0155 130.458 97.0155 129.674C97.0155 128.875 97.0947 128.253 97.253 127.808C97.4188 127.356 97.6864 127.039 98.0558 126.858C98.4251 126.677 98.9226 126.587 99.5483 126.587C100.083 126.587 100.517 126.647 100.849 126.768C101.188 126.889 101.437 127.096 101.595 127.39C101.761 127.676 101.844 128.076 101.844 128.588C101.844 128.943 101.772 129.229 101.629 129.448C101.493 129.659 101.293 129.813 101.03 129.911C100.773 130.002 100.468 130.047 100.114 130.047H97.9088C97.9163 130.537 97.9691 130.933 98.0671 131.234C98.1651 131.528 98.3422 131.743 98.5985 131.879C98.8623 132.007 99.2468 132.071 99.7518 132.071H101.697V132.614C101.35 132.659 101.011 132.697 100.679 132.727C100.347 132.757 99.9666 132.772 99.537 132.772ZM97.8975 129.459H100.046C100.385 129.459 100.634 129.399 100.792 129.278C100.958 129.15 101.041 128.924 101.041 128.6C101.041 128.253 100.988 127.985 100.883 127.797C100.785 127.601 100.626 127.465 100.408 127.39C100.197 127.307 99.9101 127.265 99.5483 127.265C99.1262 127.265 98.7945 127.33 98.5533 127.458C98.3121 127.578 98.1425 127.797 98.0445 128.113C97.9465 128.43 97.8975 128.879 97.8975 129.459ZM105.304 132.772C104.806 132.772 104.395 132.666 104.071 132.455C103.755 132.237 103.517 131.905 103.359 131.46C103.208 131.008 103.133 130.431 103.133 129.73C103.133 128.984 103.208 128.381 103.359 127.921C103.51 127.454 103.751 127.115 104.083 126.904C104.414 126.693 104.859 126.587 105.417 126.587C105.756 126.587 106.088 126.625 106.412 126.7C106.736 126.775 107.022 126.858 107.271 126.949V124.077H108.164V132.704H107.441L107.271 132.094C107.158 132.192 106.988 132.293 106.762 132.399C106.544 132.504 106.303 132.595 106.039 132.67C105.782 132.738 105.537 132.772 105.304 132.772ZM105.564 132.037C105.911 132.037 106.223 131.984 106.502 131.879C106.789 131.766 107.045 131.649 107.271 131.528V127.582C107 127.499 106.74 127.431 106.491 127.379C106.242 127.318 105.963 127.288 105.654 127.288C105.27 127.288 104.957 127.36 104.716 127.503C104.475 127.646 104.297 127.895 104.184 128.249C104.079 128.596 104.026 129.078 104.026 129.696C104.026 130.254 104.075 130.707 104.173 131.053C104.279 131.4 104.444 131.653 104.671 131.811C104.897 131.962 105.194 132.037 105.564 132.037ZM59.8732 147.772C59.3757 147.772 58.9423 147.715 58.5729 147.602C58.2035 147.489 57.8983 147.286 57.657 146.992C57.4158 146.69 57.2349 146.261 57.1143 145.703C57.0012 145.145 56.9447 144.418 56.9447 143.521C56.9447 142.676 57.005 141.983 57.1256 141.44C57.2462 140.89 57.4271 140.46 57.6683 140.151C57.9171 139.842 58.2299 139.627 58.6068 139.507C58.9837 139.378 59.4285 139.314 59.9411 139.314C60.1747 139.314 60.4348 139.329 60.7212 139.36C61.0077 139.39 61.2904 139.427 61.5693 139.473C61.8482 139.51 62.1007 139.559 62.3268 139.62V140.287C62.1987 140.264 62.0178 140.241 61.7841 140.219C61.5504 140.196 61.2828 140.177 60.9813 140.162C60.6873 140.14 60.3858 140.128 60.0767 140.128C59.6772 140.128 59.3342 140.174 59.0478 140.264C58.7614 140.355 58.5277 140.524 58.3468 140.773C58.1734 141.014 58.0452 141.357 57.9623 141.802C57.8794 142.247 57.838 142.823 57.838 143.532C57.838 144.248 57.8756 144.836 57.951 145.296C58.0339 145.748 58.1621 146.095 58.3355 146.336C58.5088 146.577 58.735 146.743 59.0139 146.833C59.2928 146.924 59.6395 146.969 60.0541 146.969C60.6195 146.969 61.0831 146.954 61.4449 146.924C61.8067 146.894 62.1007 146.86 62.3268 146.822V147.501C62.1007 147.553 61.8482 147.602 61.5693 147.648C61.2979 147.685 61.0152 147.715 60.7212 147.738C60.4348 147.761 60.1521 147.772 59.8732 147.772ZM63.7182 147.704V139.382H67.0312C67.2724 139.382 67.5174 139.416 67.7661 139.484C68.0224 139.544 68.2598 139.669 68.4784 139.857C68.697 140.038 68.8704 140.306 68.9986 140.66C69.1343 141.007 69.2021 141.466 69.2021 142.039C69.2021 142.627 69.1305 143.102 68.9873 143.464C68.8516 143.818 68.6707 144.093 68.4445 144.289C68.2259 144.478 67.9885 144.606 67.7322 144.674C67.4759 144.742 67.2271 144.776 66.9859 144.776C66.8729 144.776 66.707 144.772 66.4884 144.764C66.2698 144.757 66.0361 144.749 65.7874 144.742C65.5462 144.727 65.32 144.712 65.109 144.696C64.8979 144.681 64.7358 144.67 64.6228 144.663V147.704H63.7182ZM64.6228 143.973H66.8729C67.1367 143.973 67.3779 143.916 67.5965 143.803C67.8151 143.69 67.9847 143.494 68.1053 143.215C68.2335 142.936 68.2975 142.548 68.2975 142.051C68.2975 141.561 68.2335 141.184 68.1053 140.92C67.9847 140.649 67.8226 140.46 67.6191 140.355C67.4156 140.249 67.1932 140.196 66.952 140.196H64.6228V143.973ZM69.4376 147.704L72.287 139.382H73.4403L76.2896 147.704H75.3625L74.5257 145.33H71.1789L70.3648 147.704H69.4376ZM71.405 144.516H74.2996L72.8636 140.174L71.405 144.516Z" fill="#252525"/>
</svg>
