<svg width="72" height="73" viewBox="0 0 72 73" fill="none" xmlns="http://www.w3.org/2000/svg">
<path d="M70.4586 0.529297H25.12C24.8036 0.529297 24.5001 0.655 24.2764 0.878753C24.0526 1.10251 23.9269 1.40598 23.9269 1.72242V6.55529C23.5304 6.53069 23.1365 6.49489 22.7338 6.49489C18.3043 6.49311 14.0121 8.03237 10.5932 10.8487C7.17431 13.6651 4.84169 17.5832 3.9953 21.9311C3.14891 26.279 3.84147 30.7859 5.95423 34.6791C8.06699 38.5723 11.4683 41.6093 15.5751 43.2692V46.0332L15.3961 46.061C15.3946 46.061 15.3933 46.061 15.3918 46.061L7.14958 47.3379C5.17332 47.6314 3.36909 48.6275 2.06776 50.1435C0.766422 51.6595 0.0552111 53.5938 0.0645438 55.5917V70.9233C0.0645438 71.2398 0.190247 71.5432 0.414 71.767C0.637753 71.9907 0.941228 72.1164 1.25766 72.1164H44.2099C44.5264 72.1164 44.8299 71.9907 45.0536 71.767C45.2774 71.5432 45.4031 71.2398 45.4031 70.9233V67.344H43.0168V69.7302H35.8581V66.1508H40.6306V63.7646H35.8581V58.9921H33.4719V69.7302H11.9957V58.9921H9.6095V63.7646H2.45078V55.5917C2.44437 54.1644 2.9527 52.7827 3.88256 51.6998C4.81241 50.6169 6.10147 49.9055 7.51333 49.6961L14.4982 48.6184C15.156 52.4705 18.3342 55.4128 22.6592 55.4128C26.9843 55.4128 30.314 52.4698 30.9698 48.616L33.2901 48.9717L33.6537 46.6135L29.8925 46.0332V43.2692C30.5991 42.9839 31.2878 42.6564 31.9551 42.2885H35.8581V39.9022H35.3182C37.6793 37.8637 39.4953 35.2691 40.6021 32.3528C41.709 29.4364 42.0719 26.2903 41.658 23.1986H62.1067V20.8123H41.1955C40.9597 19.8765 40.6528 18.96 40.2776 18.0708C40.3341 18.0173 40.3852 17.9584 40.4301 17.8948L44.2099 12.2251L47.9897 17.8948C48.0876 18.0418 48.2168 18.1652 48.3681 18.256C48.5195 18.3469 48.6891 18.403 48.8648 18.4203C49.0405 18.439 49.2182 18.4177 49.3846 18.3582C49.5511 18.2987 49.7019 18.2024 49.826 18.0765L53.7549 14.1476L57.6838 18.0765L59.3709 16.3894L54.5984 11.617C54.3747 11.3933 54.0713 11.2676 53.7549 11.2676C53.4385 11.2676 53.1351 11.3933 52.9114 11.617L49.168 15.3604L45.2026 9.41237C44.76 8.74825 43.6599 8.74825 43.2173 9.41237L39.0297 15.6931C36.785 12.0066 33.3613 9.1859 29.3134 7.68801H31.0856V5.30177H28.6994V7.46281C27.9183 7.20458 27.1212 6.99758 26.3132 6.84313V2.91554H56.1411V10.0743C56.1411 10.3907 56.2668 10.6942 56.4906 10.9179C56.7143 11.1417 57.0178 11.2674 57.3343 11.2674H64.493V38.7091H66.8792V10.5664C66.8792 10.253 66.8174 9.94258 66.6974 9.65301C66.5775 9.36343 66.4016 9.10034 66.1799 8.87875L60.2143 2.91613H69.2654V51.8334H71.6517V1.72242C71.6517 1.40598 71.526 1.10251 71.3022 0.878753C71.0785 0.655 70.775 0.529297 70.4586 0.529297ZM9.6095 66.1508V69.7302H2.45078V66.1508H9.6095ZM28.5971 48.2521C28.1154 50.9601 25.6047 53.0265 22.5548 53.0265C19.8633 53.0265 17.3528 50.9599 16.8711 48.2521L16.9457 48.2406C17.2282 48.1982 17.486 48.0557 17.6724 47.8392C17.8588 47.6228 17.9613 47.3466 17.9613 47.0609V44.0465C21.0879 44.8841 24.3798 44.8841 27.5063 44.0465V47.0609C27.5063 48.2168 28.5971 48.2521 28.5971 48.2521ZM39.4375 25.5848C39.4375 28.8885 38.4578 32.118 36.6224 34.8649C34.787 37.6118 32.1782 39.7527 29.126 41.017C26.0738 42.2812 22.7153 42.612 19.4751 41.9675C16.2349 41.323 13.2586 39.7321 10.9225 37.3961C8.58648 35.06 6.99561 32.0837 6.3511 28.8435C5.70658 25.6033 6.03737 22.2448 7.30163 19.1926C8.56589 16.1404 10.7068 13.5316 13.4537 11.6962C16.2006 9.86078 19.4301 8.88113 22.7338 8.88113C27.1624 8.8861 31.4081 10.6475 34.5396 13.779C37.6711 16.9105 39.4325 21.1562 39.4375 25.5848ZM58.5274 8.88113V4.60261L62.8059 8.88113H58.5274Z" fill="#021132"/>
<path d="M35.8582 5.30176H33.4719V7.688H35.8582V5.30176Z" fill="#021132"/>
<path d="M40.6304 5.30176H38.2441V7.688H40.6304V5.30176Z" fill="#021132"/>
<path d="M48.7482 32.7199L53.4262 33.6555L53.4412 33.6577C53.7476 33.7033 54.06 33.6326 54.317 33.4596C54.574 33.2866 54.757 33.0238 54.8301 32.7228C54.8299 32.7214 54.8299 32.72 54.8301 32.7186C55.0191 31.7726 54.9759 30.7949 54.7042 29.8693C54.4324 28.9438 53.9402 28.0979 53.2698 27.4043C52.5994 26.7107 51.7707 26.19 50.8549 25.8869C49.9391 25.5839 48.9634 25.5075 48.0116 25.6643C47.0598 25.8211 46.1602 26.2064 45.3899 26.7872C44.6197 27.3679 44.0018 28.1269 43.5893 28.9989C43.1768 29.8709 42.9819 30.8299 43.0214 31.7938C43.0608 32.7576 43.3335 33.6975 43.816 34.5329L45.8802 33.3397C45.6182 32.8842 45.4595 32.3767 45.4154 31.8531C45.3713 31.3294 45.4428 30.8025 45.625 30.3096C45.8071 29.8166 46.0954 29.3698 46.4694 29.0006C46.8434 28.6315 47.2939 28.3491 47.7892 28.1734V31.5501C47.7892 31.8259 47.8848 32.0931 48.0596 32.3064C48.2344 32.5197 48.4778 32.6658 48.7482 32.7199ZM52.5244 31.0415L50.1754 30.5719V28.1734C50.7911 28.3921 51.3353 28.7749 51.7493 29.2804C52.1632 29.7859 52.4313 30.3948 52.5244 31.0415Z" fill="#021132"/>
<path d="M62.1069 25.584H57.3345V27.9702H62.1069V25.584Z" fill="#021132"/>
<path d="M62.1069 30.3574H57.3345V32.7437H62.1069V30.3574Z" fill="#021132"/>
<path d="M64.1757 59.3743C66.053 56.6371 66.9972 53.3672 66.8681 50.0506C66.5656 41.9552 59.9856 35.405 51.8891 35.1381C49.7723 35.0693 47.6639 35.4344 45.6934 36.2108C43.723 36.9872 41.9322 38.1585 40.4312 39.6526C38.9302 41.1468 37.7508 42.9322 36.9654 44.8991C36.1801 46.8659 35.8054 48.9727 35.8644 51.0898C36.0935 59.1457 42.5507 65.7377 50.6002 66.1319C53.3837 66.2715 56.153 65.6538 58.6133 64.3446L65.229 70.9606C65.5749 71.3064 65.9854 71.5808 66.4373 71.7679C66.8891 71.9551 67.3734 72.0515 67.8625 72.0515C68.3516 72.0515 68.8358 71.9551 69.2877 71.7679C69.7395 71.5808 70.1501 71.3064 70.4959 70.9606C70.8417 70.6148 71.116 70.2042 71.3032 69.7524C71.4903 69.3006 71.5867 68.8163 71.5867 68.3273C71.5867 67.8382 71.4903 67.354 71.3032 66.9021C71.116 66.4503 70.8417 66.0398 70.4959 65.694L64.1757 59.3743ZM38.2443 50.6401C38.2443 48.0444 39.014 45.5069 40.4561 43.3486C41.8982 41.1903 43.948 39.5082 46.3461 38.5148C48.7443 37.5215 51.3831 37.2616 53.929 37.768C56.4749 38.2744 58.8134 39.5243 60.6489 41.3598C62.4843 43.1953 63.7343 45.5338 64.2407 48.0797C64.7471 50.6255 64.4872 53.2644 63.4939 55.6626C62.5005 58.0607 60.8183 60.1104 58.66 61.5526C56.5018 62.9947 53.9643 63.7644 51.3686 63.7644C47.889 63.7605 44.5531 62.3765 42.0926 59.916C39.6322 57.4556 38.2482 54.1197 38.2443 50.6401ZM66.9598 69.3627L60.6676 63.0242C61.3829 62.4865 62.0507 61.8884 62.6637 61.2363L68.8552 67.474C69.1053 67.7251 69.2456 68.0651 69.2452 68.4195C69.2449 68.774 69.1039 69.1137 68.8533 69.3643C68.7289 69.4887 68.5813 69.5873 68.4188 69.6545C68.2562 69.7217 68.0821 69.7563 67.9062 69.7561C67.7303 69.756 67.5562 69.7211 67.3938 69.6536C67.2314 69.5861 67.084 69.4872 66.9598 69.3627Z" fill="#021132"/>
<path d="M51.3684 39.9023C49.2447 39.9023 47.1686 40.5321 45.4027 41.712C43.6368 42.8919 42.2605 44.569 41.4478 46.5311C40.635 48.4933 40.4224 50.6523 40.8367 52.7353C41.251 54.8183 42.2737 56.7316 43.7755 58.2334C45.2772 59.7351 47.1906 60.7578 49.2736 61.1722C51.3565 61.5865 53.5156 61.3738 55.4777 60.5611C57.4399 59.7484 59.1169 58.372 60.2968 56.6062C61.4767 54.8403 62.1065 52.7642 62.1065 50.6404C62.1033 47.7935 60.971 45.0641 58.9579 43.051C56.9448 41.0379 54.2154 39.9055 51.3684 39.9023ZM51.3684 58.9923C49.7166 58.9923 48.1019 58.5024 46.7284 57.5847C45.355 56.667 44.2845 55.3626 43.6524 53.8365C43.0202 52.3104 42.8548 50.6312 43.1771 49.0111C43.4993 47.391 44.2948 45.9028 45.4628 44.7348C46.6308 43.5668 48.119 42.7713 49.7391 42.4491C51.3592 42.1268 53.0385 42.2922 54.5646 42.9243C56.0907 43.5565 57.395 44.6269 58.3127 46.0004C59.2305 47.3738 59.7203 48.9886 59.7203 50.6404C59.7177 52.8547 58.837 54.9775 57.2713 56.5432C55.7055 58.1089 53.5827 58.9897 51.3684 58.9923Z" fill="#021132"/>
<path d="M45.4031 50.6404H47.7893C47.7904 49.6914 48.1678 48.7816 48.8389 48.1106C49.5099 47.4396 50.4197 47.0621 51.3687 47.061V44.6748C49.7871 44.6767 48.2708 45.3058 47.1524 46.4241C46.034 47.5425 45.4049 49.0588 45.4031 50.6404Z" fill="#021132"/>
<path d="M8.41602 25.584C8.41602 28.4158 9.25572 31.1839 10.8289 33.5384C12.4022 35.8929 14.6382 37.728 17.2544 38.8116C19.8706 39.8953 22.7493 40.1788 25.5266 39.6264C28.3039 39.0739 30.8551 37.7103 32.8574 35.708C34.8597 33.7057 36.2233 31.1545 36.7758 28.3772C37.3282 25.5999 37.0447 22.7212 35.961 20.105C34.8774 17.4888 33.0423 15.2527 30.6878 13.6795C28.3333 12.1063 25.5652 11.2666 22.7334 11.2666C18.9375 11.2708 15.2983 12.7806 12.6142 15.4647C9.93004 18.1489 8.42024 21.7881 8.41602 25.584ZM34.6646 25.584C34.6646 27.9438 33.9649 30.2506 32.6539 32.2126C31.3428 34.1747 29.4795 35.704 27.2993 36.607C25.1192 37.5101 22.7202 37.7463 20.4058 37.286C18.0914 36.8256 15.9654 35.6893 14.2968 34.0207C12.6282 32.352 11.4919 30.2261 11.0315 27.9117C10.5711 25.5973 10.8074 23.1983 11.7105 21.0182C12.6135 18.838 14.1428 16.9746 16.1048 15.6636C18.0669 14.3526 20.3737 13.6528 22.7334 13.6528C25.8967 13.6565 28.9293 14.9147 31.1661 17.1514C33.4028 19.3882 34.661 22.4208 34.6646 25.584Z" fill="#021132"/>
<path d="M13.189 25.585C13.189 27.4728 13.7488 29.3182 14.7976 30.8879C15.8464 32.4575 17.3371 33.6809 19.0812 34.4034C20.8253 35.1258 22.7445 35.3148 24.596 34.9465C26.4476 34.5782 28.1483 33.6692 29.4832 32.3343C30.8181 30.9994 31.7272 29.2987 32.0955 27.4471C32.4638 25.5956 32.2747 23.6764 31.5523 21.9323C30.8299 20.1882 29.6065 18.6975 28.0368 17.6487C26.4671 16.5998 24.6217 16.04 22.7339 16.04C20.2033 16.0429 17.7772 17.0495 15.9878 18.8389C14.1984 20.6283 13.1918 23.0544 13.189 25.585ZM29.8926 25.585C29.8926 27.0009 29.4728 28.3849 28.6862 29.5622C27.8996 30.7394 26.7815 31.657 25.4734 32.1988C24.1654 32.7406 22.726 32.8824 21.3373 32.6062C19.9487 32.3299 18.6731 31.6481 17.6719 30.647C16.6708 29.6458 15.989 28.3702 15.7128 26.9816C15.4365 25.5929 15.5783 24.1536 16.1201 22.8455C16.662 21.5374 17.5795 20.4193 18.7567 19.6327C19.934 18.8461 21.3181 18.4263 22.7339 18.4263C24.6319 18.4283 26.4516 19.1832 27.7936 20.5253C29.1357 21.8674 29.8906 23.687 29.8926 25.585Z" fill="#021132"/>
<path d="M17.9612 25.585C17.9612 26.5289 18.2411 27.4516 18.7655 28.2364C19.2899 29.0213 20.0353 29.633 20.9073 29.9942C21.7794 30.3554 22.739 30.4499 23.6647 30.2658C24.5905 30.0816 25.4409 29.6271 26.1083 28.9596C26.7758 28.2922 27.2303 27.4418 27.4144 26.516C27.5986 25.5903 27.5041 24.6307 27.1429 23.7586C26.7816 22.8866 26.1699 22.1412 25.3851 21.6168C24.6003 21.0924 23.6776 20.8125 22.7337 20.8125C21.4683 20.8138 20.2552 21.3171 19.3605 22.2118C18.4658 23.1065 17.9625 24.3196 17.9612 25.585ZM25.1199 25.585C25.1199 26.0569 24.9799 26.5183 24.7177 26.9107C24.4555 27.3031 24.0829 27.609 23.6468 27.7896C23.2108 27.9702 22.731 28.0174 22.2681 27.9254C21.8052 27.8333 21.3801 27.606 21.0463 27.2723C20.7126 26.9386 20.4853 26.5134 20.3933 26.0505C20.3012 25.5876 20.3485 25.1078 20.5291 24.6718C20.7097 24.2358 21.0155 23.8631 21.4079 23.6009C21.8003 23.3387 22.2617 23.1987 22.7337 23.1987C23.3663 23.1995 23.9728 23.4511 24.4202 23.8985C24.8675 24.3458 25.1191 24.9523 25.1199 25.585Z" fill="#021132"/>
</svg>
