<svg width="78" height="72" viewBox="0 0 78 72" fill="none" xmlns="http://www.w3.org/2000/svg">
<path d="M1.875 0.25H32.125C32.4897 0.25 32.8394 0.394866 33.0973 0.652728C33.3551 0.910591 33.5 1.26033 33.5 1.625V25.2062C33.4984 25.4903 33.4088 25.7669 33.2436 25.998C33.0783 26.2291 32.8456 26.4034 32.5773 26.4968C32.309 26.5903 32.0184 26.5983 31.7454 26.5199C31.4723 26.4414 31.2303 26.2803 31.0525 26.0588L28.4125 22.7725C28.2845 22.6105 28.1215 22.4793 27.9359 22.3889C27.7502 22.2984 27.5465 22.251 27.34 22.25H1.875C1.51033 22.25 1.16059 22.1051 0.902728 21.8473C0.644866 21.5894 0.5 21.2397 0.5 20.875V1.625C0.5 1.26033 0.644866 0.910591 0.902728 0.652728C1.16059 0.394866 1.51033 0.25 1.875 0.25Z" fill="#0096E6"/>
<path d="M16.6425 53.2837L19.3925 51.0287C19.755 50.7482 20.1992 50.5937 20.6575 50.5887H27.2438C27.666 50.5896 28.0775 50.7226 28.4202 50.9692C28.763 51.2158 29.02 51.5636 29.155 51.9637L29.815 53.93C30.3383 54.4458 30.7338 55.0767 30.97 55.7725C31.3459 56.9591 31.2675 58.243 30.75 59.375L29.045 67.9C28.928 68.5219 28.6002 69.0844 28.1168 69.4926C27.6334 69.9009 27.0239 70.13 26.3913 70.1412H17C16.6457 70.1409 16.2971 70.0528 15.9852 69.8849C15.6733 69.7169 15.4078 69.4743 15.2125 69.1787C15.0824 68.6775 14.772 68.2418 14.3407 67.9551C13.9094 67.6684 13.3876 67.5509 12.875 67.625H6V53.27L16.6425 53.2837Z" fill="#FFE082"/>
<path d="M0.5 69C0.5 70.5188 1.73122 71.75 3.25 71.75C4.76878 71.75 6 70.5188 6 69V52.5C6 50.9812 4.76878 49.75 3.25 49.75C1.73122 49.75 0.5 50.9812 0.5 52.5V69Z" fill="#FF770D"/>
<path d="M14.25 27.75H34.875V42.875H14.25V27.75Z" fill="#45DE26"/>
<path d="M34.875 27.75L52.75 12.625V58L34.875 42.875V27.75Z" fill="#45DE26"/>
<path d="M58.25 12.625C58.25 11.1062 57.0188 9.875 55.5 9.875C53.9812 9.875 52.75 11.1062 52.75 12.625V58C52.75 59.5188 53.9812 60.75 55.5 60.75C57.0188 60.75 58.25 59.5188 58.25 58V12.625Z" fill="#249B0B"/>
<path d="M21.8125 42.875H27.3125V50.4375H21.8125V42.875Z" fill="#249B0B"/>
<path d="M11.5 30.5H14.25V40.125H11.5C10.7707 40.125 10.0712 39.8353 9.55546 39.3195C9.03973 38.8038 8.75 38.1043 8.75 37.375V33.25C8.75 32.5207 9.03973 31.8212 9.55546 31.3055C10.0712 30.7897 10.7707 30.5 11.5 30.5Z" fill="#249B0B"/>
<path d="M76.125 71.75H45.875C45.5103 71.75 45.1606 71.6051 44.9027 71.3472C44.6449 71.0894 44.5 70.7396 44.5 70.375V46.7937C44.5016 46.5096 44.5912 46.233 44.7564 46.0019C44.9217 45.7708 45.1544 45.5966 45.4227 45.5031C45.691 45.4097 45.9816 45.4017 46.2546 45.4801C46.5277 45.5585 46.7697 45.7196 46.9475 45.9412L49.5875 49.2275C49.7155 49.3895 49.8785 49.5206 50.0641 49.6111C50.2498 49.7016 50.4535 49.749 50.66 49.75H76.125C76.4897 49.75 76.8394 49.8948 77.0973 50.1527C77.3551 50.4106 77.5 50.7603 77.5 51.125V70.375C77.5 70.7396 77.3551 71.0894 77.0973 71.3472C76.8394 71.6051 76.4897 71.75 76.125 71.75Z" fill="#FF770D"/>
<path d="M25.25 15.375H7.375C7.01033 15.375 6.66059 15.2301 6.40273 14.9723C6.14487 14.7144 6 14.3647 6 14C6 13.6353 6.14487 13.2856 6.40273 13.0277C6.66059 12.7699 7.01033 12.625 7.375 12.625H25.25C25.6147 12.625 25.9644 12.7699 26.2223 13.0277C26.4801 13.2856 26.625 13.6353 26.625 14C26.625 14.3647 26.4801 14.7144 26.2223 14.9723C25.9644 15.2301 25.6147 15.375 25.25 15.375Z" fill="white"/>
<path d="M70.625 59.375H52.75C52.3853 59.375 52.0356 59.2301 51.7777 58.9723C51.5199 58.7144 51.375 58.3647 51.375 58C51.375 57.6353 51.5199 57.2856 51.7777 57.0277C52.0356 56.7699 52.3853 56.625 52.75 56.625H70.625C70.9897 56.625 71.3394 56.7699 71.5973 57.0277C71.8551 57.2856 72 57.6353 72 58C72 58.3647 71.8551 58.7144 71.5973 58.9723C71.3394 59.2301 70.9897 59.375 70.625 59.375Z" fill="white"/>
<path d="M70.625 66.25H52.75C52.3853 66.25 52.0356 66.1051 51.7777 65.8473C51.5199 65.5894 51.375 65.2397 51.375 64.875C51.375 64.5103 51.5199 64.1606 51.7777 63.9027C52.0356 63.6449 52.3853 63.5 52.75 63.5H70.625C70.9897 63.5 71.3394 63.6449 71.5973 63.9027C71.8551 64.1606 72 64.5103 72 64.875C72 65.2397 71.8551 65.5894 71.5973 65.8473C71.3394 66.1051 70.9897 66.25 70.625 66.25Z" fill="white"/>
<path d="M63.75 41.5C63.3853 41.5 63.0356 41.3551 62.7777 41.0973C62.5199 40.8394 62.375 40.4897 62.375 40.125V30.5C62.375 30.1353 62.5199 29.7856 62.7777 29.5277C63.0356 29.2699 63.3853 29.125 63.75 29.125C64.1147 29.125 64.4644 29.2699 64.7223 29.5277C64.9801 29.7856 65.125 30.1353 65.125 30.5V40.125C65.125 40.4897 64.9801 40.8394 64.7223 41.0973C64.4644 41.3551 64.1147 41.5 63.75 41.5Z" fill="#249B0B"/>
<path d="M69.25 44.9375C68.8853 44.9375 68.5356 44.7926 68.2777 44.5348C68.0199 44.2769 67.875 43.9272 67.875 43.5625V27.0625C67.875 26.6978 68.0199 26.3481 68.2777 26.0902C68.5356 25.8324 68.8853 25.6875 69.25 25.6875C69.6147 25.6875 69.9644 25.8324 70.2223 26.0902C70.4801 26.3481 70.625 26.6978 70.625 27.0625V43.5625C70.625 43.9272 70.4801 44.2769 70.2223 44.5348C69.9644 44.7926 69.6147 44.9375 69.25 44.9375Z" fill="#249B0B"/>
<path d="M25.25 8.5H7.375C7.01033 8.5 6.66059 8.35513 6.40273 8.09727C6.14487 7.83941 6 7.48967 6 7.125C6 6.76033 6.14487 6.41059 6.40273 6.15273C6.66059 5.89487 7.01033 5.75 7.375 5.75H25.25C25.6147 5.75 25.9644 5.89487 26.2223 6.15273C26.4801 6.41059 26.625 6.76033 26.625 7.125C26.625 7.48967 26.4801 7.83941 26.2223 8.09727C25.9644 8.35513 25.6147 8.5 25.25 8.5Z" fill="white"/>
</svg>
