<svg width="85" height="92" viewBox="0 0 85 92" fill="none" xmlns="http://www.w3.org/2000/svg">
<path d="M77.0092 12.0213C77.0092 18.66 71.6273 24.0419 64.9886 24.0419C58.3492 24.0419 52.9673 18.66 52.9673 12.0213C52.9673 5.3819 58.3492 0 64.9886 0C71.6273 0 77.0092 5.3819 77.0092 12.0213Z" fill="#FFB133"/>
<path d="M64.9889 0C64.2767 0 63.5806 0.0656331 62.9026 0.184331C68.5463 1.17232 72.8376 6.09409 72.8376 12.0213C72.8376 17.9478 68.5463 22.8696 62.9026 23.8576C63.5806 23.9763 64.2767 24.0419 64.9889 24.0419C71.6276 24.0419 77.0095 18.66 77.0095 12.0213C77.0095 5.3819 71.6276 0 64.9889 0Z" fill="#F28730"/>
<path d="M24.8327 72.125H8.97745C8.37628 72.125 7.88892 72.6124 7.88892 73.2135V89.0681C7.88892 89.6693 8.37628 90.1559 8.97745 90.1559H24.832C25.4332 90.1559 25.9205 89.6693 25.9205 89.0681V73.2135C25.9205 72.6124 25.4332 72.125 24.8327 72.125Z" fill="#0096E6"/>
<path d="M72.916 36.0625H57.0614C56.4603 36.0625 55.9729 36.5499 55.9729 37.151V89.0681C55.9729 89.6693 56.4603 90.1559 57.0614 90.1559H72.916C73.5172 90.1559 74.0045 89.6693 74.0045 89.0681V37.151C74.0045 36.5499 73.5172 36.0625 72.916 36.0625Z" fill="#0096E6"/>
<path d="M48.8747 54.0947H33.0194C32.4183 54.0947 31.9309 54.5821 31.9309 55.1833V89.0687C31.9309 89.6699 32.4183 90.1572 33.0194 90.1572H48.8747C49.4759 90.1572 49.9625 89.6699 49.9625 89.0687V55.1833C49.9625 54.5821 49.4759 54.0947 48.8747 54.0947Z" fill="#0096E6"/>
<path d="M66.9057 48.0828H63.0724C62.4712 48.0828 61.9839 47.5962 61.9839 46.995V43.1618C61.9839 42.5606 62.4712 42.0732 63.0724 42.0732H66.9057C67.5068 42.0732 67.9942 42.5606 67.9942 43.1618V46.995C67.9942 47.5962 67.5068 48.0828 66.9057 48.0828Z" fill="#C0E3F0"/>
<path d="M42.8637 66.1148H39.0304C38.4293 66.1148 37.9419 65.6274 37.9419 65.0263V61.193C37.9419 60.5919 38.4293 60.1045 39.0304 60.1045H42.8637C43.4648 60.1045 43.9522 60.5919 43.9522 61.193V65.0263C43.9522 65.6274 43.4648 66.1148 42.8637 66.1148Z" fill="#C0E3F0"/>
<path d="M18.8219 84.146H14.9887C14.3875 84.146 13.9001 83.6587 13.9001 83.0575V79.2243C13.9001 78.6231 14.3875 78.1357 14.9887 78.1357H18.8219C19.4231 78.1357 19.9098 78.6231 19.9098 79.2243V83.0575C19.9098 83.6587 19.4231 84.146 18.8219 84.146Z" fill="#C0E3F0"/>
<path d="M72.916 36.0625H68.7441C69.3453 36.0625 69.8327 36.5499 69.8327 37.151V89.0681C69.8327 89.6693 69.3453 90.1559 68.7441 90.1559H72.916C73.5172 90.1559 74.0046 89.6693 74.0046 89.0681V37.151C74.0046 36.5499 73.5172 36.0625 72.916 36.0625Z" fill="#0070C0"/>
<path d="M48.8747 54.0947H44.7021C45.3033 54.0947 45.7907 54.5821 45.7907 55.1833V89.0694C45.7907 89.6706 45.3033 90.1572 44.7021 90.1572H48.8747C49.4759 90.1572 49.9626 89.6706 49.9626 89.0694V55.1833C49.9626 54.5821 49.4759 54.0947 48.8747 54.0947Z" fill="#0070C0"/>
<path d="M24.8327 72.125H20.6602C21.2613 72.125 21.7487 72.6124 21.7487 73.2135V89.0688C21.7487 89.6699 21.2613 90.1566 20.6602 90.1566H24.8327C25.4339 90.1566 25.9206 89.6699 25.9206 89.0688V73.2135C25.9206 72.6124 25.4332 72.125 24.8327 72.125Z" fill="#0070C0"/>
<path d="M80.0154 88.7959H1.87939C1.12741 88.7959 0.518555 89.4047 0.518555 90.156C0.518555 90.908 1.12741 91.5169 1.87939 91.5169H80.0154C80.7667 91.5169 81.3756 90.908 81.3756 90.156C81.3756 89.4047 80.7667 88.7959 80.0154 88.7959Z" fill="#10377E"/>
<path d="M64.9995 10.6601C64.996 10.6601 64.9925 10.6594 64.989 10.6594C64.082 10.6594 63.344 9.92204 63.344 9.01505C63.344 8.10806 64.082 7.37004 64.989 7.37004C65.8953 7.37004 66.6334 8.10806 66.6334 9.01505C66.6334 9.76634 67.2429 10.3759 67.9942 10.3759C68.7455 10.3759 69.3543 9.76634 69.3543 9.01505C69.3543 7.08307 68.0919 5.44085 66.3492 4.8676V4.50732C66.3492 3.75603 65.7403 3.14648 64.989 3.14648C64.2377 3.14648 63.6282 3.75603 63.6282 4.50732V4.8676C61.8854 5.44085 60.623 7.08307 60.623 9.01505C60.623 11.419 62.576 13.3748 64.9786 13.3803C64.9821 13.3803 64.9855 13.381 64.989 13.381C65.8953 13.381 66.6334 14.1191 66.6334 15.0254C66.6334 15.933 65.8953 16.6704 64.989 16.6704C64.082 16.6704 63.344 15.933 63.344 15.0254C63.344 14.2741 62.7352 13.6652 61.9839 13.6652C61.2326 13.6652 60.623 14.2741 60.623 15.0254C60.623 16.958 61.8854 18.6003 63.6282 19.1735V19.5338C63.6282 20.2851 64.2377 20.8939 64.989 20.8939C65.7403 20.8939 66.3492 20.2851 66.3492 19.5338V19.1735C68.0919 18.6003 69.3543 16.958 69.3543 15.0254C69.3543 12.6221 67.4014 10.6656 64.9995 10.6601Z" fill="#F28730"/>
<path d="M7.89039 58.4605C7.48821 58.4605 7.09023 58.2832 6.82141 57.9431C6.35569 57.3531 6.45624 56.4978 7.04624 56.0321L40.8633 29.3348C41.4533 28.8691 42.3086 28.9697 42.7743 29.5597C43.2393 30.149 43.1388 31.0043 42.5495 31.47L8.73245 58.168C8.48248 58.3649 8.18504 58.4605 7.89039 58.4605Z" fill="#4DBBEB"/>
<path d="M39.1441 27.156L44.2684 33.6474C44.7858 34.303 45.8191 34.155 46.1319 33.3799L49.2495 25.6506C49.5644 24.87 48.9109 24.0419 48.0786 24.1669L39.8368 25.4055C39.0101 25.5298 38.626 26.5003 39.1441 27.156Z" fill="#4DBBEB"/>
<path d="M50.5715 4.79355L47.5664 3.29098C46.8947 2.95583 46.077 3.22744 45.7405 3.89983C45.4047 4.57152 45.677 5.38914 46.3494 5.72498L49.3545 7.22756C49.55 7.32531 49.7574 7.37139 49.962 7.37139C50.4605 7.37139 50.9416 7.09559 51.1797 6.61941C51.5155 5.94702 51.2432 5.1301 50.5715 4.79355Z" fill="#C0E3F0"/>
<path d="M49.3545 16.8147L46.3487 18.3173C45.677 18.6538 45.4047 19.4708 45.7405 20.1432C45.9786 20.62 46.4597 20.8951 46.9582 20.8951C47.1628 20.8951 47.3702 20.8491 47.5657 20.7513L50.5715 19.2487C51.2432 18.9129 51.5155 18.0953 51.1797 17.4236C50.8438 16.7512 50.0269 16.4789 49.3545 16.8147Z" fill="#C0E3F0"/>
<path d="M80.016 7.37145C80.2206 7.37145 80.428 7.32537 80.6235 7.22762L83.6286 5.72504C84.3003 5.3892 84.5733 4.57227 84.2368 3.89989C83.9009 3.2275 83.084 2.95519 82.4116 3.29173L79.4065 4.79431C78.7341 5.13016 78.4618 5.94708 78.7983 6.61946C79.0364 7.09635 79.5168 7.37145 80.016 7.37145Z" fill="#C0E3F0"/>
<path d="M83.6287 18.318L80.6235 16.8147C79.9518 16.4789 79.1342 16.7512 78.7984 17.4236C78.4625 18.0953 78.7348 18.9129 79.4065 19.2487L82.4117 20.7513C82.6072 20.8491 82.8146 20.8958 83.0191 20.8958C83.5184 20.8958 83.9987 20.62 84.2375 20.1432C84.5734 19.4708 84.3011 18.6538 83.6287 18.318Z" fill="#C0E3F0"/>
</svg>
