<svg width="86" height="86" viewBox="0 0 86 86" fill="none" xmlns="http://www.w3.org/2000/svg">
<path d="M41.625 82.8749C41.3235 83.7209 40.7081 84.4185 39.9062 84.8233C39.2864 85.0955 38.6019 85.1862 37.9325 85.0847C37.2631 84.9832 36.6363 84.6937 36.125 84.2499L16.875 69.1249V47.1249H34.75L56.75 74.6249L44.375 85.6249L41.625 82.8749Z" fill="#FBE41A"/>
<path d="M0.375 47.1249H16.875V69.1249H0.375V47.1249Z" fill="#0096E6"/>
<path d="M70.5 47.1249H85.625V69.1249H70.5V47.1249Z" fill="#0096E6"/>
<path d="M44.3748 47.1249L26.8821 59.9523C26.585 60.1699 26.3534 60.4651 26.2128 60.8055C26.0721 61.1459 26.0278 61.5184 26.0846 61.8823C26.1413 62.2462 26.297 62.5875 26.5347 62.8689C26.7724 63.1503 27.0828 63.3609 27.4321 63.4778L29.0216 64.0071C30.9252 64.64 33.0022 64.4917 34.7966 63.5946L42.9998 59.4999L56.7498 74.6249L70.4998 69.1249V47.1249H44.3748Z" fill="#FFCB14"/>
<path d="M45.406 84.7034L44.3748 85.6246L41.6248 82.8746C41.459 83.3228 41.2067 83.7339 40.8823 84.0847L31.0235 74.2259C30.7646 73.967 30.6191 73.6158 30.6191 73.2496C30.6191 72.8835 30.7646 72.5323 31.0235 72.2734C31.2824 72.0145 31.6336 71.869 31.9998 71.869C32.3659 71.869 32.7171 72.0145 32.976 72.2734L45.406 84.7034Z" fill="#FCC325"/>
<path d="M49.7648 80.8259L47.716 82.6546L35.1485 70.1009C34.8896 69.842 34.7441 69.4908 34.7441 69.1246C34.7441 68.7585 34.8896 68.4073 35.1485 68.1484C35.4074 67.8895 35.7586 67.744 36.1248 67.744C36.4909 67.744 36.8421 67.8895 37.101 68.1484L49.7648 80.8259Z" fill="#FCC325"/>
<path d="M54.1373 76.9484L52.0885 78.7771L39.2735 65.9759C39.1453 65.8477 39.0436 65.6955 38.9742 65.528C38.9049 65.3605 38.8691 65.181 38.8691 64.9996C38.8691 64.8183 38.9049 64.6388 38.9742 64.4713C39.0436 64.3038 39.1453 64.1516 39.2735 64.0234C39.4017 63.8952 39.5539 63.7935 39.7214 63.7241C39.8889 63.6547 40.0685 63.619 40.2498 63.619C40.4311 63.619 40.6106 63.6547 40.7781 63.7241C40.9456 63.7935 41.0978 63.8952 41.226 64.0234L54.1373 76.9484Z" fill="#FCC325"/>
<path d="M61.3809 22.1534C60.7153 25.7578 58.9975 29.0845 56.444 31.7141C53.8906 34.3438 50.6158 36.1585 47.0324 36.9297C43.4491 37.7009 39.7177 37.394 36.3085 36.0476C32.8994 34.7012 29.9651 32.3757 27.8757 29.3641C25.7863 26.3526 24.6352 22.7899 24.5676 19.1252C24.5 15.4604 25.5189 11.8577 27.4958 8.77111C29.4727 5.68455 32.3191 3.25236 35.6763 1.78114C39.0334 0.30992 42.751 -0.134464 46.3604 0.504009C48.7691 0.937303 51.0688 1.8413 53.1277 3.16428C55.1867 4.48726 56.9647 6.20325 58.3598 8.21407C59.7549 10.2249 60.7398 12.4911 61.2582 14.8829C61.7766 17.2748 61.8183 19.7454 61.3809 22.1534Z" fill="#FFD914"/>
<g opacity="0.1">
<path d="M43 59.4999L56.75 74.6249L70.5 69.1249V58.1249H59.9579C53.0829 64.542 43 59.4999 43 59.4999Z" fill="black"/>
</g>
<g opacity="0.2">
<path d="M36.1016 48.8148L34.75 47.1249H0.375V54.4303C7.69963 54.2886 26.6719 53.4623 36.1016 48.8148Z" fill="white"/>
</g>
<g opacity="0.2">
<path d="M44.3748 47.1249L41.1133 49.516C55.5685 53.6501 70.6121 55.344 85.6248 54.5279V47.1249H44.3748Z" fill="white"/>
</g>
<path d="M47.9942 16.6659C48.3589 16.6659 48.7086 16.521 48.9665 16.2631C49.2243 16.0053 49.3692 15.6555 49.3692 15.2909V14.8688C49.3681 13.6816 48.8961 12.5433 48.0568 11.7038C47.2175 10.8642 46.0794 10.3918 44.8922 10.3904H44.2968C44.3423 10.2649 44.3687 10.1332 44.3752 9.99988V7.24988C44.3752 6.88521 44.2303 6.53547 43.9725 6.27761C43.7146 6.01974 43.3649 5.87488 43.0002 5.87488C42.6355 5.87488 42.2858 6.01974 42.0279 6.27761C41.7701 6.53547 41.6252 6.88521 41.6252 7.24988V9.99988C41.6301 10.1476 41.6594 10.2934 41.7118 10.4316C40.6025 10.531 39.5702 11.0411 38.8174 11.8618C38.0645 12.6826 37.6453 13.755 37.6418 14.8688C37.6455 15.5942 37.8239 16.308 38.1618 16.9499C38.4998 17.5918 38.9874 18.1429 39.5833 18.5565L45.8959 22.533C46.1192 22.6928 46.3011 22.9035 46.4267 23.1476C46.5522 23.3918 46.6177 23.6623 46.6178 23.9369V25.1111C46.6171 25.5689 46.4349 26.0078 46.1112 26.3315C45.7875 26.6552 45.3486 26.8374 44.8908 26.8381H42.1202C41.893 26.8385 41.668 26.7941 41.458 26.7075C41.248 26.6209 41.0571 26.4938 40.8963 26.3334C40.7354 26.1731 40.6077 25.9826 40.5204 25.7729C40.4332 25.5631 40.3881 25.3383 40.3877 25.1111V23.5148C40.3877 23.1501 40.2428 22.8003 39.985 22.5425C39.7271 22.2846 39.3774 22.1398 39.0127 22.1398C38.648 22.1398 38.2983 22.2846 38.0404 22.5425C37.7826 22.8003 37.6377 23.1501 37.6377 23.5148V25.1111C37.6411 26.2104 38.0498 27.2699 38.7855 28.0868C39.5212 28.9036 40.5322 29.4205 41.6252 29.5386V31.9999C41.6252 32.3645 41.7701 32.7143 42.0279 32.9721C42.2858 33.23 42.6355 33.3749 43.0002 33.3749C43.3649 33.3749 43.7146 33.23 43.9725 32.9721C44.2303 32.7143 44.3752 32.3645 44.3752 31.9999V29.5881H44.8908C46.0777 29.5867 47.2156 29.1145 48.0549 28.2752C48.8942 27.4359 49.3664 26.2981 49.3678 25.1111V23.9369C49.3646 23.2114 49.1864 22.4973 48.8484 21.8554C48.5104 21.2134 48.0226 20.6624 47.4263 20.2491L41.1151 16.274C40.8177 16.061 40.5955 15.7592 40.4805 15.4119C40.3656 15.0647 40.3637 14.6899 40.4753 14.3415C40.5869 13.9931 40.8062 13.6892 41.1015 13.4733C41.3968 13.2575 41.753 13.1409 42.1188 13.1404H44.8908C45.3489 13.1411 45.7879 13.3235 46.1117 13.6475C46.4354 13.9715 46.6175 14.4107 46.6178 14.8688V15.2909C46.6178 15.4716 46.6534 15.6505 46.7226 15.8174C46.7918 15.9843 46.8932 16.1359 47.021 16.2636C47.1489 16.3913 47.3006 16.4926 47.4676 16.5616C47.6346 16.6306 47.8135 16.6661 47.9942 16.6659Z" fill="#021132"/>
<g opacity="0.2">
<path d="M60.964 13.8499C60.2976 11.4715 59.1635 9.24996 57.6281 7.31522C56.0926 5.38048 54.1867 3.77142 52.0219 2.58221C49.857 1.393 47.4767 0.647522 45.0203 0.389412C42.5638 0.131301 40.0806 0.365738 37.7158 1.079C35.3511 1.79227 33.1523 2.97003 31.2483 4.54338C29.3442 6.11672 27.7731 8.05403 26.6269 10.2419C25.4807 12.4298 24.7824 14.8244 24.5728 17.2855C24.3633 19.7465 24.6467 22.2247 25.4065 24.5749C35.9418 24.7275 51.6127 23.1614 60.964 13.8499Z" fill="white"/>
</g>
</svg>
