<svg width="20" height="19" viewBox="0 0 20 19" fill="none" xmlns="http://www.w3.org/2000/svg">
<path fill-rule="evenodd" clip-rule="evenodd" d="M10.0674 0.763672C7.59539 0.763672 7.28516 0.774481 6.31424 0.818665C5.34523 0.863039 4.68379 1.01645 4.10503 1.24154C3.50637 1.47403 2.99853 1.78503 2.4926 2.29115C1.98628 2.79709 1.67528 3.30492 1.44204 3.9034C1.21638 4.48235 1.06277 5.14397 1.01916 6.11261C0.975733 7.08352 0.964355 7.39395 0.964355 9.86599C0.964355 12.338 0.975354 12.6473 1.01935 13.6182C1.06391 14.5872 1.21732 15.2487 1.44223 15.8274C1.67491 16.4261 1.9859 16.9339 2.49203 17.4399C2.99778 17.9462 3.50561 18.2579 4.1039 18.4904C4.68303 18.7155 5.34466 18.8689 6.31348 18.9133C7.2844 18.9575 7.59445 18.9683 10.0663 18.9683C12.5385 18.9683 12.8478 18.9575 13.8187 18.9133C14.7877 18.8689 15.4499 18.7155 16.0291 18.4904C16.6275 18.2579 17.1346 17.9462 17.6404 17.4399C18.1467 16.9339 18.4577 16.4261 18.6909 15.8276C18.9147 15.2487 19.0683 14.5871 19.1138 13.6184C19.1574 12.6475 19.1688 12.338 19.1688 9.86599C19.1688 7.39395 19.1574 7.08371 19.1138 6.1128C19.0683 5.14378 18.9147 4.48235 18.6909 3.90359C18.4577 3.30493 18.1467 2.79709 17.6404 2.29115C17.1341 1.78484 16.6277 1.47384 16.0285 1.24154C15.4482 1.01645 14.7864 0.863039 13.8174 0.818665C12.8465 0.774481 12.5374 0.763672 10.0646 0.763672H10.0674ZM9.25084 2.40396C9.49319 2.40358 9.7636 2.40396 10.0674 2.40396C12.4977 2.40396 12.7858 2.41268 13.7455 2.4563C14.633 2.49688 15.1146 2.64517 15.4355 2.76976C15.8603 2.93474 16.1631 3.13196 16.4815 3.45054C16.8001 3.76912 16.9973 4.07253 17.1626 4.4973C17.2872 4.81778 17.4357 5.29945 17.4761 6.18692C17.5197 7.14646 17.5292 7.4347 17.5292 9.86388C17.5292 12.2931 17.5197 12.5813 17.4761 13.5408C17.4355 14.4283 17.2872 14.91 17.1626 15.2305C16.9977 15.6552 16.8001 15.9577 16.4815 16.2761C16.1629 16.5947 15.8604 16.7919 15.4355 16.9569C15.115 17.082 14.633 17.2299 13.7455 17.2705C12.786 17.3141 12.4977 17.3236 10.0674 17.3236C7.63688 17.3236 7.34883 17.3141 6.3893 17.2705C5.50182 17.2295 5.02016 17.0813 4.69911 16.9567C4.27434 16.7917 3.97093 16.5945 3.65234 16.2759C3.33376 15.9573 3.13655 15.6547 2.97119 15.2297C2.8466 14.9092 2.69812 14.4276 2.65773 13.5401C2.61411 12.5805 2.60539 12.2923 2.60539 9.8616C2.60539 7.4309 2.61411 7.14418 2.65773 6.18465C2.69831 5.29717 2.8466 4.81551 2.97119 4.49465C3.13617 4.06987 3.33376 3.76646 3.65234 3.44788C3.97093 3.1293 4.27434 2.93208 4.69911 2.76673C5.01997 2.64157 5.50182 2.49366 6.3893 2.45288C7.22899 2.41496 7.55439 2.40358 9.25084 2.40168V2.40396ZM14.9261 3.91533C14.3231 3.91533 13.8339 4.40401 13.8339 5.00723C13.8339 5.61025 14.3231 6.0995 14.9261 6.0995C15.5292 6.0995 16.0184 5.61025 16.0184 5.00723C16.0184 4.4042 15.5292 3.91533 14.9261 3.91533ZM10.0674 5.19155C7.48599 5.19155 5.39303 7.28451 5.39303 9.86596C5.39303 12.4474 7.48599 14.5394 10.0674 14.5394C12.6489 14.5394 14.7411 12.4474 14.7411 9.86596C14.7411 7.28451 12.6489 5.19155 10.0674 5.19155ZM10.0674 6.83186C11.743 6.83186 13.1015 8.19019 13.1015 9.86596C13.1015 11.5415 11.743 12.9001 10.0674 12.9001C8.39164 12.9001 7.03331 11.5415 7.03331 9.86596C7.03331 8.19019 8.39164 6.83186 10.0674 6.83186Z" fill="white"/>
</svg>
