<svg width="18" height="18" viewBox="0 0 18 18" fill="none" xmlns="http://www.w3.org/2000/svg">
<path d="M16.2123 0.40625H1.7877C1.025 0.40625 0.40625 1.025 0.40625 1.7877V16.2123C0.40625 16.975 1.025 17.5938 1.7877 17.5938H16.2123C16.975 17.5938 17.5938 16.975 17.5938 16.2123V1.7877C17.5938 1.025 16.975 0.40625 16.2123 0.40625ZM16.2123 16.2188C6.5916 16.2166 1.78125 16.2145 1.78125 16.2123C1.7834 6.5916 1.78555 1.78125 1.7877 1.78125C11.4084 1.7834 16.2188 1.78555 16.2188 1.7877C16.2166 11.4084 16.2145 16.2188 16.2123 16.2188ZM2.9543 6.84941H5.50449V15.0521H2.9543V6.84941ZM4.23047 5.72793C5.04473 5.72793 5.70859 5.06621 5.70859 4.2498C5.70859 4.05569 5.67036 3.86349 5.59608 3.68415C5.5218 3.50482 5.41292 3.34187 5.27566 3.20461C5.1384 3.06736 4.97546 2.95848 4.79612 2.8842C4.61679 2.80991 4.42458 2.77168 4.23047 2.77168C4.03636 2.77168 3.84415 2.80991 3.66481 2.8842C3.48548 2.95848 3.32253 3.06736 3.18528 3.20461C3.04802 3.34187 2.93914 3.50482 2.86486 3.68415C2.79058 3.86349 2.75234 4.05569 2.75234 4.2498C2.7502 5.06621 3.41191 5.72793 4.23047 5.72793ZM9.65098 10.9937C9.65098 9.92383 9.85508 8.88828 11.1807 8.88828C12.4869 8.88828 12.5063 10.1107 12.5063 11.0625V15.0521H15.0543V10.5533C15.0543 8.34473 14.5773 6.64531 11.9971 6.64531C10.7574 6.64531 9.92598 7.32637 9.58438 7.9709H9.55V6.84941H7.10293V15.0521H9.65098V10.9937Z" fill="white"/>
</svg>
