<svg width="81" height="81" viewBox="0 0 81 81" fill="none" xmlns="http://www.w3.org/2000/svg">
<path fill-rule="evenodd" clip-rule="evenodd" d="M65.1335 11.2814C66.3997 10.0151 68.4525 10.0151 69.7186 11.2814C70.9848 12.5474 70.9848 14.6004 69.7186 15.8665L60.875 24.71C59.6088 25.9761 57.556 25.9761 56.2899 24.71C55.0237 23.4438 55.0237 21.391 56.2899 20.1248L65.1335 11.2814ZM77.0785 30.9665C78.849 30.7489 80.4609 32.0079 80.6786 33.7784C80.8962 35.549 79.6372 37.1608 77.8667 37.3784L65.4531 38.9025C63.6826 39.1201 62.0707 37.8611 61.853 36.0906C61.6355 34.32 62.8944 32.7082 64.665 32.4906L77.0785 30.9665ZM43.6214 3.13327C43.8389 1.36271 45.4508 0.103766 47.2213 0.321316C48.9919 0.538867 50.251 2.15072 50.0333 3.92128L48.5091 16.3348C48.2916 18.1054 46.6797 19.3643 44.9092 19.1468C43.1386 18.9292 41.8795 17.3173 42.0972 15.5466L43.6214 3.13327Z" fill="#F27C1B"/>
<path fill-rule="evenodd" clip-rule="evenodd" d="M33.3396 47.6604C29.7691 44.0964 26.6044 40.1513 23.9146 35.8979C22.9323 34.3444 22.9427 32.478 23.9415 30.9357L27.7801 25.009C28.599 23.7439 28.7553 22.3005 28.2259 20.8898L21.623 3.29139C20.5889 0.535364 17.3164 -0.555146 14.8356 1.0298C11.7653 2.99165 8.69427 4.95349 5.62376 6.91534C1.41978 9.60149 -0.532018 14.4301 0.626091 19.2828C4.19039 34.2189 11.9645 47.6604 22.7093 58.2906C33.3396 69.0355 46.7809 76.8096 61.717 80.3737C66.5696 81.5319 71.3983 79.5801 74.0845 75.3761C76.0463 72.3056 78.0082 69.2346 79.97 66.1642C81.555 63.6834 80.4645 60.4108 77.7085 59.3769L60.1103 52.774C58.6995 52.2445 57.2562 52.4008 55.9911 53.2198L50.0644 57.0585C48.5221 58.0573 46.6558 58.0677 45.1023 57.0854C40.8487 54.3954 36.9036 51.2309 33.3396 47.6604Z" fill="#0096E6"/>
<path fill-rule="evenodd" clip-rule="evenodd" d="M67.1335 74.9576C52.1974 71.3933 38.7561 63.6192 28.1258 52.8744C17.3807 42.2441 9.60655 28.8028 6.04241 13.8665C5.39511 11.1543 5.71933 8.44947 6.86544 6.12207C6.45157 6.38647 6.03787 6.65087 5.62401 6.91527C1.42002 9.60142 -0.531774 14.43 0.626335 19.2828C4.19063 34.2189 11.9648 47.6603 22.7095 58.2905C33.3398 69.0354 46.7811 76.8095 61.7173 80.3737C66.5698 81.5318 71.3986 79.58 74.0847 75.376C74.3491 74.9621 74.6135 74.5484 74.8779 74.1346C72.5505 75.2807 69.8457 75.6049 67.1335 74.9576Z" fill="#0070C0"/>
</svg>
