<svg width="177" height="195" viewBox="0 0 177 195" fill="none" xmlns="http://www.w3.org/2000/svg">
<g filter="url(#filter0_d_1305_49502)">
<rect x="37" y="32.4033" width="120.705" height="120.597" rx="60.2984" fill="white"/>
<g filter="url(#filter1_f_1305_49502)">
<path fill-rule="evenodd" clip-rule="evenodd" d="M100.719 79.5635C100.589 79.4379 100.489 79.2859 100.427 79.1186C100.365 78.9513 100.341 78.7728 100.359 78.5958L101.065 71.4049C101.098 71.0867 101.259 70.7938 101.514 70.5905C101.769 70.3871 102.098 70.29 102.427 70.3203C102.756 70.3505 103.059 70.5058 103.27 70.752C103.481 70.9982 103.583 71.3153 103.552 71.6337L103.174 75.4816L111.176 67.7434C111.411 67.5234 111.727 67.4016 112.054 67.4043C112.382 67.407 112.695 67.534 112.927 67.7579C113.158 67.9819 113.29 68.2848 113.292 68.6015C113.295 68.9182 113.169 69.2234 112.942 69.4512L104.94 77.19L108.919 76.8239C109.249 76.7936 109.578 76.8912 109.833 77.0954C110.089 77.2995 110.25 77.5933 110.281 77.9123C110.312 78.2312 110.212 78.5492 110 78.7962C109.789 79.0431 109.486 79.1989 109.156 79.2292L101.72 79.9124C101.681 79.9161 101.641 79.9177 101.602 79.9177C101.438 79.9177 101.276 79.8865 101.124 79.8257C100.973 79.7649 100.835 79.6758 100.719 79.5635ZM117.422 94.2977C117.777 93.5483 117.833 92.6986 117.578 91.912C117.324 91.1254 116.778 90.4575 116.045 90.0369L109.92 86.5121C109.26 86.1314 108.488 85.9745 107.725 86.0663C106.963 86.158 106.253 86.4932 105.71 87.0186C104.971 87.732 104.383 88.2747 103.961 88.6327C103.867 88.7178 103.756 88.7823 103.634 88.8216C103.511 88.861 103.382 88.8743 103.254 88.8607C100.964 88.687 98.1059 87.1408 95.6083 84.7259C93.1108 82.3109 91.5121 79.5462 91.3319 77.3312C91.3179 77.2076 91.3316 77.0824 91.3722 76.9644C91.4128 76.8463 91.4794 76.7381 91.5672 76.6473C91.9378 76.2388 92.4994 75.6703 93.2366 74.9562C93.7798 74.4306 94.1263 73.7449 94.2212 73.0074C94.3162 72.27 94.1542 71.5231 93.7609 70.8847L90.1153 64.9608C89.6806 64.2522 88.9901 63.7241 88.1769 63.4782C87.3637 63.2324 86.4852 63.2861 85.7104 63.629L79.7909 66.2411C79.1194 66.5349 78.5632 67.0292 78.2041 67.6515C77.8449 68.2738 77.7017 68.9912 77.7956 69.6981C78.7938 77.3974 82.7987 84.9787 89.0722 91.0462C95.3458 97.1137 103.185 100.986 111.147 101.951C111.292 101.969 111.438 101.978 111.584 101.978C112.246 101.978 112.894 101.794 113.451 101.447C114.007 101.1 114.448 100.606 114.721 100.022L117.422 94.2977Z" fill="url(#paint0_linear_1305_49502)"/>
</g>
<path fill-rule="evenodd" clip-rule="evenodd" d="M100.719 79.5635C100.589 79.4379 100.489 79.2859 100.427 79.1186C100.365 78.9513 100.341 78.7728 100.359 78.5958L101.065 71.4049C101.098 71.0867 101.259 70.7938 101.514 70.5905C101.769 70.3871 102.098 70.29 102.427 70.3203C102.756 70.3505 103.059 70.5058 103.27 70.752C103.481 70.9982 103.583 71.3153 103.552 71.6337L103.174 75.4816L111.176 67.7434C111.411 67.5234 111.727 67.4016 112.054 67.4043C112.382 67.407 112.695 67.534 112.927 67.7579C113.158 67.9819 113.29 68.2848 113.292 68.6015C113.295 68.9182 113.169 69.2234 112.942 69.4512L104.94 77.19L108.919 76.8239C109.249 76.7936 109.578 76.8912 109.833 77.0954C110.089 77.2995 110.25 77.5933 110.281 77.9123C110.312 78.2312 110.212 78.5492 110 78.7962C109.789 79.0431 109.486 79.1989 109.156 79.2292L101.72 79.9124C101.681 79.9161 101.641 79.9177 101.602 79.9177C101.438 79.9177 101.276 79.8865 101.124 79.8257C100.973 79.7649 100.835 79.6758 100.719 79.5635ZM117.422 94.2977C117.777 93.5483 117.833 92.6986 117.578 91.912C117.324 91.1254 116.778 90.4575 116.045 90.0369L109.92 86.5121C109.26 86.1314 108.488 85.9745 107.725 86.0663C106.963 86.158 106.253 86.4932 105.71 87.0186C104.971 87.732 104.383 88.2747 103.961 88.6327C103.867 88.7178 103.756 88.7823 103.634 88.8216C103.511 88.861 103.382 88.8743 103.254 88.8607C100.964 88.687 98.1059 87.1408 95.6083 84.7259C93.1108 82.3109 91.5121 79.5462 91.3319 77.3312C91.3179 77.2076 91.3316 77.0824 91.3722 76.9644C91.4128 76.8463 91.4794 76.7381 91.5672 76.6473C91.9378 76.2388 92.4994 75.6703 93.2366 74.9562C93.7798 74.4306 94.1263 73.7449 94.2212 73.0074C94.3162 72.27 94.1542 71.5231 93.7609 70.8847L90.1153 64.9608C89.6806 64.2522 88.9901 63.7241 88.1769 63.4782C87.3637 63.2324 86.4852 63.2861 85.7104 63.629L79.7909 66.2411C79.1194 66.5349 78.5632 67.0292 78.2041 67.6515C77.8449 68.2738 77.7017 68.9912 77.7956 69.6981C78.7938 77.3974 82.7987 84.9787 89.0722 91.0462C95.3458 97.1137 103.185 100.986 111.147 101.951C111.292 101.969 111.438 101.978 111.584 101.978C112.246 101.978 112.894 101.794 113.451 101.447C114.007 101.1 114.448 100.606 114.721 100.022L117.422 94.2977Z" fill="url(#paint1_linear_1305_49502)"/>
<path d="M76.92 123.979C76.5803 123.979 76.2803 123.929 76.0201 123.828C75.7671 123.719 75.572 123.542 75.4347 123.296C75.2973 123.043 75.2287 122.707 75.2287 122.288V115.989H76.3237V122.126C76.3237 122.357 76.3635 122.538 76.443 122.668C76.5225 122.79 76.6273 122.874 76.7574 122.917C76.8875 122.96 77.0284 122.982 77.1802 122.982H79.9449V123.979H76.92ZM81.1289 117.203C80.9988 117.203 80.9338 117.142 80.9338 117.019V116.108C80.9338 115.978 80.9988 115.913 81.1289 115.913H81.9312C81.9891 115.913 82.0324 115.931 82.0613 115.967C82.0903 116.003 82.1047 116.05 82.1047 116.108V117.019C82.1047 117.142 82.0469 117.203 81.9312 117.203H81.1289ZM80.9771 123.979V118.179H82.0613V123.979H80.9771ZM85.1105 123.979L83.0071 118.179H84.1239L85.761 122.971L87.4307 118.179H88.5474L86.3682 123.979H85.1105ZM91.5658 124.045C90.9514 124.045 90.4599 123.954 90.0912 123.773C89.7298 123.593 89.4696 123.289 89.3106 122.863C89.1588 122.429 89.0829 121.833 89.0829 121.074C89.0829 120.3 89.1588 119.701 89.3106 119.274C89.4696 118.84 89.7298 118.537 90.0912 118.363C90.4526 118.19 90.9405 118.103 91.5549 118.103C92.0898 118.103 92.5199 118.161 92.8451 118.277C93.1776 118.385 93.4197 118.584 93.5715 118.873C93.7305 119.155 93.8101 119.549 93.8101 120.055C93.8101 120.409 93.7378 120.691 93.5932 120.9C93.4559 121.11 93.2571 121.262 92.9969 121.356C92.7439 121.45 92.4403 121.497 92.0862 121.497H90.1671C90.1744 121.916 90.2213 122.252 90.3081 122.505C90.402 122.751 90.5647 122.931 90.796 123.047C91.0345 123.155 91.3814 123.21 91.8368 123.21H93.6474V123.86C93.3366 123.904 93.0186 123.943 92.6933 123.979C92.3681 124.023 91.9922 124.045 91.5658 124.045ZM90.1563 120.814H91.9886C92.2777 120.814 92.4909 120.759 92.6283 120.651C92.7656 120.543 92.8343 120.344 92.8343 120.055C92.8343 119.766 92.7909 119.538 92.7042 119.372C92.6247 119.205 92.4909 119.086 92.303 119.014C92.1151 118.942 91.8657 118.905 91.5549 118.905C91.2007 118.905 90.9188 118.96 90.7092 119.068C90.5068 119.176 90.3623 119.368 90.2755 119.643C90.196 119.917 90.1563 120.308 90.1563 120.814ZM100.691 124.045C100.214 124.045 99.7984 123.99 99.4443 123.882C99.0901 123.773 98.7937 123.578 98.5552 123.296C98.3167 123.007 98.1396 122.595 98.024 122.06C97.9083 121.518 97.8505 120.817 97.8505 119.957C97.8505 119.148 97.9083 118.479 98.024 117.951C98.1468 117.424 98.3275 117.012 98.5661 116.715C98.8118 116.419 99.1154 116.213 99.4768 116.097C99.8382 115.982 100.257 115.924 100.734 115.924C101.002 115.924 101.277 115.938 101.558 115.967C101.848 115.996 102.122 116.036 102.382 116.086C102.65 116.13 102.888 116.18 103.098 116.238V117.062C102.968 117.041 102.791 117.019 102.567 116.997C102.343 116.968 102.09 116.947 101.808 116.932C101.526 116.91 101.233 116.9 100.93 116.9C100.568 116.9 100.261 116.943 100.008 117.03C99.7551 117.109 99.5491 117.261 99.3901 117.485C99.231 117.702 99.1154 118.013 99.0431 118.418C98.9708 118.815 98.9347 119.332 98.9347 119.968C98.9347 120.611 98.9672 121.139 99.0323 121.551C99.1046 121.956 99.2166 122.27 99.3684 122.494C99.5202 122.711 99.7226 122.863 99.9755 122.949C100.229 123.029 100.543 123.069 100.919 123.069C101.461 123.069 101.905 123.054 102.252 123.025C102.599 122.996 102.881 122.968 103.098 122.939V123.773C102.881 123.824 102.643 123.871 102.382 123.914C102.122 123.958 101.848 123.99 101.558 124.012C101.277 124.034 100.987 124.045 100.691 124.045ZM105.484 124.045C105.057 124.045 104.703 123.918 104.421 123.665C104.146 123.405 104.009 123.047 104.009 122.592V122.136C104.009 121.688 104.161 121.323 104.464 121.041C104.775 120.752 105.241 120.608 105.863 120.608H107.674V120C107.674 119.776 107.634 119.588 107.554 119.437C107.482 119.278 107.345 119.158 107.142 119.079C106.94 118.999 106.64 118.96 106.243 118.96H104.464V118.32C104.725 118.262 105.028 118.212 105.375 118.168C105.729 118.125 106.141 118.099 106.611 118.092C107.088 118.092 107.486 118.154 107.804 118.277C108.129 118.392 108.371 118.587 108.53 118.862C108.689 119.129 108.769 119.487 108.769 119.935V123.979H107.912L107.728 123.34C107.685 123.369 107.594 123.423 107.457 123.502C107.32 123.575 107.142 123.654 106.926 123.741C106.716 123.828 106.485 123.9 106.232 123.958C105.986 124.016 105.737 124.045 105.484 124.045ZM105.982 123.253C106.091 123.26 106.217 123.249 106.362 123.221C106.514 123.192 106.662 123.159 106.806 123.123C106.958 123.08 107.095 123.036 107.218 122.993C107.348 122.949 107.453 122.913 107.533 122.884C107.62 122.848 107.666 122.827 107.674 122.819V121.15L106.156 121.215C105.78 121.236 105.509 121.33 105.343 121.497C105.184 121.663 105.104 121.88 105.104 122.147V122.407C105.104 122.617 105.148 122.787 105.234 122.917C105.321 123.04 105.429 123.127 105.56 123.177C105.697 123.228 105.838 123.253 105.982 123.253ZM111.858 123.99C111.503 123.99 111.204 123.929 110.958 123.806C110.719 123.683 110.539 123.488 110.416 123.221C110.3 122.946 110.242 122.577 110.242 122.115V115.707H111.326V121.974C111.326 122.277 111.355 122.512 111.413 122.678C111.478 122.837 111.565 122.949 111.673 123.015C111.789 123.08 111.923 123.123 112.074 123.145L112.617 123.21V123.99H111.858ZM115.108 123.99C114.754 123.99 114.454 123.929 114.208 123.806C113.97 123.683 113.789 123.488 113.666 123.221C113.551 122.946 113.493 122.577 113.493 122.115V115.707H114.577V121.974C114.577 122.277 114.606 122.512 114.664 122.678C114.729 122.837 114.815 122.949 114.924 123.015C115.039 123.08 115.173 123.123 115.325 123.145L115.867 123.21V123.99H115.108ZM118.771 124.045C118.619 124.045 118.438 124.041 118.229 124.034C118.019 124.026 117.802 124.012 117.578 123.99C117.361 123.976 117.159 123.958 116.971 123.936C116.79 123.914 116.646 123.889 116.537 123.86V123.21H118.977C119.186 123.21 119.367 123.195 119.519 123.166C119.671 123.13 119.786 123.058 119.866 122.949C119.952 122.841 119.996 122.682 119.996 122.472V122.234C119.996 122.017 119.924 121.847 119.779 121.724C119.634 121.601 119.396 121.54 119.063 121.54H118.218C117.878 121.54 117.574 121.497 117.307 121.41C117.047 121.316 116.841 121.161 116.689 120.944C116.544 120.727 116.472 120.434 116.472 120.066V119.751C116.472 119.382 116.541 119.079 116.678 118.84C116.823 118.602 117.05 118.425 117.361 118.309C117.672 118.186 118.084 118.125 118.597 118.125C118.814 118.125 119.053 118.136 119.313 118.157C119.58 118.172 119.84 118.193 120.093 118.222C120.346 118.251 120.549 118.284 120.701 118.32V118.97H118.402C118.084 118.97 117.838 119.025 117.665 119.133C117.498 119.242 117.415 119.448 117.415 119.751V119.968C117.415 120.156 117.455 120.3 117.535 120.402C117.614 120.503 117.726 120.568 117.871 120.597C118.023 120.626 118.2 120.64 118.402 120.64H119.269C119.819 120.64 120.234 120.77 120.516 121.03C120.798 121.283 120.939 121.641 120.939 122.104V122.548C120.939 122.939 120.849 123.242 120.668 123.459C120.487 123.676 120.234 123.828 119.909 123.914C119.591 124.001 119.212 124.045 118.771 124.045Z" fill="#202020"/>
</g>
<defs>
<filter id="filter0_d_1305_49502" x="0.390285" y="0.36982" width="193.925" height="193.816" filterUnits="userSpaceOnUse" color-interpolation-filters="sRGB">
<feFlood flood-opacity="0" result="BackgroundImageFix"/>
<feColorMatrix in="SourceAlpha" type="matrix" values="0 0 0 0 0 0 0 0 0 0 0 0 0 0 0 0 0 0 127 0" result="hardAlpha"/>
<feOffset dy="4.57621"/>
<feGaussianBlur stdDeviation="18.3049"/>
<feComposite in2="hardAlpha" operator="out"/>
<feColorMatrix type="matrix" values="0 0 0 0 0 0 0 0 0 0 0 0 0 0 0 0 0 0 0.15 0"/>
<feBlend mode="normal" in2="BackgroundImageFix" result="effect1_dropShadow_1305_49502"/>
<feBlend mode="normal" in="SourceGraphic" in2="effect1_dropShadow_1305_49502" result="shape"/>
</filter>
<filter id="filter1_f_1305_49502" x="35.4009" y="20.9595" width="124.701" height="123.385" filterUnits="userSpaceOnUse" color-interpolation-filters="sRGB">
<feFlood flood-opacity="0" result="BackgroundImageFix"/>
<feBlend mode="normal" in="SourceGraphic" in2="BackgroundImageFix" result="shape"/>
<feGaussianBlur stdDeviation="21.1833" result="effect1_foregroundBlur_1305_49502"/>
</filter>
<linearGradient id="paint0_linear_1305_49502" x1="89.0722" y1="91.0461" x2="112.253" y2="67.0768" gradientUnits="userSpaceOnUse">
<stop stop-color="#E81E25"/>
<stop offset="0.108" stop-color="#EA3522"/>
<stop offset="0.416" stop-color="#F1711C"/>
<stop offset="0.678" stop-color="#F59D17"/>
<stop offset="0.881" stop-color="#F8B814"/>
<stop offset="1" stop-color="#F9C213"/>
</linearGradient>
<linearGradient id="paint1_linear_1305_49502" x1="89.0722" y1="91.0461" x2="112.253" y2="67.0768" gradientUnits="userSpaceOnUse">
<stop stop-color="#E81E25"/>
<stop offset="0.108" stop-color="#EA3522"/>
<stop offset="0.416" stop-color="#F1711C"/>
<stop offset="0.678" stop-color="#F59D17"/>
<stop offset="0.881" stop-color="#F8B814"/>
<stop offset="1" stop-color="#F9C213"/>
</linearGradient>
</defs>
</svg>
