<svg width="19" height="18" viewBox="0 0 19 18" fill="none" xmlns="http://www.w3.org/2000/svg">
<path fill-rule="evenodd" clip-rule="evenodd" d="M18.1655 0.633751C18.3828 0.851061 18.4564 1.17365 18.3549 1.46372L12.7549 17.4637C12.6465 17.7733 12.3602 17.9854 12.0324 17.9988C11.7047 18.0121 11.402 17.8241 11.2688 17.5243L8.19373 10.6055L1.2749 7.53049C0.975154 7.39727 0.787103 7.09457 0.800474 6.76683C0.813845 6.43908 1.02593 6.15271 1.33553 6.04435L17.3355 0.44435C17.6256 0.342825 17.9482 0.416441 18.1655 0.633751ZM9.75401 10.1766L11.9113 15.0306L15.6866 4.24399L9.75401 10.1766ZM14.5553 3.11261L3.76867 6.88792L8.62264 9.04524L14.5553 3.11261Z" fill="white"/>
</svg>
