<svg width="45" height="42" viewBox="0 0 45 42" fill="none" xmlns="http://www.w3.org/2000/svg">
<path d="M43.004 14.7325L29.9047 12.8288L24.049 0.95742C23.8891 0.63239 23.626 0.369271 23.301 0.209335C22.4858 -0.193083 21.4952 0.142266 21.0877 0.95742L15.232 12.8288L2.13273 14.7325C1.77158 14.7841 1.44139 14.9543 1.18859 15.2123C0.882968 15.5264 0.714556 15.949 0.72036 16.3873C0.726164 16.8255 0.90571 17.2435 1.21955 17.5494L10.697 26.7896L8.45791 39.8372C8.40541 40.1407 8.43899 40.4529 8.55486 40.7383C8.67074 41.0237 8.86426 41.2709 9.11349 41.4519C9.36271 41.6329 9.65767 41.7405 9.96492 41.7624C10.2722 41.7843 10.5794 41.7197 10.8518 41.5759L22.5683 35.4158L34.2849 41.5759C34.6048 41.7461 34.9762 41.8029 35.3322 41.7409C36.2299 41.5862 36.8336 40.7349 36.6788 39.8372L34.4397 26.7896L43.9171 17.5494C44.1751 17.2966 44.3454 16.9664 44.3969 16.6053C44.5362 15.7024 43.9068 14.8666 43.004 14.7325Z" fill="#FFB133"/>
</svg>
