<svg width="19" height="14" viewBox="0 0 19 14" fill="none" xmlns="http://www.w3.org/2000/svg">
<path fill-rule="evenodd" clip-rule="evenodd" d="M16.7789 0.999032C17.5622 1.21398 18.1791 1.84731 18.3885 2.65158C18.7689 4.10923 18.7689 7.15062 18.7689 7.15062C18.7689 7.15062 18.7689 10.1919 18.3885 11.6497C18.1791 12.4539 17.5622 13.0873 16.7789 13.3023C15.3594 13.6928 9.66668 13.6928 9.66668 13.6928C9.66668 13.6928 3.97396 13.6928 2.55432 13.3023C1.77101 13.0873 1.15413 12.4539 0.944781 11.6497C0.564453 10.1919 0.564453 7.15062 0.564453 7.15062C0.564453 7.15062 0.564453 4.10923 0.944781 2.65158C1.15413 1.84731 1.77101 1.21398 2.55432 0.999032C3.97396 0.608398 9.66668 0.608398 9.66668 0.608398C9.66668 0.608398 15.3594 0.608398 16.7789 0.999032ZM7.96003 4.59056V10.2795L12.5111 7.43511L7.96003 4.59056Z" fill="white"/>
</svg>
