<svg width="93" height="81" viewBox="0 0 93 81" fill="none" xmlns="http://www.w3.org/2000/svg">
<g opacity="0.4" filter="url(#filter0_f_704_25945)">
<path d="M69.0614 21.459H23.36C22.1856 21.459 21.2344 22.4103 21.2344 23.5846V54.2843C21.2344 55.4588 22.1856 56.4099 23.36 56.4099H24.933V57.7385C24.933 58.3231 25.4113 58.8014 25.9959 58.8014H30.6989C31.2834 58.8014 31.7618 58.3231 31.7618 57.7385V56.4099H60.66V57.7385C60.66 58.3231 61.1383 58.8014 61.7228 58.8014H66.4258C67.0104 58.8014 67.4887 58.3231 67.4887 57.7385V56.4099H69.0617C70.2361 56.4099 71.1873 55.4587 71.1873 54.2843V23.5846C71.1871 22.4103 70.2359 21.459 69.0614 21.459V21.459ZM46.2107 50.3436C39.9076 50.3436 34.7989 45.235 34.7989 38.9318C34.7989 32.6332 39.9076 27.5201 46.2107 27.5201C52.5139 27.5201 57.6225 32.6333 57.6225 38.9318C57.6225 45.235 52.5139 50.3436 46.2107 50.3436Z" fill="url(#paint0_linear_704_25945)"/>
</g>
<path d="M69.0614 21.459H23.36C22.1856 21.459 21.2344 22.4103 21.2344 23.5846V54.2843C21.2344 55.4588 22.1856 56.4099 23.36 56.4099H24.933V57.7385C24.933 58.3231 25.4113 58.8014 25.9959 58.8014H30.6989C31.2834 58.8014 31.7618 58.3231 31.7618 57.7385V56.4099H60.66V57.7385C60.66 58.3231 61.1383 58.8014 61.7228 58.8014H66.4258C67.0104 58.8014 67.4887 58.3231 67.4887 57.7385V56.4099H69.0617C70.2361 56.4099 71.1873 55.4587 71.1873 54.2843V23.5846C71.1871 22.4103 70.2359 21.459 69.0614 21.459V21.459ZM46.2107 50.3436C39.9076 50.3436 34.7989 45.235 34.7989 38.9318C34.7989 32.6332 39.9076 27.5201 46.2107 27.5201C52.5139 27.5201 57.6225 32.6333 57.6225 38.9318C57.6225 45.235 52.5139 50.3436 46.2107 50.3436Z" fill="url(#paint1_linear_704_25945)"/>
<path opacity="0.3" fill-rule="evenodd" clip-rule="evenodd" d="M22.5703 56.2588H69.8519C69.6077 56.3565 69.3411 56.4103 69.0619 56.4103H67.4889V57.7389C67.4889 58.3234 67.0106 58.8017 66.4261 58.8017H61.723C61.1385 58.8017 60.6602 58.3234 60.6602 57.7389V56.4103H31.762V57.7389C31.762 58.3234 31.2837 58.8017 30.6991 58.8017H25.9961C25.4115 58.8017 24.9333 58.3234 24.9333 57.7389V56.4103H23.3603C23.0811 56.4103 22.8145 56.3565 22.5703 56.2588Z" fill="#021132"/>
<g filter="url(#filter1_f_704_25945)">
<path d="M52.8077 36.7127H48.4289V32.3339C48.4289 31.7468 47.953 31.271 47.366 31.271H45.0491C44.4621 31.271 43.9862 31.7468 43.9862 32.3339V36.7127H39.6127C39.0257 36.7127 38.5498 37.1886 38.5498 37.7755V40.0924C38.5498 40.6794 39.0256 41.1553 39.6127 41.1553H43.9862V45.5288C43.9862 46.1158 44.462 46.5917 45.0491 46.5917H47.366C47.953 46.5917 48.4289 46.1159 48.4289 45.5288V41.1553H52.8077C53.3947 41.1553 53.8706 40.6795 53.8706 40.0924V37.7755C53.8706 37.1886 53.3947 36.7127 52.8077 36.7127V36.7127Z" fill="url(#paint2_linear_704_25945)"/>
</g>
<path d="M52.8077 36.7127H48.4289V32.3339C48.4289 31.7468 47.953 31.271 47.366 31.271H45.0491C44.4621 31.271 43.9862 31.7468 43.9862 32.3339V36.7127H39.6127C39.0257 36.7127 38.5498 37.1886 38.5498 37.7755V40.0924C38.5498 40.6794 39.0256 41.1553 39.6127 41.1553H43.9862V45.5288C43.9862 46.1158 44.462 46.5917 45.0491 46.5917H47.366C47.953 46.5917 48.4289 46.1159 48.4289 45.5288V41.1553H52.8077C53.3947 41.1553 53.8706 40.6795 53.8706 40.0924V37.7755C53.8706 37.1886 53.3947 36.7127 52.8077 36.7127V36.7127Z" fill="url(#paint3_linear_704_25945)"/>
<path d="M40.1521 16.9949C40.1521 16.7027 40.3913 16.4635 40.6835 16.4635H51.737C52.0292 16.4635 52.2684 16.7027 52.2684 16.9949V20.396H54.394V16.9949C54.394 15.5335 53.2037 14.3379 51.737 14.3379H40.6835C39.2168 14.3379 38.0265 15.5336 38.0265 16.9949V20.396H40.1521V16.9949Z" fill="#021132"/>
<defs>
<filter id="filter0_f_704_25945" x="0.0307026" y="0.255281" width="92.3603" height="79.7497" filterUnits="userSpaceOnUse" color-interpolation-filters="sRGB">
<feFlood flood-opacity="0" result="BackgroundImageFix"/>
<feBlend mode="normal" in="SourceGraphic" in2="BackgroundImageFix" result="shape"/>
<feGaussianBlur stdDeviation="10.6019" result="effect1_foregroundBlur_704_25945"/>
</filter>
<filter id="filter1_f_704_25945" x="24.9189" y="17.64" width="42.5827" height="42.5825" filterUnits="userSpaceOnUse" color-interpolation-filters="sRGB">
<feFlood flood-opacity="0" result="BackgroundImageFix"/>
<feBlend mode="normal" in="SourceGraphic" in2="BackgroundImageFix" result="shape"/>
<feGaussianBlur stdDeviation="6.81548" result="effect1_foregroundBlur_704_25945"/>
</filter>
<linearGradient id="paint0_linear_704_25945" x1="35.3632" y1="48.2401" x2="56.8551" y2="19.4911" gradientUnits="userSpaceOnUse">
<stop stop-color="#1E87E8"/>
<stop offset="0.108" stop-color="#228AEA"/>
<stop offset="0.416" stop-color="#1CBEF1"/>
<stop offset="0.678" stop-color="#17CDF5"/>
<stop offset="0.881" stop-color="#14CFF8"/>
<stop offset="1" stop-color="#13C2F9"/>
</linearGradient>
<linearGradient id="paint1_linear_704_25945" x1="35.3632" y1="48.2401" x2="56.8551" y2="19.4911" gradientUnits="userSpaceOnUse">
<stop stop-color="#1E87E8"/>
<stop offset="0.108" stop-color="#228AEA"/>
<stop offset="0.416" stop-color="#1CBEF1"/>
<stop offset="0.678" stop-color="#17CDF5"/>
<stop offset="0.881" stop-color="#14CFF8"/>
<stop offset="1" stop-color="#13C2F9"/>
</linearGradient>
<linearGradient id="paint2_linear_704_25945" x1="49.4828" y1="50.9838" x2="36.0709" y2="28.189" gradientUnits="userSpaceOnUse">
<stop stop-color="#E81E25"/>
<stop offset="0.108" stop-color="#EA3522"/>
<stop offset="0.416" stop-color="#F1711C"/>
<stop offset="0.678" stop-color="#F59D17"/>
<stop offset="0.881" stop-color="#F8B814"/>
<stop offset="1" stop-color="#F9C213"/>
</linearGradient>
<linearGradient id="paint3_linear_704_25945" x1="49.4828" y1="50.9838" x2="36.0709" y2="28.189" gradientUnits="userSpaceOnUse">
<stop stop-color="#E81E25"/>
<stop offset="0.108" stop-color="#EA3522"/>
<stop offset="0.416" stop-color="#F1711C"/>
<stop offset="0.678" stop-color="#F59D17"/>
<stop offset="0.881" stop-color="#F8B814"/>
<stop offset="1" stop-color="#F9C213"/>
</linearGradient>
</defs>
</svg>
