<svg width="21" height="22" viewBox="0 0 21 22" fill="none" xmlns="http://www.w3.org/2000/svg">
<path d="M9.92969 11C12.6911 11 14.9297 8.76142 14.9297 6C14.9297 3.23858 12.6911 1 9.92969 1C7.16826 1 4.92969 3.23858 4.92969 6C4.92969 8.76142 7.16826 11 9.92969 11Z" stroke="white" stroke-width="2"/>
<path d="M14.9297 21H3.19575C2.91213 21.0001 2.63174 20.9398 2.37319 20.8232C2.11465 20.7066 1.88385 20.5364 1.69612 20.3238C1.5084 20.1112 1.36804 19.8611 1.28435 19.5901C1.20067 19.3191 1.17558 19.0334 1.21075 18.752L1.60075 15.628C1.69144 14.9022 2.04416 14.2346 2.59258 13.7506C3.141 13.2667 3.84733 12.9997 4.57875 13H4.92975M16.9297 12V18M13.9297 15H19.9297" stroke="white" stroke-width="2" stroke-linecap="round" stroke-linejoin="round"/>
</svg>
