<svg width="38" height="38" viewBox="0 0 38 38" fill="none" xmlns="http://www.w3.org/2000/svg">
<path fill-rule="evenodd" clip-rule="evenodd" d="M12.5411 17.287C14.1671 17.287 15.7266 16.641 16.8764 15.4912C18.0263 14.3414 18.6722 12.7819 18.6722 11.1558C18.6722 9.52973 18.0263 7.97024 16.8764 6.82043C15.7266 5.67062 14.1671 5.02466 12.5411 5.02466C10.915 5.02466 9.3555 5.67062 8.20568 6.82043C7.05587 7.97024 6.40991 9.52973 6.40991 11.1558C6.40991 12.7819 7.05587 14.3414 8.20568 15.4912C9.3555 16.641 10.915 17.287 12.5411 17.287ZM12.5411 14.2214C13.3541 14.2214 14.1338 13.8984 14.7087 13.3235C15.2837 12.7486 15.6066 11.9688 15.6066 11.1558C15.6066 10.3428 15.2837 9.56302 14.7087 8.98812C14.1338 8.41321 13.3541 8.09023 12.5411 8.09023C11.728 8.09023 10.9483 8.41321 10.3734 8.98812C9.79847 9.56302 9.47549 10.3428 9.47549 11.1558C9.47549 11.9688 9.79847 12.7486 10.3734 13.3235C10.9483 13.8984 11.728 14.2214 12.5411 14.2214Z" fill="white"/>
<path d="M17.1393 21.8855C17.5458 21.8855 17.9357 22.047 18.2232 22.3345C18.5106 22.6219 18.6721 23.0118 18.6721 23.4183V32.615H21.7377V23.4183C21.7377 22.1987 21.2532 21.0291 20.3909 20.1668C19.5285 19.3044 18.3589 18.8199 17.1393 18.8199H7.9426C6.72304 18.8199 5.55343 19.3044 4.69107 20.1668C3.82871 21.0291 3.34424 22.1987 3.34424 23.4183V32.615H6.40981V23.4183C6.40981 23.0118 6.5713 22.6219 6.85876 22.3345C7.14621 22.047 7.53608 21.8855 7.9426 21.8855H17.1393ZM27.8688 11.156H30.9344V14.2216H34V17.2872H30.9344V20.3527H27.8688V17.2872H24.8033V14.2216H27.8688V11.156Z" fill="white"/>
</svg>
