<svg width="17" height="21" viewBox="0 0 17 21" fill="none" xmlns="http://www.w3.org/2000/svg">
<path d="M4.30484 6.08992C4.55547 6.08992 4.79584 5.99036 4.97306 5.81314C5.15028 5.63592 5.24984 5.39555 5.24984 5.14492C5.24984 4.89429 5.15028 4.65393 4.97306 4.47671C4.79584 4.29948 4.55547 4.19992 4.30484 4.19992C4.05421 4.19992 3.81385 4.29948 3.63663 4.47671C3.45941 4.65393 3.35984 4.89429 3.35984 5.14492C3.35984 5.39555 3.45941 5.63592 3.63663 5.81314C3.81385 5.99036 4.05421 6.08992 4.30484 6.08992ZM5.24984 8.92492C5.24984 9.17555 5.15028 9.41592 4.97306 9.59314C4.79584 9.77036 4.55547 9.86992 4.30484 9.86992C4.05421 9.86992 3.81385 9.77036 3.63663 9.59314C3.45941 9.41592 3.35984 9.17555 3.35984 8.92492C3.35984 8.67429 3.45941 8.43393 3.63663 8.25671C3.81385 8.07948 4.05421 7.97992 4.30484 7.97992C4.55547 7.97992 4.79584 8.07948 4.97306 8.25671C5.15028 8.43393 5.24984 8.67429 5.24984 8.92492ZM4.30484 13.6499C4.42894 13.6499 4.55183 13.6255 4.66648 13.578C4.78113 13.5305 4.88531 13.4609 4.97306 13.3731C5.06081 13.2854 5.13042 13.1812 5.17791 13.0666C5.2254 12.9519 5.24984 12.829 5.24984 12.7049C5.24984 12.5808 5.2254 12.4579 5.17791 12.3433C5.13042 12.2286 5.06081 12.1245 4.97306 12.0367C4.88531 11.949 4.78113 11.8793 4.66648 11.8319C4.55183 11.7844 4.42894 11.7599 4.30484 11.7599C4.05421 11.7599 3.81385 11.8595 3.63663 12.0367C3.45941 12.2139 3.35984 12.4543 3.35984 12.7049C3.35984 12.9556 3.45941 13.1959 3.63663 13.3731C3.81385 13.5504 4.05421 13.6499 4.30484 13.6499ZM9.02984 5.14492C9.02984 5.39555 8.93028 5.63592 8.75306 5.81314C8.57584 5.99036 8.33547 6.08992 8.08484 6.08992C7.83421 6.08992 7.59385 5.99036 7.41663 5.81314C7.23941 5.63592 7.13984 5.39555 7.13984 5.14492C7.13984 4.89429 7.23941 4.65393 7.41663 4.47671C7.59385 4.29948 7.83421 4.19992 8.08484 4.19992C8.33547 4.19992 8.57584 4.29948 8.75306 4.47671C8.93028 4.65393 9.02984 4.89429 9.02984 5.14492ZM8.08484 9.86992C8.33547 9.86992 8.57584 9.77036 8.75306 9.59314C8.93028 9.41592 9.02984 9.17555 9.02984 8.92492C9.02984 8.67429 8.93028 8.43393 8.75306 8.25671C8.57584 8.07948 8.33547 7.97992 8.08484 7.97992C7.83421 7.97992 7.59385 8.07948 7.41663 8.25671C7.23941 8.43393 7.13984 8.67429 7.13984 8.92492C7.13984 9.17555 7.23941 9.41592 7.41663 9.59314C7.59385 9.77036 7.83421 9.86992 8.08484 9.86992ZM9.02984 12.7049C9.02984 12.9556 8.93028 13.1959 8.75306 13.3731C8.57584 13.5504 8.33547 13.6499 8.08484 13.6499C7.83421 13.6499 7.59385 13.5504 7.41663 13.3731C7.23941 13.1959 7.13984 12.9556 7.13984 12.7049C7.13984 12.4543 7.23941 12.2139 7.41663 12.0367C7.59385 11.8595 7.83421 11.7599 8.08484 11.7599C8.33547 11.7599 8.57584 11.8595 8.75306 12.0367C8.93028 12.2139 9.02984 12.4543 9.02984 12.7049ZM11.8648 13.6499C11.9889 13.6499 12.1118 13.6255 12.2265 13.578C12.3411 13.5305 12.4453 13.4609 12.5331 13.3731C12.6208 13.2854 12.6904 13.1812 12.7379 13.0666C12.7854 12.9519 12.8098 12.829 12.8098 12.7049C12.8098 12.5808 12.7854 12.4579 12.7379 12.3433C12.6904 12.2286 12.6208 12.1245 12.5331 12.0367C12.4453 11.949 12.3411 11.8793 12.2265 11.8319C12.1118 11.7844 11.9889 11.7599 11.8648 11.7599C11.6142 11.7599 11.3738 11.8595 11.1966 12.0367C11.0194 12.2139 10.9198 12.4543 10.9198 12.7049C10.9198 12.9556 11.0194 13.1959 11.1966 13.3731C11.3738 13.5504 11.6142 13.6499 11.8648 13.6499ZM1.46984 20.5799C1.30276 20.5799 1.14251 20.5135 1.02437 20.3954C0.906219 20.2773 0.839844 20.117 0.839844 19.9499V2.30992C0.839844 1.80866 1.03897 1.32793 1.39341 0.97349C1.74786 0.619046 2.22858 0.419922 2.72984 0.419922H10.2898C10.7911 0.419922 11.2718 0.619046 11.6263 0.97349C11.9807 1.32793 12.1798 1.80866 12.1798 2.30992V7.97992H14.0698C14.5711 7.97992 15.0518 8.17905 15.4063 8.53349C15.7607 8.88793 15.9598 9.36866 15.9598 9.86992V19.9499C15.9598 20.117 15.8935 20.2773 15.7753 20.3954C15.6572 20.5135 15.4969 20.5799 15.3298 20.5799H1.46984ZM2.09984 2.30992V19.3199H4.61984V16.1699C4.61984 16.0028 4.68622 15.8426 4.80437 15.7244C4.92251 15.6063 5.08276 15.5399 5.24984 15.5399H11.5498C11.7169 15.5399 11.8772 15.6063 11.9953 15.7244C12.1135 15.8426 12.1798 16.0028 12.1798 16.1699V19.3199H14.6998V9.86992C14.6998 9.70284 14.6335 9.54259 14.5153 9.42444C14.3972 9.3063 14.2369 9.23992 14.0698 9.23992H11.5498C11.3828 9.23992 11.2225 9.17355 11.1044 9.0554C10.9862 8.93725 10.9198 8.77701 10.9198 8.60992V2.30992C10.9198 2.14284 10.8535 1.98259 10.7353 1.86444C10.6172 1.7463 10.4569 1.67992 10.2898 1.67992H2.72984C2.56276 1.67992 2.40251 1.7463 2.28437 1.86444C2.16622 1.98259 2.09984 2.14284 2.09984 2.30992ZM10.9198 16.7999H9.02984V19.3199H10.9198V16.7999ZM7.76984 16.7999H5.87984V19.3199H7.76984V16.7999Z" fill="white"/>
</svg>
