<svg width="15" height="15" viewBox="0 0 15 15" fill="none" xmlns="http://www.w3.org/2000/svg">
<path d="M13.5938 2.34375H1.40625C1.14697 2.34375 0.9375 2.55322 0.9375 2.8125V12.1875C0.9375 12.4468 1.14697 12.6562 1.40625 12.6562H13.5938C13.853 12.6562 14.0625 12.4468 14.0625 12.1875V2.8125C14.0625 2.55322 13.853 2.34375 13.5938 2.34375ZM1.99219 3.39844H13.0078V5.15625H1.99219V3.39844ZM13.0078 11.6016H1.99219V6.44531H13.0078V11.6016ZM9.53613 10.6641H11.9531C12.0176 10.6641 12.0703 10.6113 12.0703 10.5469V9.49219C12.0703 9.42773 12.0176 9.375 11.9531 9.375H9.53613C9.47168 9.375 9.41895 9.42773 9.41895 9.49219V10.5469C9.41895 10.6113 9.47168 10.6641 9.53613 10.6641Z" fill="#202020"/>
</svg>
