<svg width="18" height="12" viewBox="0 0 18 12" fill="none" xmlns="http://www.w3.org/2000/svg">
<path d="M17.7693 1.1846C17.6796 0.968575 17.508 0.796911 17.2919 0.7072C17.1856 0.661899 17.0715 0.637871 16.956 0.636475H12.5356C12.3012 0.636475 12.0763 0.729617 11.9105 0.895412C11.7447 1.06121 11.6516 1.28607 11.6516 1.52054C11.6516 1.75501 11.7447 1.97988 11.9105 2.14567C12.0763 2.31147 12.3012 2.40461 12.5356 2.40461H14.8254L9.88344 7.34655L6.97486 4.42913C6.89267 4.34627 6.79489 4.2805 6.68716 4.23561C6.57943 4.19073 6.46387 4.16762 6.34717 4.16762C6.23046 4.16762 6.11491 4.19073 6.00718 4.23561C5.89944 4.2805 5.80166 4.34627 5.71948 4.42913L0.41507 9.73354C0.332208 9.81572 0.266438 9.9135 0.221555 10.0212C0.176672 10.129 0.153564 10.2445 0.153564 10.3612C0.153564 10.4779 0.176672 10.5935 0.221555 10.7012C0.266438 10.8089 0.332208 10.9067 0.41507 10.9889C0.497256 11.0718 0.595035 11.1375 0.702767 11.1824C0.810499 11.2273 0.926051 11.2504 1.04276 11.2504C1.15947 11.2504 1.27502 11.2273 1.38275 11.1824C1.49048 11.1375 1.58826 11.0718 1.67045 10.9889L6.34717 6.30335L9.25575 9.22078C9.33794 9.30364 9.43572 9.36941 9.54345 9.41429C9.65118 9.45918 9.76673 9.48228 9.88344 9.48228C10.0001 9.48228 10.1157 9.45918 10.2234 9.41429C10.3312 9.36941 10.4289 9.30364 10.5111 9.22078L16.0719 3.65115V5.94088C16.0719 6.17535 16.1651 6.40022 16.3309 6.56601C16.4966 6.73181 16.7215 6.82495 16.956 6.82495C17.1905 6.82495 17.4153 6.73181 17.5811 6.56601C17.7469 6.40022 17.8401 6.17535 17.8401 5.94088V1.52054C17.8387 1.40502 17.8146 1.29088 17.7693 1.1846Z" fill="#45DE26"/>
</svg>
