<svg width="663" height="308" viewBox="0 0 663 308" fill="none" xmlns="http://www.w3.org/2000/svg">
<rect opacity="0.05" x="41.9138" y="70" width="614.418" height="1" fill="#E7E8F2"/>
<rect opacity="0.05" x="41.9138" y="111" width="614.418" height="1" fill="#E7E8F2"/>
<rect opacity="0.05" x="41.9138" y="152" width="614.418" height="1" fill="#E7E8F2"/>
<rect opacity="0.05" x="41.9138" y="193" width="614.418" height="1" fill="#E7E8F2"/>
<rect opacity="0.05" x="41.9138" y="234" width="614.418" height="1" fill="#E7E8F2"/>
<rect x="41.9138" y="275" width="614.418" height="1" fill="#E7E8F2"/>
<path d="M56.2029 85C56.2029 82.7909 57.9937 81 60.2029 81H73.0865C75.2956 81 77.0865 82.7909 77.0865 85V276H56.2029V85Z" fill="#0096E6"/>
<path d="M89.6166 202.085C89.6166 199.876 91.4074 198.085 93.6166 198.085H106.5C108.709 198.085 110.5 199.876 110.5 202.085V276H89.6166V202.085Z" fill="#3A70A2" fill-opacity="0.3"/>
<path d="M153.469 125C153.469 122.791 155.26 121 157.469 121H170.352C172.562 121 174.352 122.791 174.352 125V276H153.469V125Z" fill="#0096E6"/>
<path d="M186.882 227.479C186.882 225.27 188.673 223.479 190.882 223.479H203.766C205.975 223.479 207.766 225.27 207.766 227.479V276H186.882V227.479Z" fill="#3A70A2" fill-opacity="0.3"/>
<path d="M259.206 153.086C259.206 150.877 260.996 149.086 263.206 149.086H276.089C278.298 149.086 280.089 150.877 280.089 153.086V276H259.206V153.086Z" fill="#0096E6"/>
<path d="M293 247C293 244.791 294.791 243 297 243H310C312.209 243 314 244.791 314 247V276H293V247Z" fill="#0F2F63"/>
<path d="M366.848 220.885C366.848 218.676 368.639 216.885 370.848 216.885H383.731C385.941 216.885 387.731 218.676 387.731 220.885V276H366.848V220.885Z" fill="#0096E6"/>
<path d="M400.339 265C400.339 262.791 402.129 261 404.339 261H417.072C419.281 261 421.072 262.791 421.072 265V276H400.339V265Z" fill="#3A70A2" fill-opacity="0.3"/>
<path d="M472.904 83C472.904 80.7909 474.694 79 476.904 79H489.636C491.846 79 493.636 80.7909 493.636 83V276H472.904V83Z" fill="#0096E6"/>
<path d="M505.888 260C505.888 257.791 507.679 256 509.888 256H522.621C524.83 256 526.621 257.791 526.621 260V276H505.888V260Z" fill="#3A70A2" fill-opacity="0.3"/>
<path d="M579.395 148C579.395 145.791 581.186 144 583.395 144H596.128C598.337 144 600.128 145.791 600.128 148V276H579.395V148Z" fill="#0096E6"/>
<path d="M612.38 260C612.38 257.791 614.17 256 616.38 256H629.112C631.322 256 633.112 257.791 633.112 260V276H612.38V260Z" fill="#3A70A2" fill-opacity="0.3"/>
<path opacity="0.402121" d="M3.85727 65.549L3.70127 65.081L4.15627 64.288L4.31227 64.73L3.85727 65.549ZM3.70127 76.157V74.922L4.31227 74.935V76.157H3.70127ZM3.94827 75.078C3.7576 75.078 3.52793 75.0693 3.25927 75.052C2.99927 75.0433 2.7306 75.026 2.45327 75C2.17593 74.9827 1.9116 74.961 1.66027 74.935C1.4176 74.909 1.21393 74.8787 1.04927 74.844V74.051C1.26593 74.0683 1.53027 74.0857 1.84227 74.103C2.15427 74.1203 2.48793 74.1333 2.84327 74.142C3.20727 74.1507 3.5626 74.155 3.90927 74.155C4.29927 74.155 4.65027 74.116 4.96227 74.038C5.27427 73.96 5.52127 73.817 5.70327 73.609C5.89393 73.401 5.98927 73.102 5.98927 72.712V72.062C5.98927 71.62 5.8766 71.2863 5.65127 71.061C5.42593 70.827 5.06193 70.71 4.55927 70.71H3.53227C2.7436 70.71 2.12393 70.5367 1.67327 70.19C1.23127 69.8433 1.01027 69.2453 1.01027 68.396V67.85C1.01027 66.9487 1.25293 66.3073 1.73827 65.926C2.2236 65.5447 2.90827 65.354 3.79227 65.354C4.0696 65.354 4.3816 65.3713 4.72827 65.406C5.07493 65.432 5.4086 65.4667 5.72927 65.51C6.0586 65.5447 6.3316 65.5837 6.54827 65.627V66.42C6.16693 66.3853 5.7336 66.355 5.24827 66.329C4.7716 66.303 4.32093 66.29 3.89627 66.29C3.50627 66.29 3.16827 66.3377 2.88227 66.433C2.59627 66.5197 2.37527 66.68 2.21927 66.914C2.07193 67.1393 1.99827 67.4643 1.99827 67.889V68.331C1.99827 68.8597 2.13693 69.2237 2.41427 69.423C2.6916 69.6223 3.07727 69.722 3.57127 69.722H4.67627C5.20493 69.722 5.63827 69.8173 5.97627 70.008C6.31427 70.1987 6.5656 70.463 6.73027 70.801C6.89493 71.1303 6.97727 71.5117 6.97727 71.945V72.686C6.97727 73.3273 6.8386 73.8213 6.56127 74.168C6.2926 74.5147 5.9286 74.753 5.46927 74.883C5.0186 75.013 4.5116 75.078 3.94827 75.078ZM12.5461 75.065C11.9568 75.065 11.3718 75.052 10.7911 75.026C10.2105 75 9.69047 74.9653 9.23114 74.922V74.129H12.5591C12.9491 74.129 13.2871 74.0683 13.5731 73.947C13.8591 73.817 14.0801 73.635 14.2361 73.401C14.4008 73.1583 14.4831 72.8767 14.4831 72.556V71.516C14.4831 71.0653 14.3531 70.7143 14.0931 70.463C13.8331 70.203 13.4345 70.073 12.8971 70.073H11.8701C11.4801 70.073 11.1681 70.1597 10.9341 70.333C10.7001 70.5063 10.5485 70.7837 10.4791 71.165H9.50414L9.77714 65.432H15.1981V66.368H10.6741L10.5051 69.878C10.6091 69.7047 10.7911 69.5487 11.0511 69.41C11.3198 69.2627 11.6578 69.189 12.0651 69.189H13.2091C13.7118 69.189 14.1321 69.2843 14.4701 69.475C14.8081 69.657 15.0681 69.9127 15.2501 70.242C15.4321 70.5627 15.5231 70.9267 15.5231 71.334V72.751C15.5231 73.271 15.3975 73.7043 15.1461 74.051C14.8948 74.389 14.5481 74.6447 14.1061 74.818C13.6641 74.9827 13.1441 75.065 12.5461 75.065ZM19.7076 75.026C19.2483 75.026 18.8366 74.948 18.4726 74.792C18.1173 74.6273 17.8356 74.3803 17.6276 74.051C17.4283 73.713 17.3286 73.2797 17.3286 72.751V67.681C17.3286 67.1697 17.4283 66.745 17.6276 66.407C17.8356 66.0603 18.1173 65.8003 18.4726 65.627C18.8366 65.445 19.2483 65.354 19.7076 65.354H21.5666C22.104 65.354 22.5416 65.4537 22.8796 65.653C23.2176 65.8437 23.4646 66.1123 23.6206 66.459C23.7853 66.8057 23.8676 67.213 23.8676 67.681V72.751C23.8676 73.5397 23.6553 74.116 23.2306 74.48C22.8146 74.844 22.26 75.026 21.5666 75.026H19.7076ZM19.9026 74.103H21.3326C21.8613 74.103 22.2426 73.973 22.4766 73.713C22.7106 73.4443 22.8276 73.0803 22.8276 72.621V67.759C22.8276 67.265 22.702 66.8967 22.4506 66.654C22.208 66.4113 21.8483 66.29 21.3716 66.29H19.8766C19.4086 66.29 19.0403 66.42 18.7716 66.68C18.503 66.9313 18.3686 67.291 18.3686 67.759V72.621C18.3686 73.115 18.503 73.4877 18.7716 73.739C19.049 73.9817 19.426 74.103 19.9026 74.103ZM25.8472 75V65.081H26.8742V70.827H27.8622L29.9812 68.058H31.0732L28.6292 71.295L31.2292 75H30.1372L27.8232 71.75H26.8742V75H25.8472Z" fill="white"/>
<path opacity="0.402121" d="M4.3143 105.549L4.1583 105.081L4.6133 104.288L4.7693 104.73L4.3143 105.549ZM4.1583 116.157V114.922L4.7693 114.935V116.157H4.1583ZM4.4053 115.078C4.21463 115.078 3.98496 115.069 3.7163 115.052C3.4563 115.043 3.18763 115.026 2.9103 115C2.63296 114.983 2.36863 114.961 2.1173 114.935C1.87463 114.909 1.67096 114.879 1.5063 114.844V114.051C1.72296 114.068 1.9873 114.086 2.2993 114.103C2.6113 114.12 2.94496 114.133 3.3003 114.142C3.6643 114.151 4.01963 114.155 4.3663 114.155C4.7563 114.155 5.1073 114.116 5.4193 114.038C5.7313 113.96 5.9783 113.817 6.1603 113.609C6.35096 113.401 6.4463 113.102 6.4463 112.712V112.062C6.4463 111.62 6.33363 111.286 6.1083 111.061C5.88296 110.827 5.51896 110.71 5.0163 110.71H3.9893C3.20063 110.71 2.58096 110.537 2.1303 110.19C1.6883 109.843 1.4673 109.245 1.4673 108.396V107.85C1.4673 106.949 1.70996 106.307 2.1953 105.926C2.68063 105.545 3.3653 105.354 4.2493 105.354C4.52663 105.354 4.83863 105.371 5.1853 105.406C5.53196 105.432 5.86563 105.467 6.1863 105.51C6.51563 105.545 6.78863 105.584 7.0053 105.627V106.42C6.62396 106.385 6.19063 106.355 5.7053 106.329C5.22863 106.303 4.77796 106.29 4.3533 106.29C3.9633 106.29 3.6253 106.338 3.3393 106.433C3.0533 106.52 2.8323 106.68 2.6763 106.914C2.52896 107.139 2.4553 107.464 2.4553 107.889V108.331C2.4553 108.86 2.59396 109.224 2.8713 109.423C3.14863 109.622 3.5343 109.722 4.0283 109.722H5.1333C5.66196 109.722 6.0953 109.817 6.4333 110.008C6.7713 110.199 7.02263 110.463 7.1873 110.801C7.35196 111.13 7.4343 111.512 7.4343 111.945V112.686C7.4343 113.327 7.29563 113.821 7.0183 114.168C6.74963 114.515 6.38563 114.753 5.9263 114.883C5.47563 115.013 4.96863 115.078 4.4053 115.078ZM13.6922 114.987V112.556H9.18117L8.94717 111.997L12.5482 105.432H13.6142L10.1432 111.672H13.6922V109.124L13.9132 108.24H14.7192V111.672H16.0322V112.387L14.7192 112.556V114.987H13.6922ZM19.7076 115.026C19.2483 115.026 18.8366 114.948 18.4726 114.792C18.1173 114.627 17.8356 114.38 17.6276 114.051C17.4283 113.713 17.3286 113.28 17.3286 112.751V107.681C17.3286 107.17 17.4283 106.745 17.6276 106.407C17.8356 106.06 18.1173 105.8 18.4726 105.627C18.8366 105.445 19.2483 105.354 19.7076 105.354H21.5666C22.104 105.354 22.5416 105.454 22.8796 105.653C23.2176 105.844 23.4646 106.112 23.6206 106.459C23.7853 106.806 23.8676 107.213 23.8676 107.681V112.751C23.8676 113.54 23.6553 114.116 23.2306 114.48C22.8146 114.844 22.26 115.026 21.5666 115.026H19.7076ZM19.9026 114.103H21.3326C21.8613 114.103 22.2426 113.973 22.4766 113.713C22.7106 113.444 22.8276 113.08 22.8276 112.621V107.759C22.8276 107.265 22.702 106.897 22.4506 106.654C22.208 106.411 21.8483 106.29 21.3716 106.29H19.8766C19.4086 106.29 19.0403 106.42 18.7716 106.68C18.503 106.931 18.3686 107.291 18.3686 107.759V112.621C18.3686 113.115 18.503 113.488 18.7716 113.739C19.049 113.982 19.426 114.103 19.9026 114.103ZM25.8472 115V105.081H26.8742V110.827H27.8622L29.9812 108.058H31.0732L28.6292 111.295L31.2292 115H30.1372L27.8232 111.75H26.8742V115H25.8472Z" fill="white"/>
<path opacity="0.402121" d="M4.44125 147.549L4.28525 147.081L4.74025 146.288L4.89625 146.73L4.44125 147.549ZM4.28525 158.157V156.922L4.89625 156.935V158.157H4.28525ZM4.53225 157.078C4.34158 157.078 4.11192 157.069 3.84325 157.052C3.58325 157.043 3.31458 157.026 3.03725 157C2.75992 156.983 2.49558 156.961 2.24425 156.935C2.00158 156.909 1.79792 156.879 1.63325 156.844V156.051C1.84992 156.068 2.11425 156.086 2.42625 156.103C2.73825 156.12 3.07192 156.133 3.42725 156.142C3.79125 156.151 4.14658 156.155 4.49325 156.155C4.88325 156.155 5.23425 156.116 5.54625 156.038C5.85825 155.96 6.10525 155.817 6.28725 155.609C6.47792 155.401 6.57325 155.102 6.57325 154.712V154.062C6.57325 153.62 6.46058 153.286 6.23525 153.061C6.00992 152.827 5.64592 152.71 5.14325 152.71H4.11625C3.32758 152.71 2.70792 152.537 2.25725 152.19C1.81525 151.843 1.59425 151.245 1.59425 150.396V149.85C1.59425 148.949 1.83692 148.307 2.32225 147.926C2.80758 147.545 3.49225 147.354 4.37625 147.354C4.65358 147.354 4.96558 147.371 5.31225 147.406C5.65892 147.432 5.99258 147.467 6.31325 147.51C6.64258 147.545 6.91558 147.584 7.13225 147.627V148.42C6.75092 148.385 6.31758 148.355 5.83225 148.329C5.35558 148.303 4.90492 148.29 4.48025 148.29C4.09025 148.29 3.75225 148.338 3.46625 148.433C3.18025 148.52 2.95925 148.68 2.80325 148.914C2.65592 149.139 2.58225 149.464 2.58225 149.889V150.331C2.58225 150.86 2.72092 151.224 2.99825 151.423C3.27558 151.622 3.66125 151.722 4.15525 151.722H5.26025C5.78892 151.722 6.22225 151.817 6.56025 152.008C6.89825 152.199 7.14958 152.463 7.31425 152.801C7.47892 153.13 7.56125 153.512 7.56125 153.945V154.686C7.56125 155.327 7.42258 155.821 7.14525 156.168C6.87658 156.515 6.51258 156.753 6.05325 156.883C5.60258 157.013 5.09558 157.078 4.53225 157.078ZM12.7661 157.078C12.0815 157.078 11.4401 157.061 10.8421 157.026C10.2528 157 9.73713 156.961 9.29513 156.909V156.116H12.4281C12.8008 156.116 13.1345 156.077 13.4291 155.999C13.7238 155.921 13.9535 155.778 14.1181 155.57C14.2915 155.353 14.3781 155.05 14.3781 154.66V154.023C14.3781 153.685 14.2915 153.416 14.1181 153.217C13.9535 153.018 13.7455 152.875 13.4941 152.788C13.2428 152.701 12.9828 152.654 12.7141 152.645L10.2571 152.554V151.8L12.6751 151.696C13.1431 151.679 13.5201 151.579 13.8061 151.397C14.1008 151.206 14.2481 150.89 14.2481 150.448V149.811C14.2481 149.334 14.0878 148.97 13.7671 148.719C13.4551 148.459 12.9828 148.329 12.3501 148.329H9.62013V147.536C10.0188 147.484 10.4738 147.441 10.9851 147.406C11.5051 147.371 12.0858 147.354 12.7271 147.354C13.2991 147.363 13.7715 147.462 14.1441 147.653C14.5255 147.835 14.8071 148.095 14.9891 148.433C15.1711 148.762 15.2621 149.152 15.2621 149.603V150.422C15.2621 150.717 15.2145 150.972 15.1191 151.189C15.0325 151.397 14.9155 151.57 14.7681 151.709C14.6295 151.848 14.4778 151.956 14.3131 152.034C14.1571 152.103 14.0141 152.151 13.8841 152.177C14.0315 152.212 14.1918 152.277 14.3651 152.372C14.5385 152.459 14.7031 152.58 14.8591 152.736C15.0238 152.892 15.1581 153.087 15.2621 153.321C15.3661 153.555 15.4181 153.832 15.4181 154.153V154.816C15.4181 155.553 15.1841 156.116 14.7161 156.506C14.2568 156.887 13.6068 157.078 12.7661 157.078ZM19.7076 157.026C19.2483 157.026 18.8366 156.948 18.4726 156.792C18.1173 156.627 17.8356 156.38 17.6276 156.051C17.4283 155.713 17.3286 155.28 17.3286 154.751V149.681C17.3286 149.17 17.4283 148.745 17.6276 148.407C17.8356 148.06 18.1173 147.8 18.4726 147.627C18.8366 147.445 19.2483 147.354 19.7076 147.354H21.5666C22.104 147.354 22.5416 147.454 22.8796 147.653C23.2176 147.844 23.4646 148.112 23.6206 148.459C23.7853 148.806 23.8676 149.213 23.8676 149.681V154.751C23.8676 155.54 23.6553 156.116 23.2306 156.48C22.8146 156.844 22.26 157.026 21.5666 157.026H19.7076ZM19.9026 156.103H21.3326C21.8613 156.103 22.2426 155.973 22.4766 155.713C22.7106 155.444 22.8276 155.08 22.8276 154.621V149.759C22.8276 149.265 22.702 148.897 22.4506 148.654C22.208 148.411 21.8483 148.29 21.3716 148.29H19.8766C19.4086 148.29 19.0403 148.42 18.7716 148.68C18.503 148.931 18.3686 149.291 18.3686 149.759V154.621C18.3686 155.115 18.503 155.488 18.7716 155.739C19.049 155.982 19.426 156.103 19.9026 156.103ZM25.8472 157V147.081H26.8742V152.827H27.8622L29.9812 150.058H31.0732L28.6292 153.295L31.2292 157H30.1372L27.8232 153.75H26.8742V157H25.8472Z" fill="white"/>
<path opacity="0.402121" d="M4.33969 188.549L4.18369 188.081L4.63869 187.288L4.79469 187.73L4.33969 188.549ZM4.18369 199.157V197.922L4.79469 197.935V199.157H4.18369ZM4.43069 198.078C4.24002 198.078 4.01036 198.069 3.74169 198.052C3.48169 198.043 3.21302 198.026 2.93569 198C2.65836 197.983 2.39402 197.961 2.14269 197.935C1.90002 197.909 1.69636 197.879 1.53169 197.844V197.051C1.74836 197.068 2.01269 197.086 2.32469 197.103C2.63669 197.12 2.97036 197.133 3.32569 197.142C3.68969 197.151 4.04502 197.155 4.39169 197.155C4.78169 197.155 5.13269 197.116 5.44469 197.038C5.75669 196.96 6.00369 196.817 6.18569 196.609C6.37636 196.401 6.47169 196.102 6.47169 195.712V195.062C6.47169 194.62 6.35902 194.286 6.13369 194.061C5.90836 193.827 5.54436 193.71 5.04169 193.71H4.01469C3.22602 193.71 2.60636 193.537 2.15569 193.19C1.71369 192.843 1.49269 192.245 1.49269 191.396V190.85C1.49269 189.949 1.73536 189.307 2.22069 188.926C2.70602 188.545 3.39069 188.354 4.27469 188.354C4.55202 188.354 4.86402 188.371 5.21069 188.406C5.55736 188.432 5.89102 188.467 6.21169 188.51C6.54102 188.545 6.81402 188.584 7.03069 188.627V189.42C6.64936 189.385 6.21602 189.355 5.73069 189.329C5.25402 189.303 4.80336 189.29 4.37869 189.29C3.98869 189.29 3.65069 189.338 3.36469 189.433C3.07869 189.52 2.85769 189.68 2.70169 189.914C2.55436 190.139 2.48069 190.464 2.48069 190.889V191.331C2.48069 191.86 2.61936 192.224 2.89669 192.423C3.17402 192.622 3.55969 192.722 4.05369 192.722H5.15869C5.68736 192.722 6.12069 192.817 6.45869 193.008C6.79669 193.199 7.04802 193.463 7.21269 193.801C7.37736 194.13 7.45969 194.512 7.45969 194.945V195.686C7.45969 196.327 7.32102 196.821 7.04369 197.168C6.77502 197.515 6.41102 197.753 5.95169 197.883C5.50102 198.013 4.99402 198.078 4.43069 198.078ZM9.33656 198V197.155L12.8726 193.762C13.2366 193.424 13.5226 193.108 13.7306 192.813C13.9472 192.518 14.1032 192.224 14.1986 191.929C14.2939 191.626 14.3416 191.296 14.3416 190.941C14.3416 190.629 14.2809 190.352 14.1596 190.109C14.0469 189.866 13.8432 189.676 13.5486 189.537C13.2539 189.398 12.8292 189.329 12.2746 189.329H9.67456V188.536C10.0732 188.493 10.5109 188.454 10.9876 188.419C11.4729 188.376 11.9756 188.354 12.4956 188.354C13.2236 188.354 13.7956 188.458 14.2116 188.666C14.6362 188.874 14.9352 189.164 15.1086 189.537C15.2819 189.901 15.3686 190.33 15.3686 190.824C15.3686 191.266 15.3079 191.673 15.1866 192.046C15.0739 192.419 14.8919 192.783 14.6406 193.138C14.3892 193.493 14.0642 193.862 13.6656 194.243L10.7406 197.051H15.7196V198H9.33656ZM19.7076 198.026C19.2483 198.026 18.8366 197.948 18.4726 197.792C18.1173 197.627 17.8356 197.38 17.6276 197.051C17.4283 196.713 17.3286 196.28 17.3286 195.751V190.681C17.3286 190.17 17.4283 189.745 17.6276 189.407C17.8356 189.06 18.1173 188.8 18.4726 188.627C18.8366 188.445 19.2483 188.354 19.7076 188.354H21.5666C22.104 188.354 22.5416 188.454 22.8796 188.653C23.2176 188.844 23.4646 189.112 23.6206 189.459C23.7853 189.806 23.8676 190.213 23.8676 190.681V195.751C23.8676 196.54 23.6553 197.116 23.2306 197.48C22.8146 197.844 22.26 198.026 21.5666 198.026H19.7076ZM19.9026 197.103H21.3326C21.8613 197.103 22.2426 196.973 22.4766 196.713C22.7106 196.444 22.8276 196.08 22.8276 195.621V190.759C22.8276 190.265 22.702 189.897 22.4506 189.654C22.208 189.411 21.8483 189.29 21.3716 189.29H19.8766C19.4086 189.29 19.0403 189.42 18.7716 189.68C18.503 189.931 18.3686 190.291 18.3686 190.759V195.621C18.3686 196.115 18.503 196.488 18.7716 196.739C19.049 196.982 19.426 197.103 19.9026 197.103ZM25.8472 198V188.081H26.8742V193.827H27.8622L29.9812 191.058H31.0732L28.6292 194.295L31.2292 198H30.1372L27.8232 194.75H26.8742V198H25.8472Z" fill="white"/>
<path opacity="0.402121" d="M7.33564 229.549L7.17964 229.081L7.63464 228.288L7.79064 228.73L7.33564 229.549ZM7.17964 240.157V238.922L7.79064 238.935V240.157H7.17964ZM7.42664 239.078C7.23597 239.078 7.00631 239.069 6.73764 239.052C6.47764 239.043 6.20897 239.026 5.93164 239C5.65431 238.983 5.38997 238.961 5.13864 238.935C4.89597 238.909 4.69231 238.879 4.52764 238.844V238.051C4.74431 238.068 5.00864 238.086 5.32064 238.103C5.63264 238.12 5.96631 238.133 6.32164 238.142C6.68564 238.151 7.04097 238.155 7.38764 238.155C7.77764 238.155 8.12864 238.116 8.44064 238.038C8.75264 237.96 8.99964 237.817 9.18164 237.609C9.37231 237.401 9.46764 237.102 9.46764 236.712V236.062C9.46764 235.62 9.35497 235.286 9.12964 235.061C8.90431 234.827 8.54031 234.71 8.03764 234.71H7.01064C6.22197 234.71 5.60231 234.537 5.15164 234.19C4.70964 233.843 4.48864 233.245 4.48864 232.396V231.85C4.48864 230.949 4.73131 230.307 5.21664 229.926C5.70197 229.545 6.38664 229.354 7.27064 229.354C7.54797 229.354 7.85997 229.371 8.20664 229.406C8.55331 229.432 8.88697 229.467 9.20764 229.51C9.53697 229.545 9.80997 229.584 10.0266 229.627V230.42C9.64531 230.385 9.21197 230.355 8.72664 230.329C8.24997 230.303 7.79931 230.29 7.37464 230.29C6.98464 230.29 6.64664 230.338 6.36064 230.433C6.07464 230.52 5.85364 230.68 5.69764 230.914C5.55031 231.139 5.47664 231.464 5.47664 231.889V232.331C5.47664 232.86 5.61531 233.224 5.89264 233.423C6.16997 233.622 6.55564 233.722 7.04964 233.722H8.15464C8.68331 233.722 9.11664 233.817 9.45464 234.008C9.79264 234.199 10.044 234.463 10.2086 234.801C10.3733 235.13 10.4556 235.512 10.4556 235.945V236.686C10.4556 237.327 10.317 237.821 10.0396 238.168C9.77097 238.515 9.40697 238.753 8.94764 238.883C8.49697 239.013 7.98997 239.078 7.42664 239.078ZM14.1655 239V230.355L12.2025 230.888V230.225L14.2565 229.341H15.2055V239H14.1655ZM19.7075 239.026C19.2481 239.026 18.8365 238.948 18.4725 238.792C18.1171 238.627 17.8355 238.38 17.6275 238.051C17.4281 237.713 17.3285 237.28 17.3285 236.751V231.681C17.3285 231.17 17.4281 230.745 17.6275 230.407C17.8355 230.06 18.1171 229.8 18.4725 229.627C18.8365 229.445 19.2481 229.354 19.7075 229.354H21.5665C22.1038 229.354 22.5415 229.454 22.8795 229.653C23.2175 229.844 23.4645 230.112 23.6205 230.459C23.7851 230.806 23.8675 231.213 23.8675 231.681V236.751C23.8675 237.54 23.6551 238.116 23.2305 238.48C22.8145 238.844 22.2598 239.026 21.5665 239.026H19.7075ZM19.9025 238.103H21.3325C21.8611 238.103 22.2425 237.973 22.4765 237.713C22.7105 237.444 22.8275 237.08 22.8275 236.621V231.759C22.8275 231.265 22.7018 230.897 22.4505 230.654C22.2078 230.411 21.8481 230.29 21.3715 230.29H19.8765C19.4085 230.29 19.0401 230.42 18.7715 230.68C18.5028 230.931 18.3685 231.291 18.3685 231.759V236.621C18.3685 237.115 18.5028 237.488 18.7715 237.739C19.0488 237.982 19.4258 238.103 19.9025 238.103ZM25.847 239V229.081H26.874V234.827H27.862L29.981 232.058H31.073L28.629 235.295L31.229 239H30.137L27.823 235.75H26.874V239H25.847Z" fill="white"/>
<path opacity="0.402121" d="M26.2839 280.026C25.8246 280.026 25.4129 279.948 25.0489 279.792C24.6936 279.627 24.4119 279.38 24.2039 279.051C24.0046 278.713 23.9049 278.28 23.9049 277.751V272.681C23.9049 272.17 24.0046 271.745 24.2039 271.407C24.4119 271.06 24.6936 270.8 25.0489 270.627C25.4129 270.445 25.8246 270.354 26.2839 270.354H28.1429C28.6802 270.354 29.1179 270.454 29.4559 270.653C29.7939 270.844 30.0409 271.112 30.1969 271.459C30.3616 271.806 30.4439 272.213 30.4439 272.681V277.751C30.4439 278.54 30.2316 279.116 29.8069 279.48C29.3909 279.844 28.8362 280.026 28.1429 280.026H26.2839ZM26.4789 279.103H27.9089C28.4376 279.103 28.8189 278.973 29.0529 278.713C29.2869 278.444 29.4039 278.08 29.4039 277.621V272.759C29.4039 272.265 29.2782 271.897 29.0269 271.654C28.7842 271.411 28.4246 271.29 27.9479 271.29H26.4529C25.9849 271.29 25.6166 271.42 25.3479 271.68C25.0792 271.931 24.9449 272.291 24.9449 272.759V277.621C24.9449 278.115 25.0792 278.488 25.3479 278.739C25.6252 278.982 26.0022 279.103 26.4789 279.103Z" fill="white"/>
<path opacity="0.402121" d="M76.5133 304.078C76.3226 304.078 76.093 304.069 75.8243 304.052C75.5643 304.043 75.2956 304.026 75.0183 304C74.741 303.983 74.4766 303.961 74.2253 303.935C73.9826 303.909 73.779 303.879 73.6143 303.844V303.051C73.831 303.068 74.0953 303.086 74.4073 303.103C74.7193 303.12 75.053 303.133 75.4083 303.142C75.7723 303.151 76.1276 303.155 76.4743 303.155C76.8643 303.155 77.2153 303.116 77.5273 303.038C77.8393 302.96 78.0863 302.817 78.2683 302.609C78.459 302.401 78.5543 302.102 78.5543 301.712V301.062C78.5543 300.62 78.4416 300.286 78.2163 300.061C77.991 299.827 77.627 299.71 77.1243 299.71H76.0973C75.3086 299.71 74.689 299.537 74.2383 299.19C73.7963 298.843 73.5753 298.245 73.5753 297.396V296.85C73.5753 295.949 73.818 295.307 74.3033 294.926C74.7886 294.545 75.4733 294.354 76.3573 294.354C76.6346 294.354 76.9466 294.371 77.2933 294.406C77.64 294.432 77.9736 294.467 78.2943 294.51C78.6236 294.545 78.8966 294.584 79.1133 294.627V295.42C78.732 295.385 78.2986 295.355 77.8133 295.329C77.3366 295.303 76.886 295.29 76.4613 295.29C76.0713 295.29 75.7333 295.338 75.4473 295.433C75.1613 295.52 74.9403 295.68 74.7843 295.914C74.637 296.139 74.5633 296.464 74.5633 296.889V297.331C74.5633 297.86 74.702 298.224 74.9793 298.423C75.2566 298.622 75.6423 298.722 76.1363 298.722H77.2413C77.77 298.722 78.2033 298.817 78.5413 299.008C78.8793 299.199 79.1306 299.463 79.2953 299.801C79.46 300.13 79.5423 300.512 79.5423 300.945V301.686C79.5423 302.327 79.4036 302.821 79.1263 303.168C78.8576 303.515 78.4936 303.753 78.0343 303.883C77.5836 304.013 77.0766 304.078 76.5133 304.078ZM83.9509 304.078C83.2229 304.078 82.6466 303.97 82.2219 303.753C81.8059 303.536 81.5069 303.168 81.3249 302.648C81.1429 302.128 81.0519 301.417 81.0519 300.516C81.0519 299.597 81.1429 298.882 81.3249 298.371C81.5156 297.851 81.8233 297.487 82.2479 297.279C82.6726 297.071 83.2446 296.967 83.9639 296.967C84.5793 296.967 85.0776 297.036 85.4589 297.175C85.8489 297.314 86.1349 297.552 86.3169 297.89C86.5076 298.219 86.6029 298.679 86.6029 299.268C86.6029 299.675 86.5206 300.005 86.3559 300.256C86.1999 300.499 85.9703 300.676 85.6669 300.789C85.3723 300.893 85.0213 300.945 84.6139 300.945H82.0789C82.0876 301.508 82.1483 301.963 82.2609 302.31C82.3736 302.648 82.5773 302.895 82.8719 303.051C83.1753 303.198 83.6173 303.272 84.1979 303.272H86.4339V303.896C86.0353 303.948 85.6453 303.991 85.2639 304.026C84.8826 304.061 84.4449 304.078 83.9509 304.078ZM82.0659 300.269H84.5359C84.9259 300.269 85.2119 300.2 85.3939 300.061C85.5846 299.914 85.6799 299.654 85.6799 299.281C85.6799 298.882 85.6193 298.575 85.4979 298.358C85.3853 298.133 85.2033 297.977 84.9519 297.89C84.7093 297.795 84.3799 297.747 83.9639 297.747C83.4786 297.747 83.0973 297.821 82.8199 297.968C82.5426 298.107 82.3476 298.358 82.2349 298.722C82.1223 299.086 82.0659 299.602 82.0659 300.269ZM88.3321 307.081V297.058H89.1641L89.3591 297.773C89.5151 297.66 89.7145 297.543 89.9571 297.422C90.2085 297.292 90.4771 297.184 90.7631 297.097C91.0578 297.01 91.3481 296.967 91.6341 296.967C92.0848 296.967 92.4661 297.067 92.7781 297.266C93.0988 297.457 93.3588 297.717 93.5581 298.046C93.7575 298.375 93.9005 298.752 93.9871 299.177C94.0738 299.602 94.1171 300.048 94.1171 300.516C94.1171 301.296 94.0261 301.955 93.8441 302.492C93.6708 303.021 93.4021 303.419 93.0381 303.688C92.6741 303.957 92.2061 304.091 91.6341 304.091C91.2441 304.091 90.8498 304.03 90.4511 303.909C90.0611 303.779 89.6971 303.619 89.3591 303.428V307.081H88.3321ZM91.3481 303.22C91.6775 303.22 91.9721 303.138 92.2321 302.973C92.4921 302.808 92.7001 302.531 92.8561 302.141C93.0121 301.742 93.0901 301.201 93.0901 300.516C93.0901 299.866 93.0078 299.346 92.8431 298.956C92.6785 298.557 92.4661 298.271 92.2061 298.098C91.9461 297.916 91.6601 297.825 91.3481 297.825C90.9495 297.825 90.5811 297.89 90.2431 298.02C89.9138 298.141 89.6191 298.271 89.3591 298.41V302.661C89.6625 302.826 89.9831 302.96 90.3211 303.064C90.6678 303.168 91.0101 303.22 91.3481 303.22Z" fill="white"/>
<path opacity="0.402121" d="M181.298 304.078C181.107 304.078 180.878 304.069 180.609 304.052C180.349 304.043 180.08 304.026 179.803 304C179.526 303.983 179.261 303.961 179.01 303.935C178.767 303.909 178.564 303.879 178.399 303.844V303.051C178.616 303.068 178.88 303.086 179.192 303.103C179.504 303.12 179.838 303.133 180.193 303.142C180.557 303.151 180.912 303.155 181.259 303.155C181.649 303.155 182 303.116 182.312 303.038C182.624 302.96 182.871 302.817 183.053 302.609C183.244 302.401 183.339 302.102 183.339 301.712V301.062C183.339 300.62 183.226 300.286 183.001 300.061C182.776 299.827 182.412 299.71 181.909 299.71H180.882C180.093 299.71 179.474 299.537 179.023 299.19C178.581 298.843 178.36 298.245 178.36 297.396V296.85C178.36 295.949 178.603 295.307 179.088 294.926C179.573 294.545 180.258 294.354 181.142 294.354C181.419 294.354 181.731 294.371 182.078 294.406C182.425 294.432 182.758 294.467 183.079 294.51C183.408 294.545 183.681 294.584 183.898 294.627V295.42C183.517 295.385 183.083 295.355 182.598 295.329C182.121 295.303 181.671 295.29 181.246 295.29C180.856 295.29 180.518 295.338 180.232 295.433C179.946 295.52 179.725 295.68 179.569 295.914C179.422 296.139 179.348 296.464 179.348 296.889V297.331C179.348 297.86 179.487 298.224 179.764 298.423C180.041 298.622 180.427 298.722 180.921 298.722H182.026C182.555 298.722 182.988 298.817 183.326 299.008C183.664 299.199 183.915 299.463 184.08 299.801C184.245 300.13 184.327 300.512 184.327 300.945V301.686C184.327 302.327 184.188 302.821 183.911 303.168C183.642 303.515 183.278 303.753 182.819 303.883C182.368 304.013 181.861 304.078 181.298 304.078ZM188.736 304.078C188.008 304.078 187.431 303.97 187.007 303.753C186.591 303.536 186.292 303.168 186.11 302.648C185.928 302.128 185.837 301.417 185.837 300.516C185.837 299.597 185.928 298.882 186.11 298.371C186.3 297.851 186.608 297.487 187.033 297.279C187.457 297.071 188.029 296.967 188.749 296.967C189.364 296.967 189.862 297.036 190.244 297.175C190.634 297.314 190.92 297.552 191.102 297.89C191.292 298.219 191.388 298.679 191.388 299.268C191.388 299.675 191.305 300.005 191.141 300.256C190.985 300.499 190.755 300.676 190.452 300.789C190.157 300.893 189.806 300.945 189.399 300.945H186.864C186.872 301.508 186.933 301.963 187.046 302.31C187.158 302.648 187.362 302.895 187.657 303.051C187.96 303.198 188.402 303.272 188.983 303.272H191.219V303.896C190.82 303.948 190.43 303.991 190.049 304.026C189.667 304.061 189.23 304.078 188.736 304.078ZM186.851 300.269H189.321C189.711 300.269 189.997 300.2 190.179 300.061C190.369 299.914 190.465 299.654 190.465 299.281C190.465 298.882 190.404 298.575 190.283 298.358C190.17 298.133 189.988 297.977 189.737 297.89C189.494 297.795 189.165 297.747 188.749 297.747C188.263 297.747 187.882 297.821 187.605 297.968C187.327 298.107 187.132 298.358 187.02 298.722C186.907 299.086 186.851 299.602 186.851 300.269ZM193.117 307.081V297.058H193.949L194.144 297.773C194.3 297.66 194.499 297.543 194.742 297.422C194.993 297.292 195.262 297.184 195.548 297.097C195.842 297.01 196.133 296.967 196.419 296.967C196.869 296.967 197.251 297.067 197.563 297.266C197.883 297.457 198.143 297.717 198.343 298.046C198.542 298.375 198.685 298.752 198.772 299.177C198.858 299.602 198.902 300.048 198.902 300.516C198.902 301.296 198.811 301.955 198.629 302.492C198.455 303.021 198.187 303.419 197.823 303.688C197.459 303.957 196.991 304.091 196.419 304.091C196.029 304.091 195.634 304.03 195.236 303.909C194.846 303.779 194.482 303.619 194.144 303.428V307.081H193.117ZM196.133 303.22C196.462 303.22 196.757 303.138 197.017 302.973C197.277 302.808 197.485 302.531 197.641 302.141C197.797 301.742 197.875 301.201 197.875 300.516C197.875 299.866 197.792 299.346 197.628 298.956C197.463 298.557 197.251 298.271 196.991 298.098C196.731 297.916 196.445 297.825 196.133 297.825C195.734 297.825 195.366 297.89 195.028 298.02C194.698 298.141 194.404 298.271 194.144 298.41V302.661C194.447 302.826 194.768 302.96 195.106 303.064C195.452 303.168 195.795 303.22 196.133 303.22Z" fill="white"/>
<path opacity="0.402121" d="M285.415 304V294.432H286.26L291.252 302.219V294.432H292.279V304H291.434L286.442 296.213V304H285.415ZM296.85 304.078C296.347 304.078 295.905 304.026 295.524 303.922C295.151 303.818 294.839 303.636 294.588 303.376C294.336 303.116 294.15 302.756 294.029 302.297C293.907 301.829 293.847 301.235 293.847 300.516C293.847 299.788 293.907 299.194 294.029 298.735C294.15 298.267 294.336 297.907 294.588 297.656C294.839 297.396 295.151 297.218 295.524 297.123C295.905 297.019 296.347 296.967 296.85 296.967C297.352 296.967 297.79 297.019 298.163 297.123C298.544 297.227 298.86 297.409 299.112 297.669C299.363 297.92 299.549 298.28 299.671 298.748C299.801 299.207 299.866 299.797 299.866 300.516C299.866 301.244 299.801 301.842 299.671 302.31C299.549 302.769 299.363 303.129 299.112 303.389C298.869 303.64 298.557 303.818 298.176 303.922C297.794 304.026 297.352 304.078 296.85 304.078ZM296.85 303.233C297.17 303.233 297.452 303.203 297.695 303.142C297.946 303.081 298.154 302.96 298.319 302.778C298.483 302.596 298.609 302.323 298.696 301.959C298.782 301.595 298.826 301.114 298.826 300.516C298.826 299.909 298.782 299.428 298.696 299.073C298.609 298.718 298.483 298.449 298.319 298.267C298.154 298.085 297.946 297.964 297.695 297.903C297.452 297.842 297.17 297.812 296.85 297.812C296.52 297.812 296.234 297.842 295.992 297.903C295.749 297.964 295.545 298.085 295.381 298.267C295.216 298.449 295.09 298.718 295.004 299.073C294.917 299.428 294.874 299.909 294.874 300.516C294.874 301.114 294.917 301.595 295.004 301.959C295.09 302.323 295.216 302.596 295.381 302.778C295.545 302.96 295.749 303.081 295.992 303.142C296.234 303.203 296.52 303.233 296.85 303.233ZM303.215 304L300.602 297.058H301.655L303.813 303.038L306.036 297.058H307.076L304.385 304H303.215Z" fill="white"/>
<path opacity="0.402121" d="M390.576 304V294.432H394.359C394.939 294.432 395.429 294.54 395.828 294.757C396.226 294.965 396.547 295.273 396.79 295.68C397.041 296.087 397.223 296.59 397.336 297.188C397.448 297.777 397.505 298.453 397.505 299.216C397.505 300.221 397.388 301.079 397.154 301.79C396.92 302.501 396.569 303.047 396.101 303.428C395.633 303.809 395.052 304 394.359 304H390.576ZM391.616 303.077H394.281C394.792 303.077 395.208 302.921 395.529 302.609C395.849 302.288 396.088 301.842 396.244 301.27C396.4 300.689 396.478 300.005 396.478 299.216C396.478 298.505 396.434 297.907 396.348 297.422C396.261 296.928 396.127 296.529 395.945 296.226C395.771 295.923 395.546 295.706 395.269 295.576C394.991 295.437 394.662 295.368 394.281 295.368H391.616V303.077ZM401.784 304.078C401.056 304.078 400.48 303.97 400.055 303.753C399.639 303.536 399.34 303.168 399.158 302.648C398.976 302.128 398.885 301.417 398.885 300.516C398.885 299.597 398.976 298.882 399.158 298.371C399.349 297.851 399.656 297.487 400.081 297.279C400.506 297.071 401.078 296.967 401.797 296.967C402.412 296.967 402.911 297.036 403.292 297.175C403.682 297.314 403.968 297.552 404.15 297.89C404.341 298.219 404.436 298.679 404.436 299.268C404.436 299.675 404.354 300.005 404.189 300.256C404.033 300.499 403.803 300.676 403.5 300.789C403.205 300.893 402.854 300.945 402.447 300.945H399.912C399.921 301.508 399.981 301.963 400.094 302.31C400.207 302.648 400.41 302.895 400.705 303.051C401.008 303.198 401.45 303.272 402.031 303.272H404.267V303.896C403.868 303.948 403.478 303.991 403.097 304.026C402.716 304.061 402.278 304.078 401.784 304.078ZM399.899 300.269H402.369C402.759 300.269 403.045 300.2 403.227 300.061C403.418 299.914 403.513 299.654 403.513 299.281C403.513 298.882 403.452 298.575 403.331 298.358C403.218 298.133 403.036 297.977 402.785 297.89C402.542 297.795 402.213 297.747 401.797 297.747C401.312 297.747 400.93 297.821 400.653 297.968C400.376 298.107 400.181 298.358 400.068 298.722C399.955 299.086 399.899 299.602 399.899 300.269ZM408.687 304.078C408.297 304.078 407.933 304.026 407.595 303.922C407.257 303.818 406.963 303.636 406.711 303.376C406.46 303.116 406.265 302.756 406.126 302.297C405.988 301.838 405.918 301.253 405.918 300.542C405.918 299.823 405.983 299.233 406.113 298.774C406.243 298.306 406.43 297.942 406.672 297.682C406.915 297.422 407.21 297.24 407.556 297.136C407.903 297.032 408.289 296.98 408.713 296.98C409.06 296.98 409.437 296.997 409.844 297.032C410.252 297.058 410.642 297.101 411.014 297.162V297.773H408.986C408.544 297.773 408.172 297.847 407.868 297.994C407.565 298.141 407.335 298.419 407.179 298.826C407.023 299.225 406.945 299.805 406.945 300.568C406.945 301.305 407.028 301.868 407.192 302.258C407.357 302.648 407.591 302.917 407.894 303.064C408.198 303.203 408.566 303.272 408.999 303.272H411.118V303.87C410.919 303.905 410.685 303.939 410.416 303.974C410.156 304.009 409.879 304.035 409.584 304.052C409.29 304.069 408.991 304.078 408.687 304.078Z" fill="white"/>
<path opacity="0.402121" d="M499.208 304.078C498.965 304.078 498.705 304.048 498.428 303.987C498.151 303.926 497.921 303.857 497.739 303.779V302.986C497.921 303.021 498.129 303.06 498.363 303.103C498.606 303.138 498.822 303.155 499.013 303.155C499.29 303.155 499.529 303.116 499.728 303.038C499.927 302.96 500.079 302.821 500.183 302.622C500.296 302.423 500.352 302.141 500.352 301.777V294.432H501.379V301.907C501.379 302.427 501.297 302.847 501.132 303.168C500.976 303.489 500.738 303.723 500.417 303.87C500.105 304.009 499.702 304.078 499.208 304.078ZM504.73 304.078C504.219 304.078 503.798 303.926 503.469 303.623C503.14 303.32 502.975 302.891 502.975 302.336V301.842C502.975 301.296 503.153 300.854 503.508 300.516C503.872 300.178 504.418 300.009 505.146 300.009H507.499V299.151C507.499 298.865 507.447 298.622 507.343 298.423C507.248 298.215 507.07 298.055 506.81 297.942C506.559 297.829 506.19 297.773 505.705 297.773H503.547V297.162C503.85 297.11 504.201 297.062 504.6 297.019C505.007 296.976 505.484 296.954 506.03 296.954C506.593 296.945 507.061 297.015 507.434 297.162C507.807 297.309 508.08 297.543 508.253 297.864C508.435 298.176 508.526 298.588 508.526 299.099V304H507.733L507.538 303.207C507.503 303.242 507.395 303.302 507.213 303.389C507.04 303.476 506.814 303.575 506.537 303.688C506.268 303.792 505.974 303.883 505.653 303.961C505.341 304.039 505.033 304.078 504.73 304.078ZM505.159 303.311C505.315 303.32 505.493 303.302 505.692 303.259C505.891 303.216 506.095 303.168 506.303 303.116C506.511 303.055 506.702 302.995 506.875 302.934C507.057 302.873 507.204 302.821 507.317 302.778C507.43 302.735 507.49 302.713 507.499 302.713V300.529L505.38 300.62C504.886 300.637 504.531 300.759 504.314 300.984C504.106 301.209 504.002 301.5 504.002 301.855V302.167C504.002 302.444 504.058 302.67 504.171 302.843C504.292 303.008 504.44 303.125 504.613 303.194C504.795 303.263 504.977 303.302 505.159 303.311ZM510.462 304V297.058H511.268L511.489 297.825C511.818 297.591 512.204 297.387 512.646 297.214C513.088 297.032 513.547 296.941 514.024 296.941C514.535 296.941 514.947 297.049 515.259 297.266C515.571 297.483 515.801 297.769 515.948 298.124C516.095 298.479 516.169 298.865 516.169 299.281V304H515.142V299.398C515.142 299.103 515.081 298.843 514.96 298.618C514.847 298.384 514.683 298.202 514.466 298.072C514.258 297.942 513.998 297.877 513.686 297.877C513.4 297.877 513.131 297.907 512.88 297.968C512.637 298.02 512.403 298.098 512.178 298.202C511.961 298.297 511.732 298.414 511.489 298.553V304H510.462Z" fill="white"/>
<path opacity="0.402121" d="M603.669 304V296.356C603.669 295.983 603.721 295.676 603.825 295.433C603.938 295.182 604.085 294.987 604.267 294.848C604.449 294.701 604.653 294.597 604.878 294.536C605.104 294.467 605.329 294.432 605.554 294.432C605.936 294.441 606.347 294.449 606.789 294.458C607.24 294.467 607.699 294.48 608.167 294.497C608.644 294.506 609.108 294.527 609.558 294.562V295.381H605.801C605.455 295.381 605.186 295.476 604.995 295.667C604.805 295.858 604.709 296.139 604.709 296.512V298.995L608.986 299.06V299.853L604.709 299.918V304H603.669ZM613.354 304.078C612.626 304.078 612.05 303.97 611.625 303.753C611.209 303.536 610.91 303.168 610.728 302.648C610.546 302.128 610.455 301.417 610.455 300.516C610.455 299.597 610.546 298.882 610.728 298.371C610.919 297.851 611.227 297.487 611.651 297.279C612.076 297.071 612.648 296.967 613.367 296.967C613.983 296.967 614.481 297.036 614.862 297.175C615.252 297.314 615.538 297.552 615.72 297.89C615.911 298.219 616.006 298.679 616.006 299.268C616.006 299.675 615.924 300.005 615.759 300.256C615.603 300.499 615.374 300.676 615.07 300.789C614.776 300.893 614.425 300.945 614.017 300.945H611.482C611.491 301.508 611.552 301.963 611.664 302.31C611.777 302.648 611.981 302.895 612.275 303.051C612.579 303.198 613.021 303.272 613.601 303.272H615.837V303.896C615.439 303.948 615.049 303.991 614.667 304.026C614.286 304.061 613.848 304.078 613.354 304.078ZM611.469 300.269H613.939C614.329 300.269 614.615 300.2 614.797 300.061C614.988 299.914 615.083 299.654 615.083 299.281C615.083 298.882 615.023 298.575 614.901 298.358C614.789 298.133 614.607 297.977 614.355 297.89C614.113 297.795 613.783 297.747 613.367 297.747C612.882 297.747 612.501 297.821 612.223 297.968C611.946 298.107 611.751 298.358 611.638 298.722C611.526 299.086 611.469 299.602 611.469 300.269ZM621.076 304.078C620.747 304.078 620.439 304.039 620.153 303.961C619.876 303.874 619.62 303.775 619.386 303.662C619.152 303.541 618.944 303.419 618.762 303.298L618.567 304H617.735V294.081H618.762V297.695C619.092 297.504 619.464 297.335 619.88 297.188C620.296 297.041 620.682 296.967 621.037 296.967C621.592 296.967 622.051 297.084 622.415 297.318C622.779 297.552 623.052 297.933 623.234 298.462C623.425 298.991 623.52 299.697 623.52 300.581C623.52 301.3 623.438 301.924 623.273 302.453C623.109 302.973 622.844 303.376 622.48 303.662C622.125 303.939 621.657 304.078 621.076 304.078ZM620.751 303.22C621.133 303.22 621.449 303.125 621.7 302.934C621.96 302.735 622.155 302.436 622.285 302.037C622.424 301.638 622.493 301.14 622.493 300.542C622.493 299.779 622.415 299.207 622.259 298.826C622.112 298.436 621.908 298.172 621.648 298.033C621.388 297.894 621.089 297.825 620.751 297.825C620.361 297.825 620.01 297.881 619.698 297.994C619.395 298.098 619.083 298.237 618.762 298.41V302.661C619.031 302.791 619.326 302.917 619.646 303.038C619.976 303.159 620.344 303.22 620.751 303.22Z" fill="white"/>
<path d="M589.333 16.6667C592.139 16.6667 594.414 14.2789 594.414 11.3333C594.414 8.38781 592.139 6 589.333 6C586.528 6 584.253 8.38781 584.253 11.3333C584.253 14.2789 586.528 16.6667 589.333 16.6667Z" fill="#19497A"/>
<path opacity="0.8" d="M601.894 16V5.20533H606.147C606.499 5.20533 606.841 5.24933 607.174 5.33733C607.506 5.41555 607.804 5.56711 608.068 5.792C608.342 6.01689 608.557 6.33955 608.714 6.76C608.87 7.17067 608.948 7.71333 608.948 8.388C608.948 8.97467 608.885 9.45867 608.758 9.84C608.631 10.2116 608.464 10.5098 608.259 10.7347C608.054 10.9498 607.829 11.1111 607.584 11.2187C607.35 11.3164 607.12 11.3849 606.895 11.424L609.11 16H607.922L605.824 11.5853C605.668 11.5853 605.472 11.5804 605.238 11.5707C605.003 11.5609 604.754 11.556 604.49 11.556C604.226 11.556 603.967 11.5511 603.712 11.5413C603.468 11.5316 603.253 11.5267 603.067 11.5267V16H601.894ZM603.067 10.632H605.971C606.225 10.632 606.46 10.6027 606.675 10.544C606.89 10.4853 607.081 10.3778 607.247 10.2213C607.413 10.0551 607.545 9.82533 607.643 9.532C607.741 9.23867 607.79 8.85733 607.79 8.388C607.79 7.93822 607.741 7.57644 607.643 7.30267C607.545 7.01911 607.408 6.804 607.232 6.65733C607.066 6.50089 606.875 6.39822 606.66 6.34933C606.445 6.29067 606.215 6.26133 605.971 6.26133H603.067V10.632ZM613.651 16.088C612.83 16.088 612.179 15.9658 611.7 15.7213C611.231 15.4769 610.894 15.0613 610.688 14.4747C610.483 13.888 610.38 13.0862 610.38 12.0693C610.38 11.0329 610.483 10.2262 610.688 9.64933C610.903 9.06267 611.25 8.652 611.73 8.41733C612.209 8.18267 612.854 8.06533 613.666 8.06533C614.36 8.06533 614.922 8.14356 615.352 8.3C615.792 8.45644 616.115 8.72533 616.32 9.10667C616.535 9.47822 616.643 9.99644 616.643 10.6613C616.643 11.1209 616.55 11.4924 616.364 11.776C616.188 12.0498 615.929 12.2502 615.587 12.3773C615.254 12.4947 614.858 12.5533 614.399 12.5533H611.539C611.549 13.1889 611.617 13.7022 611.744 14.0933C611.871 14.4747 612.101 14.7533 612.434 14.9293C612.776 15.0956 613.274 15.1787 613.93 15.1787H616.452V15.8827C616.002 15.9413 615.562 15.9902 615.132 16.0293C614.702 16.0684 614.208 16.088 613.651 16.088ZM611.524 11.7907H614.311C614.751 11.7907 615.074 11.7124 615.279 11.556C615.494 11.3898 615.602 11.0964 615.602 10.676C615.602 10.2262 615.533 9.87911 615.396 9.63467C615.269 9.38044 615.064 9.20444 614.78 9.10667C614.506 8.99911 614.135 8.94533 613.666 8.94533C613.118 8.94533 612.688 9.02844 612.375 9.19467C612.062 9.35111 611.842 9.63467 611.715 10.0453C611.588 10.456 611.524 11.0378 611.524 11.7907ZM619.019 16V9.12133H617.816V8.37333L619.019 8.168V7.27333C619.019 6.716 619.088 6.25155 619.224 5.88C619.361 5.49867 619.591 5.21022 619.914 5.01467C620.236 4.81911 620.686 4.72133 621.263 4.72133C621.605 4.72133 621.894 4.74089 622.128 4.78C622.373 4.80933 622.588 4.83867 622.774 4.868V5.68933H621.468C621.116 5.68933 620.848 5.748 620.662 5.86533C620.476 5.97289 620.349 6.144 620.28 6.37867C620.212 6.60356 620.178 6.88222 620.178 7.21467V8.168H622.612V9.12133H620.178V16H619.019ZM626.326 16.088C625.573 16.088 624.991 15.8924 624.58 15.5013C624.179 15.1102 623.979 14.504 623.979 13.6827V8.168H625.138V13.3893C625.138 14.0444 625.284 14.4893 625.578 14.724C625.881 14.9489 626.301 15.0613 626.839 15.0613C627.298 15.0613 627.719 14.9978 628.1 14.8707C628.482 14.7338 628.873 14.548 629.274 14.3133V8.168H630.432V16H629.523L629.274 15.1347C628.873 15.3889 628.418 15.6138 627.91 15.8093C627.411 15.9951 626.883 16.088 626.326 16.088ZM632.616 16V8.168H633.525L633.775 9.03333C634.146 8.76933 634.581 8.53955 635.08 8.344C635.579 8.13867 636.097 8.036 636.635 8.036C637.211 8.036 637.676 8.15822 638.028 8.40267C638.38 8.64711 638.639 8.96978 638.805 9.37067C638.971 9.77156 639.055 10.2067 639.055 10.676V16H637.896V10.808C637.896 10.4756 637.827 10.1822 637.691 9.928C637.563 9.664 637.378 9.45867 637.133 9.312C636.899 9.16533 636.605 9.092 636.253 9.092C635.931 9.092 635.627 9.12622 635.344 9.19467C635.07 9.25333 634.806 9.34133 634.552 9.45867C634.307 9.56622 634.048 9.69822 633.775 9.85467V16H632.616ZM643.776 16.088C643.13 16.088 642.597 15.9511 642.177 15.6773C641.766 15.3938 641.458 14.9636 641.253 14.3867C641.057 13.8 640.96 13.052 640.96 12.1427C640.96 11.1747 641.057 10.3924 641.253 9.796C641.449 9.18978 641.761 8.74978 642.192 8.476C642.622 8.20222 643.199 8.06533 643.922 8.06533C644.362 8.06533 644.793 8.11422 645.213 8.212C645.633 8.30978 646.005 8.41733 646.328 8.53467V4.80933H647.486V16H646.548L646.328 15.208C646.181 15.3351 645.961 15.4671 645.668 15.604C645.384 15.7409 645.071 15.8582 644.729 15.956C644.397 16.044 644.079 16.088 643.776 16.088ZM644.113 15.1347C644.563 15.1347 644.969 15.0662 645.33 14.9293C645.702 14.7827 646.034 14.6311 646.328 14.4747V9.356C645.976 9.24844 645.638 9.16044 645.316 9.092C644.993 9.01378 644.631 8.97467 644.23 8.97467C643.732 8.97467 643.326 9.06756 643.013 9.25333C642.7 9.43911 642.47 9.76178 642.324 10.2213C642.187 10.6711 642.118 11.2969 642.118 12.0987C642.118 12.8222 642.182 13.4089 642.309 13.8587C642.446 14.3084 642.661 14.636 642.954 14.8413C643.248 15.0369 643.634 15.1347 644.113 15.1347ZM652.373 16.088C652.178 16.088 651.938 16.0831 651.655 16.0733C651.371 16.0636 651.073 16.0489 650.76 16.0293C650.457 16.0098 650.178 15.9902 649.924 15.9707C649.679 15.9413 649.489 15.912 649.352 15.8827V15.1787H652.564C652.887 15.1787 653.165 15.1542 653.4 15.1053C653.635 15.0564 653.815 14.9489 653.943 14.7827C654.079 14.6164 654.148 14.3671 654.148 14.0347V13.6827C654.148 13.3404 654.035 13.0764 653.811 12.8907C653.586 12.6951 653.224 12.5973 652.725 12.5973H651.625C651.166 12.5973 650.755 12.5387 650.393 12.4213C650.041 12.304 649.767 12.1036 649.572 11.82C649.376 11.5364 649.279 11.1453 649.279 10.6467V10.236C649.279 9.74711 649.371 9.34622 649.557 9.03333C649.753 8.72044 650.051 8.48578 650.452 8.32933C650.863 8.17289 651.391 8.09467 652.036 8.09467C652.31 8.09467 652.623 8.10444 652.975 8.124C653.336 8.14356 653.688 8.17289 654.031 8.212C654.373 8.24133 654.651 8.27556 654.867 8.31467V9.01867H651.845C651.347 9.01867 650.96 9.10178 650.687 9.268C650.423 9.43422 650.291 9.75689 650.291 10.236V10.5587C650.291 10.8618 650.354 11.0916 650.481 11.248C650.608 11.3947 650.784 11.4924 651.009 11.5413C651.244 11.5902 651.513 11.6147 651.816 11.6147H652.931C653.644 11.6147 654.197 11.7809 654.588 12.1133C654.979 12.4458 655.175 12.9249 655.175 13.5507V14.0933C655.175 14.6213 655.052 15.032 654.808 15.3253C654.573 15.6089 654.246 15.8093 653.825 15.9267C653.415 16.0342 652.931 16.088 652.373 16.088Z" fill="white"/>
<path d="M515.667 16.6667C518.473 16.6667 520.747 14.2789 520.747 11.3333C520.747 8.38781 518.473 6 515.667 6C512.861 6 510.586 8.38781 510.586 11.3333C510.586 14.2789 512.861 16.6667 515.667 16.6667Z" fill="#1990EA"/>
<path opacity="0.8" d="M531.292 16.088C531.077 16.088 530.818 16.0782 530.515 16.0587C530.222 16.0489 529.919 16.0293 529.606 16C529.293 15.9804 528.995 15.956 528.711 15.9267C528.437 15.8973 528.207 15.8631 528.022 15.824V14.9293C528.266 14.9489 528.564 14.9684 528.916 14.988C529.268 15.0076 529.645 15.0222 530.046 15.032C530.456 15.0418 530.857 15.0467 531.248 15.0467C531.688 15.0467 532.084 15.0027 532.436 14.9147C532.788 14.8267 533.067 14.6653 533.272 14.4307C533.487 14.196 533.595 13.8587 533.595 13.4187V12.6853C533.595 12.1867 533.468 11.8102 533.214 11.556C532.959 11.292 532.549 11.16 531.982 11.16H530.823C529.933 11.16 529.234 10.9644 528.726 10.5733C528.227 10.1822 527.978 9.50756 527.978 8.54933V7.93333C527.978 6.91644 528.251 6.19289 528.799 5.76267C529.347 5.33244 530.119 5.11733 531.116 5.11733C531.429 5.11733 531.781 5.13689 532.172 5.176C532.563 5.20533 532.94 5.24444 533.302 5.29333C533.673 5.33244 533.981 5.37644 534.226 5.42533V6.32C533.795 6.28089 533.307 6.24667 532.759 6.21733C532.221 6.188 531.713 6.17333 531.234 6.17333C530.794 6.17333 530.412 6.22711 530.09 6.33467C529.767 6.43244 529.518 6.61333 529.342 6.87733C529.175 7.13156 529.092 7.49822 529.092 7.97733V8.476C529.092 9.07244 529.249 9.48311 529.562 9.708C529.875 9.93289 530.31 10.0453 530.867 10.0453H532.114C532.71 10.0453 533.199 10.1529 533.58 10.368C533.962 10.5831 534.245 10.8813 534.431 11.2627C534.617 11.6342 534.71 12.0644 534.71 12.5533V13.3893C534.71 14.1129 534.553 14.6702 534.24 15.0613C533.937 15.4524 533.527 15.7213 533.008 15.868C532.5 16.0147 531.928 16.088 531.292 16.088ZM538.217 16.088C537.64 16.088 537.166 15.9169 536.794 15.5747C536.423 15.2324 536.237 14.7484 536.237 14.1227V13.5653C536.237 12.9493 536.437 12.4507 536.838 12.0693C537.249 11.688 537.865 11.4973 538.686 11.4973H541.341V10.5293C541.341 10.2067 541.282 9.93289 541.165 9.708C541.057 9.47333 540.857 9.29244 540.563 9.16533C540.28 9.03822 539.864 8.97467 539.317 8.97467H536.882V8.28533C537.224 8.22667 537.62 8.17289 538.07 8.124C538.53 8.07511 539.067 8.05067 539.683 8.05067C540.319 8.04089 540.847 8.11911 541.267 8.28533C541.688 8.45156 541.996 8.71556 542.191 9.07733C542.397 9.42933 542.499 9.89378 542.499 10.4707V16H541.605L541.385 15.1053C541.346 15.1444 541.223 15.2129 541.018 15.3107C540.823 15.4084 540.568 15.5209 540.255 15.648C539.952 15.7653 539.62 15.868 539.258 15.956C538.906 16.044 538.559 16.088 538.217 16.088ZM538.701 15.2227C538.877 15.2324 539.077 15.2129 539.302 15.164C539.527 15.1151 539.757 15.0613 539.991 15.0027C540.226 14.9342 540.441 14.8658 540.637 14.7973C540.842 14.7289 541.008 14.6702 541.135 14.6213C541.263 14.5724 541.331 14.548 541.341 14.548V12.084L538.95 12.1867C538.393 12.2062 537.992 12.3431 537.747 12.5973C537.513 12.8516 537.395 13.1791 537.395 13.58V13.932C537.395 14.2449 537.459 14.4991 537.586 14.6947C537.723 14.8804 537.889 15.0124 538.085 15.0907C538.29 15.1689 538.495 15.2129 538.701 15.2227ZM546.737 16.0147C546.287 16.0147 545.911 15.9364 545.608 15.78C545.305 15.6138 545.075 15.3498 544.918 14.988C544.762 14.6164 544.684 14.1178 544.684 13.492V4.80933H545.842V13.3453C545.842 13.8147 545.886 14.1716 545.974 14.416C546.062 14.6507 546.189 14.8169 546.356 14.9147C546.522 15.0027 546.717 15.0613 546.942 15.0907L547.734 15.1787V16.0147H546.737ZM551.987 16.088C551.166 16.088 550.515 15.9658 550.036 15.7213C549.567 15.4769 549.23 15.0613 549.024 14.4747C548.819 13.888 548.716 13.0862 548.716 12.0693C548.716 11.0329 548.819 10.2262 549.024 9.64933C549.239 9.06267 549.586 8.652 550.066 8.41733C550.545 8.18267 551.19 8.06533 552.002 8.06533C552.696 8.06533 553.258 8.14356 553.688 8.3C554.128 8.45644 554.451 8.72533 554.656 9.10667C554.871 9.47822 554.979 9.99644 554.979 10.6613C554.979 11.1209 554.886 11.4924 554.7 11.776C554.524 12.0498 554.265 12.2502 553.923 12.3773C553.59 12.4947 553.194 12.5533 552.735 12.5533H549.875C549.885 13.1889 549.953 13.7022 550.08 14.0933C550.207 14.4747 550.437 14.7533 550.77 14.9293C551.112 15.0956 551.61 15.1787 552.266 15.1787H554.788V15.8827C554.338 15.9413 553.898 15.9902 553.468 16.0293C553.038 16.0684 552.544 16.088 551.987 16.088ZM549.86 11.7907H552.647C553.087 11.7907 553.41 11.7124 553.615 11.556C553.83 11.3898 553.938 11.0964 553.938 10.676C553.938 10.2262 553.869 9.87911 553.732 9.63467C553.605 9.38044 553.4 9.20444 553.116 9.10667C552.842 8.99911 552.471 8.94533 552.002 8.94533C551.454 8.94533 551.024 9.02844 550.711 9.19467C550.398 9.35111 550.178 9.63467 550.051 10.0453C549.924 10.456 549.86 11.0378 549.86 11.7907ZM559.628 16.088C559.433 16.088 559.193 16.0831 558.91 16.0733C558.626 16.0636 558.328 16.0489 558.015 16.0293C557.712 16.0098 557.433 15.9902 557.179 15.9707C556.935 15.9413 556.744 15.912 556.607 15.8827V15.1787H559.819C560.142 15.1787 560.42 15.1542 560.655 15.1053C560.89 15.0564 561.071 14.9489 561.198 14.7827C561.335 14.6164 561.403 14.3671 561.403 14.0347V13.6827C561.403 13.3404 561.291 13.0764 561.066 12.8907C560.841 12.6951 560.479 12.5973 559.98 12.5973H558.88C558.421 12.5973 558.01 12.5387 557.648 12.4213C557.296 12.304 557.023 12.1036 556.827 11.82C556.632 11.5364 556.534 11.1453 556.534 10.6467V10.236C556.534 9.74711 556.627 9.34622 556.812 9.03333C557.008 8.72044 557.306 8.48578 557.707 8.32933C558.118 8.17289 558.646 8.09467 559.291 8.09467C559.565 8.09467 559.878 8.10444 560.23 8.124C560.592 8.14356 560.944 8.17289 561.286 8.212C561.628 8.24133 561.907 8.27556 562.122 8.31467V9.01867H559.1C558.602 9.01867 558.216 9.10178 557.942 9.268C557.678 9.43422 557.546 9.75689 557.546 10.236V10.5587C557.546 10.8618 557.609 11.0916 557.736 11.248C557.864 11.3947 558.04 11.4924 558.264 11.5413C558.499 11.5902 558.768 11.6147 559.071 11.6147H560.186C560.9 11.6147 561.452 11.7809 561.843 12.1133C562.234 12.4458 562.43 12.9249 562.43 13.5507V14.0933C562.43 14.6213 562.308 15.032 562.063 15.3253C561.828 15.6089 561.501 15.8093 561.08 15.9267C560.67 16.0342 560.186 16.088 559.628 16.088Z" fill="white"/>
<path d="M2.9087 17.9514L4.38816 4.98854H5.81478L9.26686 16.1902L12.6485 4.98854H14.0927L15.6074 17.9514H14.2512L12.9479 6.59128L13.1769 6.62651L9.90091 17.9514H8.61519L5.25118 6.64412L5.51537 6.6089L4.26487 17.9514H2.9087ZM21.5111 18.0571C20.83 18.0571 20.2312 17.9866 19.7146 17.8457C19.2097 17.7048 18.787 17.4583 18.4465 17.106C18.106 16.7538 17.8535 16.2665 17.6891 15.6442C17.5247 15.0101 17.4425 14.2058 17.4425 13.2312C17.4425 12.2449 17.5247 11.4406 17.6891 10.8183C17.8535 10.1843 18.106 9.69697 18.4465 9.35646C18.787 9.00421 19.2097 8.76351 19.7146 8.63435C20.2312 8.49345 20.83 8.42299 21.5111 8.42299C22.1921 8.42299 22.785 8.49345 23.2899 8.63435C23.8066 8.77525 24.2351 9.02182 24.5757 9.37408C24.9162 9.71459 25.1686 10.2019 25.333 10.8359C25.5091 11.4582 25.5972 12.2567 25.5972 13.2312C25.5972 14.2175 25.5091 15.0277 25.333 15.6618C25.1686 16.2841 24.9162 16.7714 24.5757 17.1236C24.2469 17.4641 23.8242 17.7048 23.3075 17.8457C22.7909 17.9866 22.1921 18.0571 21.5111 18.0571ZM21.5111 16.9123C21.9455 16.9123 22.3271 16.8712 22.6559 16.789C22.9964 16.7068 23.2782 16.5424 23.5013 16.2958C23.7244 16.0493 23.8946 15.6794 24.012 15.1862C24.1295 14.6931 24.1882 14.0414 24.1882 13.2312C24.1882 12.4093 24.1295 11.7576 24.012 11.2762C23.8946 10.7948 23.7244 10.4308 23.5013 10.1843C23.2782 9.93768 22.9964 9.77329 22.6559 9.6911C22.3271 9.60891 21.9455 9.56781 21.5111 9.56781C21.0649 9.56781 20.6774 9.60891 20.3486 9.6911C20.0199 9.77329 19.7439 9.93768 19.5208 10.1843C19.2977 10.4308 19.1275 10.7948 19.0101 11.2762C18.8926 11.7576 18.8339 12.4093 18.8339 13.2312C18.8339 14.0414 18.8926 14.6931 19.0101 15.1862C19.1275 15.6794 19.2977 16.0493 19.5208 16.2958C19.7439 16.5424 20.0199 16.7068 20.3486 16.789C20.6774 16.8712 21.0649 16.9123 21.5111 16.9123ZM27.9423 17.9514V8.54628H29.0343L29.3337 9.58543C29.7799 9.2684 30.3024 8.99247 30.9012 8.75763C31.5 8.51106 32.1223 8.38777 32.7681 8.38777C33.4609 8.38777 34.0186 8.53454 34.4413 8.82808C34.864 9.12163 35.1752 9.50911 35.3748 9.99052C35.5744 10.4719 35.6742 10.9944 35.6742 11.558V17.9514H34.2828V11.7166C34.2828 11.3173 34.2006 10.9651 34.0362 10.6598C33.8836 10.3428 33.6605 10.0962 33.367 9.92007C33.0852 9.74394 32.7329 9.65588 32.3102 9.65588C31.9227 9.65588 31.5587 9.69697 31.2182 9.77917C30.8895 9.84962 30.5724 9.95529 30.2671 10.0962C29.9736 10.2254 29.6624 10.3839 29.3337 10.5717V17.9514H27.9423ZM41.414 17.9514C40.8034 17.9514 40.2985 17.8516 39.8993 17.652C39.5001 17.4524 39.2065 17.1295 39.0187 16.6833C38.8308 16.2371 38.7427 15.6442 38.7545 14.9044L38.8073 9.6911H37.3103V8.79286L38.8249 8.54628L39.0539 5.922H40.1283V8.54628H42.8406V9.6911H40.1283V14.9044C40.1283 15.3154 40.1694 15.6442 40.2516 15.8907C40.3455 16.1373 40.4629 16.3252 40.6038 16.4543C40.7565 16.5835 40.915 16.6774 41.0794 16.7361C41.2437 16.7831 41.4023 16.8125 41.5549 16.8242L42.6997 16.9299V17.9514H41.414ZM44.7637 17.9514V4.513H46.1551V9.58543C46.5895 9.2684 47.1062 8.99247 47.705 8.75763C48.3156 8.51106 48.9496 8.38777 49.6072 8.38777C50.2647 8.38777 50.8048 8.52867 51.2275 8.81047C51.662 9.09227 51.979 9.47388 52.1786 9.95529C52.39 10.4367 52.4956 10.971 52.4956 11.558V17.9514H51.1042V11.6989C51.1042 11.2997 51.022 10.9475 50.8577 10.6422C50.705 10.3369 50.4819 10.0962 50.1884 9.92007C49.8948 9.74394 49.5426 9.65588 49.1316 9.65588C48.7441 9.65588 48.386 9.69697 48.0572 9.77917C47.7285 9.84962 47.4115 9.95529 47.1062 10.0962C46.8009 10.2254 46.4839 10.3839 46.1551 10.5717V17.9514H44.7637ZM57.5837 17.969C57.0436 17.969 56.5916 17.8751 56.2276 17.6872C55.8636 17.4876 55.5876 17.1706 55.3998 16.7361C55.2119 16.29 55.118 15.6911 55.118 14.9397V4.513H56.5094V14.7635C56.5094 15.3271 56.5622 15.7557 56.6679 16.0493C56.7736 16.3311 56.9262 16.5307 57.1258 16.6481C57.3254 16.7538 57.5603 16.8242 57.8303 16.8594L58.7814 16.9651V17.969H57.5837ZM62.8137 22.1256L64.0114 17.9514C63.7178 17.9397 63.4126 17.8692 63.0955 17.7401C62.7785 17.6109 62.485 17.3878 62.2149 17.0708C61.9448 16.7538 61.7217 16.3134 61.5456 15.7498L59.2912 8.54628H60.753L62.8489 15.4504C62.9781 15.8144 63.1131 16.0845 63.254 16.2606C63.4067 16.4367 63.5593 16.56 63.712 16.6305C63.8646 16.7009 63.9938 16.742 64.0994 16.7538C64.2169 16.7538 64.2873 16.7538 64.3108 16.7538L66.7237 8.54628H68.1503L64.7159 20.382L63.9057 22.1256H62.8137Z" fill="white"/>
<path d="M80.2273 11.6125L85.2595 16.6447L90.2916 11.6125" stroke="#807D9B" stroke-width="1.25804" stroke-linecap="round" stroke-linejoin="round"/>
</svg>
