<svg width="18" height="12" viewBox="0 0 18 12" fill="none" xmlns="http://www.w3.org/2000/svg">
<path d="M17.8014 10.9995C17.7117 11.2155 17.5401 11.3872 17.324 11.4769C17.2178 11.5222 17.1036 11.5462 16.9881 11.5476H12.5677C12.3333 11.5476 12.1084 11.4545 11.9426 11.2887C11.7768 11.1229 11.6837 10.898 11.6837 10.6635C11.6837 10.4291 11.7768 10.2042 11.9426 10.0384C12.1084 9.87261 12.3333 9.77947 12.5677 9.77947H14.8575L9.91554 4.83753L7.00696 7.75495C6.92477 7.83782 6.827 7.90359 6.71926 7.94847C6.61153 7.99335 6.49598 8.01646 6.37927 8.01646C6.26256 8.01646 6.14701 7.99335 6.03928 7.94847C5.93155 7.90359 5.83377 7.83782 5.75158 7.75495L0.447175 2.45054C0.364312 2.36836 0.298543 2.27058 0.25366 2.16285C0.208777 2.05512 0.185669 1.93956 0.185669 1.82286C0.185669 1.70615 0.208777 1.5906 0.25366 1.48286C0.298543 1.37513 0.364312 1.27735 0.447175 1.19517C0.52936 1.11231 0.627139 1.04654 0.734871 1.00165C0.842603 0.95677 0.958156 0.933662 1.07486 0.933662C1.19157 0.933662 1.30712 0.95677 1.41486 1.00165C1.52259 1.04654 1.62037 1.11231 1.70255 1.19517L6.37927 5.88073L9.28786 2.9633C9.37004 2.88044 9.46782 2.81467 9.57555 2.76979C9.68328 2.72491 9.79884 2.7018 9.91554 2.7018C10.0323 2.7018 10.1478 2.72491 10.2555 2.76979C10.3633 2.81467 10.461 2.88044 10.5432 2.9633L16.104 8.53293V6.2432C16.104 6.00873 16.1972 5.78386 16.363 5.61807C16.5288 5.45227 16.7536 5.35913 16.9881 5.35913C17.2226 5.35913 17.4474 5.45227 17.6132 5.61807C17.779 5.78386 17.8722 6.00873 17.8722 6.2432V10.6635C17.8708 10.7791 17.8467 10.8932 17.8014 10.9995Z" fill="#F70707"/>
</svg>
