<svg width="17" height="17" viewBox="0 0 17 17" fill="none" xmlns="http://www.w3.org/2000/svg">
<g clip-path="url(#clip0_708_28169)">
<path d="M5.81997 4.24952H5.69204C5.7624 4.24952 5.81997 4.19195 5.81997 4.12159V4.24952H10.6813V4.12159C10.6813 4.19195 10.7389 4.24952 10.8093 4.24952H10.6813V5.40089H11.8327V4.12159C11.8327 3.5571 11.3737 3.09814 10.8093 3.09814H5.69204C5.12755 3.09814 4.66859 3.5571 4.66859 4.12159V5.40089H5.81997V4.24952ZM13.8796 5.40089H2.62171C2.33866 5.40089 2.10999 5.62957 2.10999 5.91261V6.42434C2.10999 6.4947 2.16755 6.55227 2.23792 6.55227H3.20379L3.59878 14.9157C3.62436 15.461 4.07532 15.8912 4.62062 15.8912H11.8807C12.4276 15.8912 12.8769 15.4626 12.9025 14.9157L13.2975 6.55227H14.2634C14.3337 6.55227 14.3913 6.4947 14.3913 6.42434V5.91261C14.3913 5.62957 14.1626 5.40089 13.8796 5.40089ZM11.7575 14.7398H4.74375L4.35676 6.55227H12.1445L11.7575 14.7398Z" fill="#F52727"/>
</g>
<defs>
<clipPath id="clip0_708_28169">
<rect width="16.3751" height="16.3751" fill="white" transform="translate(0.0631104 0.215332)"/>
</clipPath>
</defs>
</svg>
