<svg width="19" height="18" viewBox="0 0 19 18" fill="none" xmlns="http://www.w3.org/2000/svg">
<path d="M6.71328 15.1874H3.57032C3.42113 15.1874 3.27806 15.1282 3.17257 15.0227C3.06708 14.9172 3.00782 14.7741 3.00782 14.6249V11.482C3.00756 11.4089 3.02171 11.3366 3.04946 11.269C3.07721 11.2014 3.11801 11.14 3.16953 11.0882L11.607 2.65072C11.6594 2.59757 11.7218 2.55537 11.7906 2.52656C11.8594 2.49775 11.9332 2.48291 12.0078 2.48291C12.0824 2.48291 12.1563 2.49775 12.2251 2.52656C12.2939 2.55537 12.3563 2.59757 12.4086 2.65072L15.5445 5.78666C15.5977 5.839 15.6399 5.90139 15.6687 5.97019C15.6975 6.039 15.7123 6.11284 15.7123 6.18744C15.7123 6.26203 15.6975 6.33588 15.6687 6.40469C15.6399 6.47349 15.5977 6.53588 15.5445 6.58822L7.10703 15.0257C7.05526 15.0772 6.99383 15.118 6.92627 15.1458C6.8587 15.1735 6.78633 15.1877 6.71328 15.1874V15.1874Z" stroke="white" stroke-width="1.6875" stroke-linecap="round" stroke-linejoin="round"/>
<path d="M9.75781 4.5L13.6953 8.4375" stroke="white" stroke-width="1.6875" stroke-linecap="round" stroke-linejoin="round"/>
</svg>
