<svg width="22" height="22" viewBox="0 0 22 22" fill="none" xmlns="http://www.w3.org/2000/svg">
<path fill-rule="evenodd" clip-rule="evenodd" d="M12.4537 1.83325C12.8841 1.83336 13.3008 1.9849 13.6307 2.26134L13.7498 2.37042L17.796 6.41659C18.1004 6.72094 18.2879 7.12267 18.3258 7.55142L18.3332 7.71275V10.9999H16.4998V9.16659H12.3748C12.033 9.16657 11.7035 9.03924 11.4505 8.80943C11.1974 8.57963 11.0391 8.26382 11.0063 7.92359L10.9998 7.79159V3.66659H5.49984V18.3333H10.9998V20.1666H5.49984C5.03731 20.1667 4.59182 19.992 4.25267 19.6775C3.91352 19.363 3.70578 18.932 3.67109 18.4708L3.6665 18.3333V3.66659C3.66636 3.20406 3.84104 2.75857 4.15554 2.41942C4.47004 2.08027 4.90111 1.87252 5.36234 1.83784L5.49984 1.83325H12.4537ZM17.1479 13.2586L19.7403 15.8518C19.9121 16.0237 20.0086 16.2569 20.0086 16.4999C20.0086 16.743 19.9121 16.9761 19.7403 17.148L17.1479 19.7403C17.0634 19.8279 16.9622 19.8977 16.8504 19.9458C16.7385 19.9938 16.6183 20.0191 16.4965 20.0201C16.3748 20.0212 16.2541 19.998 16.1415 19.9519C16.0288 19.9058 15.9265 19.8378 15.8404 19.7517C15.7543 19.6656 15.6863 19.5633 15.6402 19.4506C15.5941 19.338 15.5709 19.2173 15.5719 19.0956C15.573 18.9738 15.5983 18.8536 15.6463 18.7417C15.6944 18.6299 15.7642 18.5287 15.8518 18.4442L16.8793 17.4166H12.8332C12.5901 17.4166 12.3569 17.32 12.185 17.1481C12.0131 16.9762 11.9165 16.743 11.9165 16.4999C11.9165 16.2568 12.0131 16.0236 12.185 15.8517C12.3569 15.6798 12.5901 15.5833 12.8332 15.5833H16.8793L15.8518 14.5557C15.6797 14.3838 15.5831 14.1506 15.583 13.9075C15.5829 13.6643 15.6794 13.431 15.8513 13.259C16.0232 13.087 16.2563 12.9904 16.4995 12.9903C16.7427 12.9902 16.9759 13.0867 17.1479 13.2586ZM12.8332 4.04609V7.33325H16.1203L12.8332 4.04609Z" fill="white"/>
</svg>
