<svg width="33" height="33" viewBox="0 0 33 33" fill="none" xmlns="http://www.w3.org/2000/svg">
<path d="M29.5278 4.98566L28.2073 3.66514C28.1575 3.61531 28.0952 3.59351 28.0298 3.59351C27.9644 3.59351 27.9021 3.61842 27.8523 3.66514L25.4822 6.03523C24.4519 5.33714 23.2354 4.96494 21.9909 4.96697C20.3963 4.96697 18.8017 5.57429 17.584 6.79204L14.4103 9.96566C14.364 10.0125 14.338 10.0757 14.338 10.1416C14.338 10.2075 14.364 10.2708 14.4103 10.3176L22.8723 18.7795C22.9221 18.8294 22.9844 18.8512 23.0498 18.8512C23.1121 18.8512 23.1775 18.8262 23.2273 18.7795L26.4009 15.6059C28.5468 13.4569 28.7991 10.1338 27.1577 7.7108L29.5278 5.34071C29.6244 5.24105 29.6244 5.08221 29.5278 4.98566V4.98566ZM24.8998 14.1079L23.0498 15.9578L17.232 10.1401L19.082 8.29008C19.8575 7.51459 20.8915 7.0848 21.9909 7.0848C23.0903 7.0848 24.1212 7.51147 24.8998 8.29008C25.6753 9.06558 26.1051 10.0996 26.1051 11.199C26.1051 12.2984 25.6753 13.3293 24.8998 14.1079V14.1079ZM18.9761 17.378C18.9293 17.3317 18.866 17.3056 18.8001 17.3056C18.7342 17.3056 18.671 17.3317 18.6242 17.378L16.55 19.4522L13.7376 16.6399L15.8149 14.5626C15.9115 14.466 15.9115 14.3072 15.8149 14.2106L14.6813 13.077C14.6345 13.0306 14.5712 13.0046 14.5053 13.0046C14.4394 13.0046 14.3762 13.0306 14.3294 13.077L12.252 15.1543L10.9128 13.8151C10.8896 13.7918 10.8619 13.7735 10.8314 13.7612C10.8009 13.7489 10.7682 13.7429 10.7353 13.7435C10.673 13.7435 10.6076 13.7684 10.5578 13.8151L7.38727 16.9887C5.24142 19.1377 4.98915 22.4608 6.63046 24.8838L4.26037 27.2539C4.214 27.3008 4.18799 27.364 4.18799 27.4299C4.18799 27.4958 4.214 27.559 4.26037 27.6059L5.58089 28.9264C5.63072 28.9762 5.69301 28.998 5.75841 28.998C5.82382 28.998 5.88611 28.9731 5.93594 28.9264L8.30603 26.5563C9.3556 27.2695 10.5765 27.6245 11.7973 27.6245C13.3919 27.6245 14.9865 27.0172 16.2043 25.7995L19.3779 22.6259C19.4744 22.5293 19.4744 22.3705 19.3779 22.2739L18.0387 20.9347L20.116 18.8574C20.2125 18.7608 20.2125 18.602 20.116 18.5055L18.9761 17.378V17.378ZM14.7031 24.3045C14.3219 24.6877 13.8686 24.9915 13.3693 25.1983C12.87 25.4052 12.3347 25.5111 11.7942 25.5098C10.6948 25.5098 9.66393 25.0832 8.88532 24.3045C8.50218 23.9234 8.1984 23.47 7.99152 22.9707C7.78464 22.4715 7.67877 21.9361 7.68003 21.3957C7.68003 20.2963 8.1067 19.2654 8.88532 18.4868L10.7353 16.6368L16.5531 22.4546L14.7031 24.3045V24.3045Z" fill="white"/>
</svg>
