<svg width="22" height="21" viewBox="0 0 22 21" fill="none" xmlns="http://www.w3.org/2000/svg">
<path d="M13.9251 15.75V16.4062C13.9251 17.1024 13.6485 17.7701 13.1562 18.2624C12.6639 18.7547 11.9963 19.0312 11.3001 19.0312C10.6039 19.0312 9.9362 18.7547 9.44391 18.2624C8.95163 17.7701 8.67507 17.1024 8.67507 16.4062V15.75M18.3416 14.4141C17.2883 13.125 16.5447 12.4688 16.5447 8.91475C16.5447 5.66016 14.8828 4.50064 13.5149 3.9375C13.3332 3.86285 13.1622 3.69141 13.1068 3.50479C12.8669 2.68816 12.1942 1.96875 11.3001 1.96875C10.4059 1.96875 9.73286 2.68857 9.49538 3.50561C9.44001 3.69428 9.26897 3.86285 9.08728 3.9375C7.71776 4.50146 6.05745 5.65688 6.05745 8.91475C6.0554 12.4688 5.31179 13.125 4.25851 14.4141C3.8221 14.9481 4.20437 15.75 4.96767 15.75H17.6366C18.3958 15.75 18.7756 14.9457 18.3416 14.4141Z" stroke="white" stroke-width="1.3125" stroke-linecap="round" stroke-linejoin="round"/>
</svg>
