    <svg width="15" height="15" viewBox="0 0 15 15" fill="none" xmlns="http://www.w3.org/2000/svg">
<g clip-path="url(#clip0_2247_2649)">
<path d="M13.3594 1.96871C13.1982 1.86445 13.0139 1.80137 12.8226 1.78502C12.6314 1.76867 12.439 1.79956 12.2625 1.87496L6.47812 4.15309C6.34118 4.20882 6.19473 4.23748 6.04688 4.23746H2.34375C2.03295 4.23746 1.73488 4.36093 1.51511 4.5807C1.29534 4.80047 1.17188 5.09854 1.17188 5.40934V5.50309H0V8.31559H1.17188V8.43746C1.17922 8.74336 1.30592 9.03426 1.5249 9.24798C1.74387 9.4617 2.03776 9.5813 2.34375 9.58121L3.75 12.5625C3.84522 12.7632 3.99514 12.9331 4.18253 13.0525C4.36992 13.1719 4.58718 13.236 4.80938 13.2375H5.4C5.70917 13.235 6.00484 13.1104 6.22259 12.8909C6.44033 12.6714 6.56251 12.3748 6.5625 12.0656V9.69371L12.2625 11.9718C12.4027 12.0276 12.5522 12.0563 12.7031 12.0562C12.9372 12.0524 13.1652 11.9808 13.3594 11.85C13.5136 11.7459 13.6408 11.6065 13.7304 11.4435C13.8201 11.2805 13.8696 11.0984 13.875 10.9125V2.93434C13.8741 2.74357 13.8267 2.5559 13.7369 2.38762C13.647 2.21934 13.5174 2.07554 13.3594 1.96871ZM5.39062 5.40934V8.43746H2.34375V5.40934H5.39062ZM5.39062 12.0656H4.8L3.64688 9.58121H5.39062V12.0656ZM6.90937 8.57809C6.79806 8.5212 6.682 8.47415 6.5625 8.43746V5.34371C6.68085 5.31929 6.7969 5.28479 6.90937 5.24059L12.7031 2.93434V10.8843L6.90937 8.57809ZM13.9031 5.73746V8.08121C14.2139 8.08121 14.512 7.95775 14.7318 7.73798C14.9515 7.51821 15.075 7.22014 15.075 6.90934C15.075 6.59854 14.9515 6.30047 14.7318 6.0807C14.512 5.86093 14.2139 5.73746 13.9031 5.73746Z" fill="white"/>
</g>
<defs>
<clipPath id="clip0_2247_2649">
<rect width="15" height="15" fill="white"/>
</clipPath>
</defs>
</svg>
