<svg width="15" height="13" viewBox="0 0 15 13" fill="none" xmlns="http://www.w3.org/2000/svg">
<path d="M13.3594 0.968712C13.1982 0.864445 13.0139 0.801366 12.8226 0.785019C12.6314 0.768672 12.439 0.799558 12.2625 0.874962L6.47812 3.15309C6.34118 3.20882 6.19473 3.23748 6.04687 3.23746H2.34375C2.03295 3.23746 1.73488 3.36093 1.51511 3.5807C1.29534 3.80047 1.17188 4.09854 1.17188 4.40934V4.50309H0V7.31559H1.17188V7.43746C1.17922 7.74336 1.30592 8.03426 1.5249 8.24798C1.74387 8.4617 2.03776 8.5813 2.34375 8.58121L3.75 11.5625C3.84522 11.7632 3.99514 11.9331 4.18253 12.0525C4.36992 12.1719 4.58718 12.236 4.80938 12.2375H5.4C5.70917 12.235 6.00484 12.1104 6.22259 11.8909C6.44033 11.6714 6.56251 11.3748 6.5625 11.0656V8.69371L12.2625 10.9718C12.4027 11.0276 12.5522 11.0563 12.7031 11.0562C12.9372 11.0524 13.1652 10.9808 13.3594 10.85C13.5136 10.7459 13.6408 10.6065 13.7304 10.4435C13.8201 10.2805 13.8696 10.0984 13.875 9.91246V1.93434C13.8741 1.74357 13.8267 1.5559 13.7369 1.38762C13.647 1.21934 13.5174 1.07554 13.3594 0.968712V0.968712ZM5.39062 4.40934V7.43746H2.34375V4.40934H5.39062ZM5.39062 11.0656H4.8L3.64688 8.58121H5.39062V11.0656ZM6.90937 7.57809C6.79806 7.5212 6.682 7.47415 6.5625 7.43746V4.34371C6.68085 4.31929 6.7969 4.28479 6.90937 4.24059L12.7031 1.93434V9.88434L6.90937 7.57809ZM13.9031 4.73746V7.08121C14.2139 7.08121 14.512 6.95775 14.7318 6.73798C14.9515 6.51821 15.075 6.22014 15.075 5.90934C15.075 5.59854 14.9515 5.30047 14.7318 5.0807C14.512 4.86093 14.2139 4.73746 13.9031 4.73746V4.73746Z" fill="#202020"/>
</svg>
