<svg width="15" height="15" viewBox="0 0 15 15" fill="none" xmlns="http://www.w3.org/2000/svg">
<g clip-path="url(#clip0_2247_2636)">
<g clip-path="url(#clip1_2247_2636)">
<path fill-rule="evenodd" clip-rule="evenodd" d="M2.34375 5.15625V2.34375H5.15625V5.15625H2.34375ZM0.9375 1.875C0.9375 1.62636 1.03627 1.3879 1.21209 1.21209C1.3879 1.03627 1.62636 0.9375 1.875 0.9375H5.625C5.87364 0.9375 6.1121 1.03627 6.28791 1.21209C6.46373 1.3879 6.5625 1.62636 6.5625 1.875V5.625C6.5625 5.87364 6.46373 6.1121 6.28791 6.28791C6.1121 6.46373 5.87364 6.5625 5.625 6.5625H1.875C1.62636 6.5625 1.3879 6.46373 1.21209 6.28791C1.03627 6.1121 0.9375 5.87364 0.9375 5.625V1.875ZM8.4375 2.10938C8.4375 1.92289 8.51158 1.74405 8.64344 1.61219C8.7753 1.48033 8.95414 1.40625 9.14062 1.40625H13.3594C13.5459 1.40625 13.7247 1.48033 13.8566 1.61219C13.9884 1.74405 14.0625 1.92289 14.0625 2.10938C14.0625 2.29586 13.9884 2.4747 13.8566 2.60656C13.7247 2.73842 13.5459 2.8125 13.3594 2.8125H9.14062C8.95414 2.8125 8.7753 2.73842 8.64344 2.60656C8.51158 2.4747 8.4375 2.29586 8.4375 2.10938ZM9.14062 4.6875C8.95414 4.6875 8.7753 4.76158 8.64344 4.89344C8.51158 5.0253 8.4375 5.20414 8.4375 5.39062C8.4375 5.57711 8.51158 5.75595 8.64344 5.88781C8.7753 6.01967 8.95414 6.09375 9.14062 6.09375H13.3594C13.5459 6.09375 13.7247 6.01967 13.8566 5.88781C13.9884 5.75595 14.0625 5.57711 14.0625 5.39062C14.0625 5.20414 13.9884 5.0253 13.8566 4.89344C13.7247 4.76158 13.5459 4.6875 13.3594 4.6875H9.14062ZM2.34375 9.84375V12.6562H5.15625V9.84375H2.34375ZM1.875 8.4375C1.62636 8.4375 1.3879 8.53627 1.21209 8.71209C1.03627 8.8879 0.9375 9.12636 0.9375 9.375V13.125C0.9375 13.3736 1.03627 13.6121 1.21209 13.7879C1.3879 13.9637 1.62636 14.0625 1.875 14.0625H5.625C5.87364 14.0625 6.1121 13.9637 6.28791 13.7879C6.46373 13.6121 6.5625 13.3736 6.5625 13.125V9.375C6.5625 9.12636 6.46373 8.8879 6.28791 8.71209C6.1121 8.53627 5.87364 8.4375 5.625 8.4375H1.875ZM9.14062 8.90625C8.95414 8.90625 8.7753 8.98033 8.64344 9.11219C8.51158 9.24405 8.4375 9.42289 8.4375 9.60938C8.4375 9.79586 8.51158 9.9747 8.64344 10.1066C8.7753 10.2384 8.95414 10.3125 9.14062 10.3125H13.3594C13.5459 10.3125 13.7247 10.2384 13.8566 10.1066C13.9884 9.9747 14.0625 9.79586 14.0625 9.60938C14.0625 9.42289 13.9884 9.24405 13.8566 9.11219C13.7247 8.98033 13.5459 8.90625 13.3594 8.90625H9.14062ZM9.14062 12.1875C8.95414 12.1875 8.7753 12.2616 8.64344 12.3934C8.51158 12.5253 8.4375 12.7041 8.4375 12.8906C8.4375 13.0771 8.51158 13.2559 8.64344 13.3878C8.7753 13.5197 8.95414 13.5938 9.14062 13.5938H13.3594C13.5459 13.5938 13.7247 13.5197 13.8566 13.3878C13.9884 13.2559 14.0625 13.0771 14.0625 12.8906C14.0625 12.7041 13.9884 12.5253 13.8566 12.3934C13.7247 12.2616 13.5459 12.1875 13.3594 12.1875H9.14062Z" fill="white"/>
</g>
</g>
<defs>
<clipPath id="clip0_2247_2636">
<rect width="15" height="15" fill="white"/>
</clipPath>
<clipPath id="clip1_2247_2636">
<rect width="15" height="15" fill="white"/>
</clipPath>
</defs>
</svg>
