<svg width="31" height="32" viewBox="0 0 31 32" fill="none" xmlns="http://www.w3.org/2000/svg">
<path d="M10.9348 26.3336H5.66206C5.41178 26.3336 5.17176 26.2342 4.99478 26.0572C4.81781 25.8803 4.71839 25.6402 4.71839 25.39V20.1172C4.71796 19.9947 4.7417 19.8732 4.78826 19.7599C4.83481 19.6465 4.90326 19.5435 4.9897 19.4566L19.1448 5.30154C19.2326 5.21238 19.3372 5.14157 19.4527 5.09324C19.5681 5.04491 19.692 5.02002 19.8171 5.02002C19.9423 5.02002 20.0662 5.04491 20.1816 5.09324C20.297 5.14157 20.4017 5.21238 20.4895 5.30154L25.7505 10.5625C25.8396 10.6503 25.9104 10.755 25.9588 10.8704C26.0071 10.9858 26.032 11.1097 26.032 11.2349C26.032 11.36 26.0071 11.4839 25.9588 11.5993C25.9104 11.7148 25.8396 11.8194 25.7505 11.9072L11.5954 26.0623C11.5085 26.1488 11.4055 26.2172 11.2921 26.2638C11.1788 26.3103 11.0574 26.3341 10.9348 26.3336V26.3336Z" stroke="white" stroke-width="1.88734" stroke-linecap="round" stroke-linejoin="round"/>
<path d="M16.0425 8.40332L22.6482 15.009" stroke="white" stroke-width="1.88734" stroke-linecap="round" stroke-linejoin="round"/>
</svg>
