<svg width="24" height="24" viewBox="0 0 24 24" fill="none" xmlns="http://www.w3.org/2000/svg">
<path opacity="0.2" d="M8.8464 11.6966C9.57146 13.1939 10.7822 14.4016 12.2814 15.1228C12.392 15.1752 12.5143 15.1978 12.6363 15.1885C12.7583 15.1793 12.8758 15.1384 12.9772 15.0699L15.1791 13.5991C15.2764 13.5331 15.3888 13.4928 15.5058 13.4821C15.6229 13.4713 15.7408 13.4903 15.8484 13.5374L19.9704 15.3077C20.1113 15.3664 20.229 15.4697 20.3054 15.6018C20.3818 15.7339 20.4126 15.8874 20.3932 16.0388C20.2625 17.0585 19.7648 17.9956 18.9932 18.6749C18.2215 19.3541 17.2288 19.7289 16.2008 19.7292C13.0239 19.7292 9.97716 18.4672 7.73079 16.2208C5.48441 13.9744 4.22241 10.9277 4.22241 7.75083C4.22264 6.7228 4.59745 5.73008 5.2767 4.95842C5.95596 4.18677 6.89311 3.68905 7.9128 3.55841C8.06415 3.53896 8.21769 3.56981 8.34978 3.64621C8.48188 3.7226 8.58519 3.84029 8.64383 3.98117L10.4142 8.11194C10.4602 8.21793 10.4795 8.33363 10.4702 8.44882C10.461 8.56402 10.4236 8.67518 10.3613 8.77251L8.89044 11.0096C8.82496 11.1108 8.78652 11.2271 8.77881 11.3474C8.7711 11.4677 8.79438 11.5879 8.8464 11.6966Z" fill="#0096E6"/>
<path d="M8.8464 11.6966C9.57146 13.1939 10.7822 14.4016 12.2814 15.1228C12.392 15.1752 12.5143 15.1978 12.6363 15.1885C12.7583 15.1793 12.8758 15.1384 12.9772 15.0699L15.1791 13.5991C15.2764 13.5331 15.3888 13.4928 15.5058 13.4821C15.6229 13.4713 15.7408 13.4903 15.8484 13.5374L19.9704 15.3077C20.1113 15.3664 20.229 15.4697 20.3054 15.6018C20.3818 15.7339 20.4126 15.8874 20.3932 16.0388C20.2625 17.0585 19.7648 17.9956 18.9932 18.6749C18.2215 19.3541 17.2288 19.7289 16.2008 19.7292C13.0239 19.7292 9.97716 18.4672 7.73079 16.2208C5.48441 13.9744 4.22241 10.9277 4.22241 7.75083C4.22264 6.7228 4.59745 5.73008 5.2767 4.95842C5.95596 4.18677 6.89311 3.68905 7.9128 3.55841C8.06415 3.53896 8.21769 3.56981 8.34978 3.64621C8.48188 3.7226 8.58519 3.84029 8.64383 3.98117L10.4142 8.11194C10.4602 8.21793 10.4795 8.33363 10.4702 8.44882C10.461 8.56402 10.4236 8.67518 10.3613 8.77251L8.89044 11.0096C8.82496 11.1108 8.78652 11.2271 8.77881 11.3474C8.7711 11.4677 8.79438 11.5879 8.8464 11.6966V11.6966Z" stroke="#0096E6" stroke-width="1.40922" stroke-linecap="round" stroke-linejoin="round"/>
</svg>
