<svg width="15" height="15" viewBox="0 0 15 15" fill="none" xmlns="http://www.w3.org/2000/svg">
<g clip-path="url(#clip0_2247_2655)">
<path d="M6.09351 0.9375V2.85889L5.15601 3.33924L3.74976 1.89819L1.87476 3.81958L3.28101 5.26062L2.81226 6.22132H0.937256V9.1034H2.81226L3.28101 10.0641L1.87476 11.5051L3.74976 13.4265L5.15601 11.9855L6.09351 12.4658V14.3872H8.90601V12.4658L9.84351 11.9855L11.2498 13.4265L13.1248 11.5051L11.7185 10.0641L12.1873 9.1034H14.0623V6.22132H12.1873L11.7185 5.26062L13.1248 3.81958L11.2498 1.89819L9.84351 3.33924L8.90601 2.85889V0.9375H6.09351Z" stroke="white" stroke-width="1.04556" stroke-linecap="round" stroke-linejoin="round"/>
<path d="M7.49951 9.58374C8.53505 9.58374 9.37451 8.72351 9.37451 7.66236C9.37451 6.6012 8.53505 5.74097 7.49951 5.74097C6.46398 5.74097 5.62451 6.6012 5.62451 7.66236C5.62451 8.72351 6.46398 9.58374 7.49951 9.58374Z" stroke="white" stroke-width="1.04556" stroke-linecap="round" stroke-linejoin="round"/>
</g>
<defs>
<clipPath id="clip0_2247_2655">
<rect width="15" height="15" fill="white"/>
</clipPath>
</defs>
</svg>
