<svg width="15" height="19" viewBox="0 0 15 19" fill="none" xmlns="http://www.w3.org/2000/svg">
<path d="M7.5 1.625C8.14897 1.625 8.78337 1.81744 9.32296 2.17799C9.86256 2.53854 10.2831 3.051 10.5315 3.65057C10.7798 4.25014 10.8448 4.90989 10.7182 5.54639C10.5916 6.18289 10.2791 6.76755 9.82019 7.22644C9.3613 7.68534 8.77664 7.99784 8.14014 8.12445C7.50364 8.25106 6.84389 8.18608 6.24432 7.93773C5.64475 7.68938 5.13229 7.26881 4.77174 6.72921C4.41119 6.18962 4.21875 5.55522 4.21875 4.90625C4.21875 4.03601 4.56445 3.20141 5.17981 2.58606C5.79516 1.9707 6.62976 1.625 7.5 1.625ZM7.5 0.3125C6.59144 0.3125 5.70329 0.581919 4.94785 1.08669C4.19241 1.59145 3.60362 2.3089 3.25593 3.1483C2.90824 3.9877 2.81727 4.91135 2.99452 5.80245C3.17177 6.69355 3.60928 7.51207 4.25173 8.15452C4.89418 8.79697 5.7127 9.23448 6.6038 9.41173C7.4949 9.58898 8.41855 9.49801 9.25795 9.15032C10.0974 8.80263 10.8148 8.21384 11.3196 7.4584C11.8243 6.70296 12.0938 5.81481 12.0938 4.90625C12.0938 3.68791 11.6098 2.51947 10.7483 1.65798C9.88678 0.796483 8.71834 0.3125 7.5 0.3125ZM14.0625 18.6875H12.75V15.4062C12.75 14.9754 12.6651 14.5487 12.5002 14.1506C12.3353 13.7525 12.0936 13.3907 11.7889 13.0861C11.4843 12.7814 11.1225 12.5397 10.7244 12.3748C10.3263 12.2099 9.89965 12.125 9.46875 12.125H5.53125C4.66101 12.125 3.82641 12.4707 3.21106 13.0861C2.5957 13.7014 2.25 14.536 2.25 15.4062V18.6875H0.9375V15.4062C0.9375 14.1879 1.42148 13.0195 2.28298 12.158C3.14447 11.2965 4.31291 10.8125 5.53125 10.8125H9.46875C10.6871 10.8125 11.8555 11.2965 12.717 12.158C13.5785 13.0195 14.0625 14.1879 14.0625 15.4062V18.6875Z" fill="white"/>
</svg>
