<svg width="15" height="15" viewBox="0 0 15 15" fill="none" xmlns="http://www.w3.org/2000/svg">
<g clip-path="url(#clip0_2247_2641)">
<path d="M14.0625 14.0625H13.125V11.7188C13.1243 11.0974 12.8771 10.5017 12.4377 10.0623C11.9983 9.62291 11.4026 9.37574 10.7812 9.375V8.4375C11.6512 8.43849 12.4852 8.78451 13.1003 9.39965C13.7155 10.0148 14.0615 10.8488 14.0625 11.7188V14.0625ZM10.3125 14.0625H9.375V11.7188C9.37426 11.0974 9.12709 10.5017 8.68771 10.0623C8.24833 9.62291 7.65262 9.37574 7.03125 9.375H4.21875C3.59738 9.37574 3.00167 9.62291 2.56229 10.0623C2.12291 10.5017 1.87574 11.0974 1.875 11.7188V14.0625H0.9375V11.7188C0.938493 10.8488 1.28451 10.0148 1.89965 9.39965C2.51479 8.78451 3.34881 8.43849 4.21875 8.4375H7.03125C7.90119 8.43849 8.73521 8.78451 9.35035 9.39965C9.96549 10.0148 10.3115 10.8488 10.3125 11.7188V14.0625ZM9.375 0.9375V1.875C9.9966 1.875 10.5927 2.12193 11.0323 2.56147C11.4718 3.00101 11.7188 3.59715 11.7188 4.21875C11.7188 4.84035 11.4718 5.43649 11.0323 5.87603C10.5927 6.31557 9.9966 6.5625 9.375 6.5625V7.5C10.2452 7.5 11.0798 7.1543 11.6952 6.53894C12.3105 5.92359 12.6562 5.08899 12.6562 4.21875C12.6562 3.34851 12.3105 2.51391 11.6952 1.89856C11.0798 1.2832 10.2452 0.9375 9.375 0.9375ZM5.625 1.875C6.08855 1.875 6.54169 2.01246 6.92712 2.26999C7.31255 2.52753 7.61295 2.89357 7.79034 3.32184C7.96774 3.7501 8.01415 4.22135 7.92372 4.67599C7.83328 5.13064 7.61006 5.54825 7.28228 5.87603C6.9545 6.20381 6.53689 6.42703 6.08224 6.51747C5.6276 6.6079 5.15635 6.56149 4.72809 6.38409C4.29982 6.2067 3.93378 5.9063 3.67624 5.52087C3.41871 5.13544 3.28125 4.6823 3.28125 4.21875C3.28125 3.59715 3.52818 3.00101 3.96772 2.56147C4.40726 2.12193 5.0034 1.875 5.625 1.875ZM5.625 0.9375C4.97603 0.9375 4.34163 1.12994 3.80204 1.49049C3.26244 1.85104 2.84187 2.3635 2.59352 2.96307C2.34517 3.56264 2.28019 4.22239 2.4068 4.85889C2.53341 5.49539 2.84591 6.08005 3.30481 6.53894C3.7637 6.99784 4.34836 7.31034 4.98486 7.43695C5.62136 7.56356 6.28111 7.49858 6.88068 7.25023C7.48025 7.00188 7.99271 6.58131 8.35326 6.04171C8.71381 5.50212 8.90625 4.86772 8.90625 4.21875C8.90625 3.34851 8.56055 2.51391 7.94519 1.89856C7.32984 1.2832 6.49524 0.9375 5.625 0.9375Z" fill="white"/>
</g>
<defs>
<clipPath id="clip0_2247_2641">
<rect width="15" height="15" fill="white"/>
</clipPath>
</defs>
</svg>
